SplineFontDB: 3.2
FontName: Besley-BlackItalic
FullName: Besley* Fatface Italic
FamilyName: Besley* Fatface
Weight: Black
Version: 002.100
ItalicAngle: -13
UnderlinePosition: -200
UnderlineWidth: 100
Ascent: 1600
Descent: 400
InvalidEm: 0
LayerCount: 2
Layer: 0 0 "Back" 1
Layer: 1 0 "Fore" 0
PreferredKerning: 4
XUID: [1021 31 -699969567 16487490]
FSType: 0
OS2Version: 0
OS2_WeightWidthSlopeOnly: 0
OS2_UseTypoMetrics: 1
CreationTime: 1460762150
PfmFamily: 17
TTFWeight: 900
TTFWidth: 5
LineGap: 0
VLineGap: 0
OS2TypoAscent: 2500
OS2TypoAOffset: 0
OS2TypoDescent: -850
OS2TypoDOffset: 0
OS2TypoLinegap: 0
OS2WinAscent: 2500
OS2WinAOffset: 0
OS2WinDescent: 850
OS2WinDOffset: 0
HheadAscent: 2500
HheadAOffset: 0
HheadDescent: -850
HheadDOffset: 0
OS2CapHeight: 1500
OS2XHeight: 1040
OS2FamilyClass: 1024
OS2Vendor: 'PfEd'
OS2UnicodeRanges: 00000001.00000000.00000000.00000000
Lookup: 4 0 1 "'liga' Standard Ligatures lookup 0" { "'liga' Standard Ligatures lookup 0 subtable"  } ['liga' ('DFLT' <'dflt' > 'grek' <'dflt' > 'latn' <'dflt' > ) ]
Lookup: 1 0 0 "'onum' Oldstyle Figures lookup 1" { "'onum' Oldstyle Figures lookup 1 subtable" ("oldstyle") } ['onum' ('DFLT' <'dflt' > 'grek' <'dflt' > 'latn' <'dflt' > ) ]
Lookup: 1 0 0 "'tnum' Tabular Numbers lookup 2" { "'tnum' Tabular Numbers lookup 2 subtable"  } ['tnum' ('DFLT' <'dflt' > 'grek' <'dflt' > 'latn' <'dflt' > ) ]
Lookup: 1 0 0 "'ss01' Style Set 1 lookup 3" { "'ss01' Style Set 1 lookup 3 subtable"  } ['ss01' ('DFLT' <'dflt' > 'grek' <'dflt' > 'latn' <'dflt' > ) ]
Lookup: 6 0 0 "'calt' Contextual Alternates lookup 4" { "'calt' Contextual Alternates lookup 4 contextual 0"  "'calt' Contextual Alternates lookup 4 contextual 1"  } ['calt' ('DFLT' <'dflt' > 'grek' <'dflt' > 'latn' <'dflt' > ) ]
Lookup: 1 0 0 "'smcp' Lowercase to Small Capitals in Latin lookup 0" { "'smcp' Lowercase to Small Capitals in Latin lookup 0 subtable"  } ['smcp' ('latn' <'dflt' > ) ]

StartChar: ampersand
Encoding: 38 38 0
GlifName: ampersand
Width: 1840
Flags: MW
Fore
SplineSet
1366 648 m 0
 1276 648 1228 716 1228 812 c 0
 1228 952 1380 1018 1518 1018 c 0
 1694 1018 1780 912 1780 750 c 0
 1780 592 1602 400 1351 246 c 0
 1311 222 1283 203 1349 187 c 0
 1365 183 1385 182 1408 182 c 0
 1440 182 1480 202 1515 242 c 0
 1542 273 1539 294 1577 266 c 2
 1689 183 l 2
 1718 161 1722 160 1699 129 c 0
 1605 1 1446 -70 1262 -70 c 0
 1165 -70 1057 -49 972 24 c 0
 933 58 921 47 864 31 c 0
 729 -8 591 -30 460 -30 c 0
 174 -30 2 114 2 320 c 0
 2 607 207 733 438 827 c 0
 492 849 502 845 474 896 c 0
 430 977 398 1078 398 1166 c 0
 398 1406 708 1540 1080 1540 c 0
 1334 1540 1512 1458 1512 1310 c 0
 1512 1077 1280 986 1034 894 c 0
 968 869 961 872 993 810 c 2
 1176 452 l 2
 1204 397 1204 391 1255 426 c 0
 1390 520 1470 615 1470 642 c 0
 1470 654 1468 660 1458 660 c 0
 1440 660 1434 648 1366 648 c 0
462 380 m 0
 462 256 522 220 630 220 c 0
 682 220 733 224 782 232 c 0
 842 241 827 250 804 292 c 2
 623 623 l 2
 591 681 585 671 545 622 c 0
 493 558 462 480 462 380 c 0
1084 1310 m 0
 1084 1344 1072 1380 1026 1380 c 0
 952 1380 848 1326 848 1220 c 0
 848 1175 858 1130 879 1067 c 0
 895 1019 897 1015 937 1044 c 0
 1026 1108 1084 1190 1084 1310 c 0
EndSplineSet
EndChar

StartChar: period
Encoding: 46 46 1
GlifName: period
Width: 620
Flags: MW
Fore
SplineSet
-60 200 m 0
 -60 332 48 440 180 440 c 0
 312 440 420 332 420 200 c 0
 420 68 312 -40 180 -40 c 0
 48 -40 -60 68 -60 200 c 0
EndSplineSet
EndChar

StartChar: zero
Encoding: 48 48 2
GlifName: zero
Width: 1364
Flags: MW
Fore
SplineSet
105 750 m 0
 236 1316 497 1520 863 1520 c 0
 1229 1520 1456 1316 1325 750 c 0
 1194 184 923 -20 577 -20 c 0
 231 -20 -26 184 105 750 c 0
525 750 m 0
 422 306 458 190 586 190 c 0
 724 190 802 306 905 750 c 0
 1008 1194 982 1310 844 1310 c 0
 716 1310 628 1194 525 750 c 0
EndSplineSet
Substitution2: "'onum' Oldstyle Figures lookup 1 subtable" zero.oldstyle
Substitution2: "'tnum' Tabular Numbers lookup 2 subtable" uniFF10
EndChar

StartChar: one
Encoding: 49 49 3
GlifName: one
Width: 1200
VWidth: 2310
Flags: MW
Fore
SplineSet
-10 65 m 2
 -10 166 l 2
 -10 208 0 210 43 210 c 2
 295 210 l 2
 344 210 350 219 360 264 c 2
 550 1073 l 2
 550 1113 541 1120 503 1120 c 2
 299 1120 l 2
 266 1120 254 1123 254 1159 c 2
 254 1279 l 2
 254 1333 286 1330 333 1331 c 0
 517 1335 716 1360 829 1535 c 0
 849 1565 871 1580 923 1580 c 2
 989 1580 l 2
 1032 1580 1049 1573 1040 1534 c 2
 750 266 l 2
 738 215 760 210 815 210 c 2
 1037 210 l 2
 1070 210 1090 206 1090 170 c 2
 1090 59 l 2
 1090 10 1088 0 1039 0 c 2
 55 0 l 2
 -3 0 -10 5 -10 65 c 2
EndSplineSet
Substitution2: "'onum' Oldstyle Figures lookup 1 subtable" one.oldstyle
Substitution2: "'tnum' Tabular Numbers lookup 2 subtable" uniFF11
EndChar

StartChar: two
Encoding: 50 50 4
GlifName: two
Width: 1425
VWidth: 2310
Flags: MW
Fore
SplineSet
1334 510 m 0
 1273 191 1043 -20 775 -20 c 0
 541 -20 431 100 285 100 c 0
 228 100 191 74 168 34 c 0
 152 7 158 0 113 0 c 2
 -29 0 l 2
 -68 0 -74 4 -74 42 c 0
 -73 270 174 589 469 748 c 0
 697 871 999 1022 999 1200 c 0
 999 1298 937 1346 789 1346 c 0
 661 1346 497 1298 497 1254 c 0
 497 1218 659 1228 659 1056 c 0
 659 922 554 850 440 850 c 0
 322 850 207 926 207 1082 c 0
 207 1356 565 1520 919 1520 c 0
 1221 1520 1421 1450 1421 1190 c 0
 1421 910 1010 792 709 660 c 0
 541 586 403 501 340 441 c 0
 288 392 221 307 242 301 c 0
 275 291 284 356 366 414 c 0
 419 451 519 469 585 469 c 0
 755 469 785 381 937 381 c 0
 1044 381 1125 431 1138 510 c 0
 1144 552 1139 554 1187 554 c 2
 1293 554 l 2
 1337 554 1342 551 1334 510 c 0
EndSplineSet
Substitution2: "'onum' Oldstyle Figures lookup 1 subtable" two.oldstyle
Substitution2: "'tnum' Tabular Numbers lookup 2 subtable" uniFF12
EndChar

StartChar: three
Encoding: 51 51 5
GlifName: three
Width: 1235
VWidth: 2310
Flags: MW
Fore
SplineSet
-20 348 m 0
 -20 484 70 590 218 590 c 0
 352 590 422 518 422 424 c 0
 422 292 297 292 297 246 c 0
 297 192 394 164 472 164 c 0
 620 164 758 262 758 470 c 0
 758 606 689 655 556 670 c 0
 518 674 504 663 504 707 c 2
 504 838 l 2
 504 877 513 869 547 872 c 0
 731 886 878 1055 878 1202 c 0
 878 1310 780 1346 652 1346 c 0
 594 1346 528 1330 528 1296 c 0
 528 1250 662 1260 662 1118 c 0
 662 1034 582 952 458 952 c 0
 340 952 220 1028 220 1174 c 0
 220 1368 468 1520 782 1520 c 0
 1114 1520 1280 1402 1280 1212 c 0
 1280 988 1065 868 844 798 c 0
 800 784 770 789 770 775 c 0
 770 758 789 766 844 752 c 0
 1082 689 1150 621 1150 460 c 0
 1150 160 784 -20 482 -20 c 0
 158 -20 -20 154 -20 348 c 0
EndSplineSet
Substitution2: "'onum' Oldstyle Figures lookup 1 subtable" three.oldstyle
Substitution2: "'tnum' Tabular Numbers lookup 2 subtable" uniFF13
EndChar

StartChar: four
Encoding: 52 52 6
GlifName: four
Width: 1310
VWidth: 2310
Flags: MW
Fore
SplineSet
1140 164 m 2
 1140 36 l 2
 1140 3 1132 0 1098 0 c 2
 366 0 l 2
 319 0 310 1 310 48 c 2
 310 165 l 2
 310 201 317 210 354 210 c 2
 533 210 l 2
 577 210 579 220 590 262 c 2
 615 356 l 2
 628 407 600 410 546 410 c 2
 88 410 l 2
 45 410 45 418 31 444 c 2
 0 502 l 2
 -12 523 -5 532 6 554 c 0
 163 868 795 1048 898 1444 c 0
 909 1486 910 1500 966 1500 c 2
 1236 1500 l 2
 1289 1500 1298 1495 1290 1448 c 0
 1226 1062 577 911 381 692 c 0
 354 662 329 620 407 620 c 2
 632 620 l 2
 667 620 667 634 680 664 c 2
 695 710 l 2
 712 749 711 754 742 771 c 0
 808 806 947 854 988 940 c 0
 997 960 1003 970 1034 970 c 2
 1100 970 l 2
 1131 970 1147 968 1140 938 c 2
 1078 678 l 2
 1071 647 1087 620 1124 620 c 2
 1254 620 l 2
 1286 620 1290 612 1290 582 c 2
 1290 466 l 2
 1290 420 1290 410 1244 410 c 2
 1059 410 l 2
 1018 410 1016 403 1005 362 c 2
 979 262 l 2
 968 220 984 210 1031 210 c 2
 1096 210 l 2
 1135 210 1140 204 1140 164 c 2
EndSplineSet
Substitution2: "'onum' Oldstyle Figures lookup 1 subtable" four.oldstyle
Substitution2: "'tnum' Tabular Numbers lookup 2 subtable" uniFF14
EndChar

StartChar: five
Encoding: 53 53 7
GlifName: five
Width: 1300
VWidth: 2310
Flags: MW
Fore
SplineSet
-5 318 m 0
 -5 464 95 550 223 550 c 0
 347 550 427 468 427 384 c 0
 427 292 353 252 353 206 c 0
 353 162 409 144 487 144 c 0
 645 144 833 392 833 600 c 0
 833 768 755 812 637 812 c 0
 558 812 446 763 360 655 c 0
 344 634 333 624 294 624 c 2
 230 624 l 2
 176 624 181 642 186 686 c 2
 458 1460 l 2
 470 1495 472 1500 514 1500 c 2
 789 1500 l 2
 990 1500 1152 1468 1218 1543 c 0
 1231 1558 1241 1564 1272 1564 c 2
 1377 1564 l 2
 1403 1564 1414 1557 1409 1534 c 2
 1401 1500 l 2
 1365 1336 1229 1120 755 1120 c 2
 530 1120 l 2
 492 1120 495 1109 483 1078 c 2
 428 930 l 2
 414 895 388 850 396 846 c 0
 411 837 432 872 464 896 c 0
 540 952 670 1000 811 1000 c 0
 1113 1000 1245 830 1245 600 c 0
 1245 260 909 -20 527 -20 c 0
 223 -20 -5 114 -5 318 c 0
EndSplineSet
Substitution2: "'onum' Oldstyle Figures lookup 1 subtable" five.oldstyle
Substitution2: "'tnum' Tabular Numbers lookup 2 subtable" uniFF15
EndChar

StartChar: six
Encoding: 54 54 8
GlifName: six
Width: 1330
VWidth: 2310
Flags: MW
Fore
SplineSet
989 1322 m 0
 989 1349 961 1366 913 1366 c 0
 795 1366 640 1197 543 864 c 0
 533 829 525 815 531 811 c 0
 539 806 546 822 571 842 c 0
 659 914 784 960 914 960 c 0
 1136 960 1317 810 1245 500 c 0
 1160 130 875 -20 573 -20 c 0
 251 -20 -21 170 111 740 c 0
 222 1220 577 1520 949 1520 c 0
 1233 1520 1362 1386 1362 1222 c 0
 1362 1082 1260 990 1131 990 c 0
 997 990 910 1052 910 1146 c 0
 910 1250 989 1276 989 1322 c 0
839 470 m 0
 882 658 813 722 705 722 c 0
 599 722 483 620 446 460 c 0
 410 302 448 210 576 210 c 0
 694 210 798 292 839 470 c 0
EndSplineSet
Substitution2: "'tnum' Tabular Numbers lookup 2 subtable" uniFF16
EndChar

StartChar: seven
Encoding: 55 55 9
GlifName: seven
Width: 1203
VWidth: 2310
Flags: MW
Fore
SplineSet
155 982 m 0
 215 1317 434 1520 635 1520 c 0
 829 1520 889 1400 1055 1400 c 0
 1123 1400 1156 1427 1176 1471 c 0
 1184 1489 1187 1500 1215 1500 c 2
 1344 1500 l 2
 1379 1500 1385 1493 1380 1460 c 0
 1357 1305 1056 933 841 726 c 0
 698 588 593 512 593 444 c 0
 593 358 749 378 749 216 c 0
 749 102 659 -20 511 -20 c 0
 363 -20 259 54 259 222 c 0
 259 400 425 579 613 752 c 0
 713 844 861 975 967 1100 c 0
 1000 1139 1021 1176 1011 1186 c 0
 996 1201 972 1159 943 1136 c 0
 896 1098 839 1066 755 1066 c 0
 635 1066 585 1134 483 1134 c 0
 396 1134 341 1082 331 980 c 0
 329 957 336 946 308 946 c 2
 192 946 l 2
 162 946 150 954 155 982 c 0
EndSplineSet
Substitution2: "'onum' Oldstyle Figures lookup 1 subtable" seven.oldstyle
Substitution2: "'tnum' Tabular Numbers lookup 2 subtable" uniFF17
EndChar

StartChar: eight
Encoding: 56 56 10
GlifName: eight
Width: 1290
VWidth: 2310
Flags: MW
Fore
SplineSet
443 444 m 0
 395 236 441 170 539 170 c 0
 627 170 705 236 753 444 c 0
 792 612 754 720 666 720 c 0
 568 720 482 612 443 444 c 0
253 1140 m 0
 304 1360 489 1520 811 1520 c 0
 1143 1520 1334 1360 1283 1140 c 0
 1249 994 1145 897 1009 842 c 0
 975 828 949 824 946 810 c 0
 943 798 968 792 994 780 c 0
 1133 716 1206 591 1167 420 c 0
 1107 160 897 -20 535 -20 c 0
 173 -20 -23 160 37 420 c 0
 79 600 212 731 394 790 c 0
 417 797 430 797 433 812 c 0
 436 826 414 827 401 832 c 0
 278 884 217 984 253 1140 c 0
645 1105 m 0
 611 957 650 900 708 900 c 0
 786 900 831 957 865 1105 c 0
 899 1253 885 1330 817 1330 c 0
 749 1330 679 1253 645 1105 c 0
EndSplineSet
Substitution2: "'tnum' Tabular Numbers lookup 2 subtable" uniFF18
EndChar

StartChar: nine
Encoding: 57 57 11
GlifName: nine
Width: 1330
VWidth: 2310
Flags: MW
Fore
SplineSet
411 178 m 0
 411 151 439 134 487 134 c 0
 605 134 760 303 857 636 c 0
 867 671 875 685 869 689 c 0
 861 694 854 678 829 658 c 0
 741 586 616 540 486 540 c 0
 264 540 83 690 155 1000 c 0
 240 1370 525 1520 827 1520 c 0
 1149 1520 1421 1330 1289 760 c 0
 1178 280 823 -20 451 -20 c 0
 167 -20 38 114 38 278 c 0
 38 418 140 510 269 510 c 0
 403 510 490 448 490 354 c 0
 490 250 411 224 411 178 c 0
561 1030 m 0
 518 842 587 778 695 778 c 0
 801 778 917 880 954 1040 c 0
 990 1198 952 1290 824 1290 c 0
 706 1290 602 1208 561 1030 c 0
EndSplineSet
Substitution2: "'onum' Oldstyle Figures lookup 1 subtable" nine.oldstyle
Substitution2: "'tnum' Tabular Numbers lookup 2 subtable" uniFF19
EndChar

StartChar: A
Encoding: 65 65 12
GlifName: A_
Width: 2020
Flags: MW
AnchorPoint: "Anchor-0" 1198 1500 basechar 0
AnchorPoint: "Anchor-1" 656 0 basechar 0
AnchorPoint: "Anchor-2" 656 0 basechar 0
AnchorPoint: "Anchor-3" 1396 0 basechar 0
Fore
SplineSet
931 994 m 2
 755 732 l 2
 728 691 710 670 794 670 c 2
 1002 670 l 2
 1061 670 1077 665 1067 718 c 2
 1018 988 l 2
 1007 1046 1016 1083 996 1083 c 0
 980 1083 962 1041 931 994 c 2
-120 40 m 2
 -120 236 l 2
 -120 266 -111 270 -80 270 c 2
 104 270 l 2
 145 270 145 279 161 302 c 2
 958 1482 l 2
 981 1516 981 1530 1040 1530 c 2
 1308 1530 l 2
 1398 1530 1392 1519 1407 1446 c 2
 1643 306 l 2
 1650 272 1649 270 1690 270 c 2
 1822 270 l 2
 1853 270 1860 265 1860 232 c 2
 1860 46 l 2
 1860 8 1857 0 1820 0 c 2
 984 0 l 2
 951 0 940 3 940 38 c 2
 940 206 l 2
 940 251 944 270 993 270 c 2
 1112 270 l 2
 1154 270 1149 274 1143 308 c 2
 1132 368 l 2
 1122 419 1111 420 1050 420 c 2
 608 420 l 2
 550 420 544 416 522 382 c 2
 474 310 l 2
 449 272 440 270 506 270 c 2
 558 270 l 2
 592 270 600 256 600 220 c 2
 600 56 l 2
 600 8 598 0 550 0 c 2
 -72 0 l 2
 -111 0 -120 1 -120 40 c 2
EndSplineSet
Substitution2: "'c2sc' Capitals to Small Capitals in Latin lookup 1 subtable" a.sc
EndChar

StartChar: B
Encoding: 66 66 13
GlifName: B_
Width: 1744
Flags: MW
AnchorPoint: "Anchor-0" 1028 1500 basechar 0
AnchorPoint: "Anchor-1" 686 0 basechar 0
AnchorPoint: "Anchor-2" 686 0 basechar 0
Fore
SplineSet
864 0 m 2
 -32 0 l 2
 -91 0 -100 1 -100 60 c 2
 -100 222 l 2
 -100 257 -97 270 -59 270 c 2
 122 270 l 2
 183 270 182 274 193 324 c 2
 373 1168 l 2
 385 1226 381 1230 302 1230 c 2
 232 1230 l 2
 164 1230 156 1238 156 1304 c 2
 156 1429 l 2
 156 1492 175 1500 234 1500 c 2
 1144 1500 l 2
 1526 1500 1724 1380 1724 1140 c 0
 1724 952 1607 858 1412 808 c 0
 1356 794 1322 803 1322 781 c 0
 1322 762 1346 769 1400 757 c 0
 1560 720 1644 644 1644 470 c 0
 1644 150 1386 0 864 0 c 2
844 270 m 2
 1056 270 1144 352 1144 490 c 0
 1144 628 1056 650 964 650 c 2
 804 650 l 2
 749 650 741 642 731 596 c 2
 673 322 l 2
 662 272 668 270 730 270 c 2
 844 270 l 2
832 900 m 2
 984 900 l 2
 1116 900 1244 972 1244 1110 c 0
 1244 1208 1176 1230 1104 1230 c 2
 910 1230 l 2
 860 1230 864 1222 856 1182 c 2
 805 944 l 2
 799 914 791 900 832 900 c 2
EndSplineSet
Substitution2: "'c2sc' Capitals to Small Capitals in Latin lookup 1 subtable" b.sc
EndChar

StartChar: C
Encoding: 67 67 14
GlifName: C_
Width: 1734
Flags: MW
AnchorPoint: "Anchor-0" 1150 1500 basechar 0
AnchorPoint: "Anchor-1" 777 0 basechar 0
AnchorPoint: "Anchor-2" 777 0 basechar 0
Fore
SplineSet
1638 497 m 0
 1539 232 1233 -40 770 -40 c 0
 364 -40 70 160 70 620 c 0
 70 1122 454 1540 1030 1540 c 0
 1187 1540 1300 1497 1378 1432 c 0
 1413 1403 1415 1377 1452 1412 c 2
 1502 1460 l 2
 1526 1483 1532 1500 1582 1500 c 2
 1770 1500 l 2
 1814 1500 1812 1494 1805 1457 c 2
 1705 920 l 2
 1698 884 1695 870 1650 870 c 2
 1474 870 l 2
 1432 870 1427 873 1430 908 c 0
 1449 1159 1282 1288 1086 1288 c 0
 784 1288 580 980 580 630 c 0
 580 346 710 256 878 256 c 0
 1049 256 1218 351 1320 510 c 0
 1341 543 1348 570 1406 570 c 2
 1568 570 l 2
 1651 570 1661 559 1638 497 c 0
EndSplineSet
Substitution2: "'c2sc' Capitals to Small Capitals in Latin lookup 1 subtable" c.sc
EndChar

StartChar: D
Encoding: 68 68 15
GlifName: D_
Width: 1916
Flags: MW
AnchorPoint: "Anchor-0" 1168 1500 basechar 0
AnchorPoint: "Anchor-1" 793 0 basechar 0
AnchorPoint: "Anchor-2" 793 0 basechar 0
Fore
SplineSet
-100 53 m 2
 -100 217 l 2
 -100 267 -78 270 -32 270 c 2
 124 270 l 2
 176 270 184 274 193 316 c 2
 374 1165 l 2
 387 1228 387 1230 312 1230 c 2
 220 1230 l 2
 163 1230 154 1231 154 1288 c 2
 154 1434 l 2
 154 1492 174 1500 228 1500 c 2
 1086 1500 l 2
 1672 1500 1846 1216 1846 930 c 0
 1846 284 1332 0 786 0 c 2
 -38 0 l 2
 -83 0 -100 4 -100 53 c 2
734 270 m 2
 786 270 l 2
 1094 270 1336 526 1336 970 c 0
 1336 1174 1214 1230 1046 1230 c 2
 922 1230 l 2
 870 1230 868 1229 859 1186 c 2
 675 324 l 2
 665 278 675 270 734 270 c 2
EndSplineSet
Substitution2: "'c2sc' Capitals to Small Capitals in Latin lookup 1 subtable" d.sc
EndChar

StartChar: E
Encoding: 69 69 16
GlifName: E_
Width: 1618
Flags: MW
AnchorPoint: "Anchor-0" 1008 1500 basechar 0
AnchorPoint: "Anchor-1" 676 0 basechar 0
AnchorPoint: "Anchor-2" 676 0 basechar 0
AnchorPoint: "Anchor-3" 1298 50 basechar 0
Fore
SplineSet
744 654 m 2
 671 330 l 2
 661 284 654 270 716 270 c 2
 816 270 l 2
 1073 270 1253 328 1340 595 c 0
 1354 637 1357 650 1416 650 c 2
 1514 650 l 2
 1579 650 1573 635 1562 586 c 2
 1450 64 l 2
 1438 9 1433 0 1364 0 c 2
 -54 0 l 2
 -92 0 -100 4 -100 44 c 2
 -100 209 l 2
 -100 266 -91 270 -36 270 c 2
 106 270 l 2
 167 270 178 272 189 322 c 2
 383 1176 l 2
 392 1215 396 1230 343 1230 c 2
 224 1230 l 2
 184 1230 168 1230 168 1274 c 2
 168 1466 l 2
 168 1496 175 1500 206 1500 c 2
 1682 1500 l 2
 1745 1500 1734 1476 1724 1430 c 2
 1627 962 l 2
 1616 909 1615 890 1548 890 c 2
 1442 890 l 2
 1388 890 1397 911 1402 950 c 0
 1431 1165 1343 1230 1120 1230 c 2
 926 1230 l 2
 891 1230 874 1226 867 1196 c 2
 800 896 l 2
 796 880 803 877 814 877 c 2
 815 877 l 2
 919 877 986 916 1028 995 c 0
 1050 1038 1049 1066 1120 1066 c 2
 1186 1066 l 2
 1244 1066 1245 1059 1235 1014 c 2
 1128 532 l 2
 1118 487 1114 476 1056 476 c 2
 974 476 l 2
 926 476 930 488 933 524 c 0
 940 626 870 676 773 676 c 2
 770 676 l 2
 752 676 747 668 744 654 c 2
EndSplineSet
Substitution2: "'c2sc' Capitals to Small Capitals in Latin lookup 1 subtable" e.sc
EndChar

StartChar: F
Encoding: 70 70 17
GlifName: F_
Width: 1638
Flags: MW
AnchorPoint: "Anchor-0" 1058 1500 basechar 0
AnchorPoint: "Anchor-1" 376 0 basechar 0
AnchorPoint: "Anchor-2" 376 0 basechar 0
Fore
SplineSet
-100 37 m 2
 -100 220 l 2
 -100 261 -98 270 -57 270 c 2
 105 270 l 2
 154 270 159 275 168 315 c 2
 364 1183 l 2
 372 1220 375 1230 325 1230 c 2
 201 1230 l 2
 150 1230 148 1238 148 1290 c 2
 148 1458 l 2
 148 1491 149 1500 182 1500 c 2
 1696 1500 l 2
 1756 1500 1756 1493 1746 1446 c 2
 1630 906 l 2
 1622 870 1620 850 1572 850 c 2
 1430 850 l 2
 1375 850 1382 866 1388 906 c 0
 1423 1139 1326 1230 1090 1230 c 2
 916 1230 l 2
 871 1230 855 1227 846 1188 c 2
 771 862 l 2
 769 851 764 827 782 827 c 2
 783 827 l 2
 906 827 987 892 1028 1002 c 0
 1036 1023 1034 1026 1063 1026 c 2
 1189 1026 l 2
 1233 1026 1234 1020 1226 987 c 2
 1084 409 l 2
 1077 380 1068 376 1031 376 c 2
 919 376 l 2
 876 376 878 384 882 419 c 0
 899 578 850 626 736 626 c 2
 735 626 l 2
 725 626 717 621 715 613 c 2
 644 301 l 2
 638 274 643 270 678 270 c 2
 878 270 l 2
 913 270 914 261 914 226 c 2
 914 38 l 2
 914 2 906 0 869 0 c 2
 -54 0 l 2
 -86 0 -100 2 -100 37 c 2
EndSplineSet
Substitution2: "'c2sc' Capitals to Small Capitals in Latin lookup 1 subtable" f.sc
EndChar

StartChar: G
Encoding: 71 71 18
GlifName: G_
Width: 1914
Flags: MW
AnchorPoint: "Anchor-0" 1150 1500 basechar 0
AnchorPoint: "Anchor-1" 747 0 basechar 0
AnchorPoint: "Anchor-2" 747 0 basechar 0
Fore
SplineSet
1048 780 m 2
 1848 780 l 2
 1889 780 1894 774 1894 731 c 2
 1894 603 l 2
 1894 557 1890 550 1842 550 c 2
 1730 550 l 2
 1689 550 1680 547 1674 513 c 2
 1632 283 l 2
 1622 226 1602 232 1554 205 c 0
 1412 125 1159 -40 768 -40 c 0
 352 -40 70 214 70 620 c 0
 70 1122 454 1540 1030 1540 c 0
 1185 1540 1296 1499 1374 1436 c 0
 1419 1400 1416 1378 1462 1422 c 2
 1520 1477 l 2
 1537 1493 1552 1500 1588 1500 c 2
 1762 1500 l 2
 1807 1500 1813 1495 1805 1455 c 2
 1705 925 l 2
 1696 876 1687 870 1630 870 c 2
 1486 870 l 2
 1432 870 1428 872 1431 919 c 0
 1445 1163 1279 1288 1086 1288 c 0
 784 1288 580 980 580 630 c 0
 580 366 652 244 850 244 c 0
 981 244 1065 271 1154 348 c 0
 1177 368 1188 378 1194 419 c 2
 1207 511 l 2
 1212 542 1211 550 1176 550 c 2
 1040 550 l 2
 1003 550 994 552 994 589 c 2
 994 739 l 2
 994 780 1011 780 1048 780 c 2
EndSplineSet
Substitution2: "'c2sc' Capitals to Small Capitals in Latin lookup 1 subtable" g.sc
EndChar

StartChar: H
Encoding: 72 72 19
GlifName: H_
Width: 1966
Flags: MW
AnchorPoint: "Anchor-0" 1245 1500 basechar 0
AnchorPoint: "Anchor-1" 866 0 basechar 0
AnchorPoint: "Anchor-2" 866 0 basechar 0
Fore
SplineSet
-100 45 m 2
 -100 207 l 2
 -100 265 -94 270 -38 270 c 2
 102 270 l 2
 166 270 162 278 173 329 c 2
 356 1191 l 2
 363 1224 360 1230 318 1230 c 2
 208 1230 l 2
 165 1230 156 1234 156 1279 c 2
 156 1437 l 2
 156 1498 166 1500 225 1500 c 2
 1018 1500 l 2
 1051 1500 1056 1494 1056 1459 c 2
 1056 1275 l 2
 1056 1231 1047 1230 1002 1230 c 2
 888 1230 l 2
 847 1230 842 1221 835 1187 c 2
 784 949 l 2
 777 914 773 900 820 900 c 2
 1248 900 l 2
 1283 900 1284 900 1290 929 c 2
 1346 1191 l 2
 1352 1221 1354 1230 1318 1230 c 2
 1232 1230 l 2
 1187 1230 1186 1239 1186 1285 c 2
 1186 1461 l 2
 1186 1494 1191 1500 1226 1500 c 2
 2014 1500 l 2
 2056 1500 2066 1499 2066 1457 c 2
 2066 1271 l 2
 2066 1236 2062 1230 2028 1230 c 2
 1880 1230 l 2
 1842 1230 1833 1223 1826 1191 c 2
 1641 323 l 2
 1632 279 1631 270 1688 270 c 2
 1776 270 l 2
 1820 270 1830 268 1830 221 c 2
 1830 51 l 2
 1830 5 1823 0 1778 0 c 2
 978 0 l 2
 942 0 940 8 940 45 c 2
 940 229 l 2
 940 266 948 270 982 270 c 2
 1102 270 l 2
 1156 270 1152 278 1161 321 c 2
 1222 609 l 2
 1231 650 1225 652 1174 652 c 2
 756 652 l 2
 722 652 721 651 715 623 c 2
 651 321 l 2
 644 286 638 270 686 270 c 2
 772 270 l 2
 811 270 820 267 820 225 c 2
 820 49 l 2
 820 0 805 0 760 0 c 2
 -46 0 l 2
 -90 0 -100 1 -100 45 c 2
EndSplineSet
Substitution2: "'c2sc' Capitals to Small Capitals in Latin lookup 1 subtable" h.sc
EndChar

StartChar: I
Encoding: 73 73 20
GlifName: I_
Width: 1146
Flags: MW
AnchorPoint: "Anchor-0" 781 1500 basechar 0
AnchorPoint: "Anchor-1" 473 0 basechar 0
AnchorPoint: "Anchor-2" 473 0 basechar 0
AnchorPoint: "Anchor-3" 473 0 basechar 0
Fore
SplineSet
-40 33 m 2
 -40 239 l 2
 -40 269 -31 270 0 270 c 2
 208 270 l 2
 246 270 243 277 250 307 c 2
 445 1189 l 2
 453 1224 450 1230 410 1230 c 2
 248 1230 l 2
 209 1230 206 1237 206 1277 c 2
 206 1464 l 2
 206 1494 212 1500 240 1500 c 2
 1154 1500 l 2
 1185 1500 1186 1491 1186 1459 c 2
 1186 1273 l 2
 1186 1235 1179 1230 1142 1230 c 2
 946 1230 l 2
 913 1230 914 1227 908 1201 c 2
 713 315 l 2
 704 275 707 270 758 270 c 2
 916 270 l 2
 953 270 960 267 960 231 c 2
 960 51 l 2
 960 5 954 0 910 0 c 2
 0 0 l 2
 -31 0 -40 2 -40 33 c 2
EndSplineSet
Substitution2: "'c2sc' Capitals to Small Capitals in Latin lookup 1 subtable" i.sc
EndChar

StartChar: J
Encoding: 74 74 21
GlifName: J_
Width: 1452
Flags: MW
AnchorPoint: "Anchor-0" 1070 1500 basechar 0
AnchorPoint: "Anchor-1" 408 0 basechar 0
AnchorPoint: "Anchor-2" 408 0 basechar 0
Fore
SplineSet
-80 430 m 0
 -80 654 68 800 248 800 c 0
 398 800 506 698 506 562 c 0
 506 364 332 366 332 302 c 0
 332 288 348 220 472 220 c 0
 574 220 649 290 692 480 c 2
 849 1175 l 2
 860 1223 860 1230 802 1230 c 2
 626 1230 l 2
 589 1230 582 1233 582 1269 c 2
 582 1459 l 2
 582 1498 590 1500 630 1500 c 2
 1522 1500 l 2
 1577 1500 1592 1496 1592 1437 c 2
 1592 1289 l 2
 1592 1236 1587 1230 1536 1230 c 2
 1398 1230 l 2
 1333 1230 1336 1224 1324 1173 c 2
 1172 540 l 2
 1082 163 874 -30 472 -30 c 0
 158 -30 -80 170 -80 430 c 0
EndSplineSet
Substitution2: "'c2sc' Capitals to Small Capitals in Latin lookup 1 subtable" j.sc
EndChar

StartChar: K
Encoding: 75 75 22
GlifName: K_
Width: 1860
Flags: MW
AnchorPoint: "Anchor-0" 1230 1500 basechar 0
AnchorPoint: "Anchor-1" 860 0 basechar 0
AnchorPoint: "Anchor-2" 860 0 basechar 0
Fore
SplineSet
-100 48 m 2
 -100 215 l 2
 -100 266 -91 270 -42 270 c 2
 76 270 l 2
 124 270 123 274 131 312 c 2
 320 1174 l 2
 331 1226 326 1230 266 1230 c 2
 182 1230 l 2
 144 1230 130 1231 130 1272 c 2
 130 1462 l 2
 130 1493 134 1500 164 1500 c 2
 878 1500 l 2
 923 1500 942 1496 942 1447 c 2
 942 1270 l 2
 942 1226 931 1224 890 1224 c 2
 826 1224 l 2
 772 1224 780 1205 771 1164 c 2
 699 836 l 2
 692 803 699 793 736 825 c 2
 1144 1173 l 2
 1175 1199 1225 1224 1140 1224 c 2
 1094 1224 l 2
 1061 1224 1056 1231 1056 1262 c 2
 1056 1450 l 2
 1056 1499 1081 1500 1126 1500 c 2
 1812 1500 l 2
 1860 1500 1860 1500 1860 1452 c 2
 1860 1272 l 2
 1860 1231 1856 1224 1816 1224 c 2
 1670 1224 l 2
 1618 1224 1607 1218 1580 1196 c 2
 1148 845 l 2
 1091 799 1128 798 1188 775 c 0
 1564 630 1344 270 1606 270 c 2
 1696 270 l 2
 1737 270 1744 265 1744 222 c 2
 1744 52 l 2
 1744 2 1733 0 1686 0 c 2
 1274 0 l 2
 886 0 978 329 891 576 c 0
 872 631 864 615 826 584 c 2
 644 437 l 2
 625 422 605 413 599 384 c 2
 584 318 l 2
 575 276 576 270 630 270 c 2
 734 270 l 2
 762 270 772 266 772 236 c 2
 772 46 l 2
 772 0 757 0 714 0 c 2
 -62 0 l 2
 -100 0 -100 10 -100 48 c 2
EndSplineSet
Substitution2: "'c2sc' Capitals to Small Capitals in Latin lookup 1 subtable" k.sc
EndChar

StartChar: L
Encoding: 76 76 23
GlifName: L_
Width: 1602
Flags: MW
AnchorPoint: "Anchor-0" 678 1500 basechar 0
AnchorPoint: "Anchor-1" 1114 943 basechar 0
AnchorPoint: "Anchor-2" 646 0 basechar 0
Fore
SplineSet
-100 55 m 2
 -100 225 l 2
 -100 260 -99 270 -64 270 c 2
 106 270 l 2
 165 270 164 273 174 321 c 2
 357 1177 l 2
 368 1229 361 1230 298 1230 c 2
 202 1230 l 2
 158 1230 148 1231 148 1275 c 2
 148 1465 l 2
 148 1499 157 1500 192 1500 c 2
 1054 1500 l 2
 1094 1500 1100 1495 1100 1453 c 2
 1100 1278 l 2
 1100 1238 1097 1230 1058 1230 c 2
 910 1230 l 2
 848 1230 848 1228 837 1177 c 2
 656 327 l 2
 645 278 645 270 708 270 c 2
 812 270 l 2
 1075 270 1174 360 1252 645 c 0
 1262 683 1266 690 1314 690 c 2
 1446 690 l 2
 1492 690 1500 681 1492 643 c 2
 1359 31 l 2
 1353 2 1342 0 1306 0 c 2
 -40 0 l 2
 -90 0 -100 3 -100 55 c 2
EndSplineSet
Substitution2: "'c2sc' Capitals to Small Capitals in Latin lookup 1 subtable" l.sc
EndChar

StartChar: M
Encoding: 77 77 24
GlifName: M_
Width: 2306
Flags: MW
AnchorPoint: "Anchor-0" 1470 1500 basechar 0
AnchorPoint: "Anchor-1" 995 0 basechar 0
AnchorPoint: "Anchor-2" 995 0 basechar 0
Fore
SplineSet
1503 851 m 2
 1041 25 l 2
 1022 -9 1023 -20 966 -20 c 2
 804 -20 l 2
 739 -20 738 -19 729 37 c 2
 607 821 l 2
 591 927 598 1004 578 1004 c 0
 558 1004 552 934 526 829 c 2
 400 317 l 2
 389 272 395 270 452 270 c 2
 558 270 l 2
 598 270 600 262 600 221 c 2
 600 49 l 2
 600 5 594 0 548 0 c 2
 -54 0 l 2
 -110 0 -120 1 -120 57 c 2
 -120 232 l 2
 -120 263 -114 270 -84 270 c 2
 54 270 l 2
 121 270 117 279 130 331 c 2
 342 1167 l 2
 356 1221 358 1230 286 1230 c 2
 214 1230 l 2
 160 1230 154 1235 154 1287 c 2
 154 1455 l 2
 154 1500 170 1500 212 1500 c 2
 928 1500 l 2
 997 1500 1003 1494 1013 1433 c 2
 1111 843 l 2
 1127 745 1128 688 1142 688 c 0
 1159 688 1192 764 1235 839 c 2
 1586 1445 l 2
 1611 1489 1622 1500 1694 1500 c 2
 2300 1500 l 2
 2339 1500 2346 1497 2346 1459 c 2
 2346 1299 l 2
 2346 1238 2343 1230 2282 1230 c 2
 2128 1230 l 2
 2084 1230 2083 1229 2077 1191 c 2
 1937 331 l 2
 1928 277 1932 270 1994 270 c 2
 2112 270 l 2
 2155 270 2162 267 2162 225 c 2
 2162 57 l 2
 2162 3 2152 0 2100 0 c 2
 1350 0 l 2
 1293 0 1282 2 1282 61 c 2
 1282 209 l 2
 1282 265 1288 270 1342 270 c 2
 1398 270 l 2
 1476 270 1472 278 1483 343 c 2
 1566 841 l 2
 1582 934 1634 1000 1601 1000 c 0
 1581 1000 1547 930 1503 851 c 2
EndSplineSet
Substitution2: "'c2sc' Capitals to Small Capitals in Latin lookup 1 subtable" m.sc
EndChar

StartChar: N
Encoding: 78 78 25
GlifName: N_
Width: 1916
Flags: MW
AnchorPoint: "Anchor-0" 1040 1500 basechar 0
AnchorPoint: "Anchor-1" 766 0 basechar 0
AnchorPoint: "Anchor-2" 766 0 basechar 0
Fore
SplineSet
271 1230 m 2
 168 1230 l 2
 127 1230 120 1234 120 1274 c 2
 120 1460 l 2
 120 1498 128 1500 167 1500 c 2
 814 1500 l 2
 873 1500 889 1496 911 1461 c 2
 1283 885 l 2
 1312 841 1318 793 1340 793 c 0
 1360 793 1358 824 1370 880 c 2
 1435 1189 l 2
 1442 1225 1439 1230 1394 1230 c 2
 1319 1230 l 2
 1282 1230 1276 1236 1276 1272 c 2
 1276 1460 l 2
 1276 1494 1281 1500 1317 1500 c 2
 1922 1500 l 2
 1950 1500 1956 1494 1956 1467 c 2
 1956 1271 l 2
 1956 1236 1951 1230 1917 1230 c 2
 1746 1230 l 2
 1704 1230 1703 1229 1696 1195 c 2
 1448 20 l 2
 1442 -11 1437 -20 1400 -20 c 2
 1232 -20 l 2
 1186 -20 1175 -12 1158 15 c 2
 607 887 l 2
 576 936 570 983 547 983 c 0
 527 983 528 948 515 888 c 2
 390 307 l 2
 384 279 384 270 417 270 c 2
 535 270 l 2
 560 270 570 270 570 245 c 2
 570 35 l 2
 570 5 564 0 536 0 c 2
 -72 0 l 2
 -96 0 -100 7 -100 32 c 2
 -100 225 l 2
 -100 261 -99 270 -63 270 c 2
 86 270 l 2
 127 270 128 271 135 304 c 2
 321 1177 l 2
 331 1225 327 1230 271 1230 c 2
EndSplineSet
Substitution2: "'c2sc' Capitals to Small Capitals in Latin lookup 1 subtable" n.sc
EndChar

StartChar: O
Encoding: 79 79 26
GlifName: O_
Width: 1900
Flags: MW
AnchorPoint: "Anchor-0" 1140 1500 basechar 0
AnchorPoint: "Anchor-1" 766 0 basechar 0
AnchorPoint: "Anchor-2" 766 0 basechar 0
Fore
SplineSet
1090 1540 m 1
 1516 1540 1830 1346 1830 900 c 0
 1830 354 1396 -40 810 -40 c 1
 830 220 l 1
 1138 220 1320 606 1320 930 c 0
 1320 1154 1258 1280 1070 1280 c 1
 1090 1540 l 1
810 -40 m 1
 384 -40 70 154 70 600 c 0
 70 1146 504 1540 1090 1540 c 1
 1070 1280 l 1
 782 1280 580 894 580 570 c 0
 580 346 642 220 830 220 c 1
 810 -40 l 1
EndSplineSet
Substitution2: "'c2sc' Capitals to Small Capitals in Latin lookup 1 subtable" o.sc
EndChar

StartChar: P
Encoding: 80 80 27
GlifName: P_
Width: 1594
Flags: MW
AnchorPoint: "Anchor-0" 980 1500 basechar 0
AnchorPoint: "Anchor-1" 322 0 basechar 0
AnchorPoint: "Anchor-2" 322 0 basechar 0
Fore
SplineSet
760 820 m 2
 814 820 l 2
 1006 820 1114 962 1114 1100 c 0
 1114 1178 1056 1230 964 1230 c 2
 854 1230 l 2
 803 1230 806 1225 797 1184 c 2
 727 856 l 2
 721 827 722 820 760 820 c 2
650 498 m 2
 610 308 l 2
 603 275 606 270 648 270 c 2
 790 270 l 2
 858 270 860 262 860 194 c 2
 860 60 l 2
 860 1 851 0 792 0 c 2
 -32 0 l 2
 -75 0 -100 2 -100 49 c 2
 -100 230 l 2
 -100 263 -96 270 -64 270 c 2
 86 270 l 2
 125 270 122 275 129 306 c 2
 315 1174 l 2
 327 1228 312 1230 252 1230 c 2
 162 1230 l 2
 124 1230 120 1237 120 1276 c 2
 120 1462 l 2
 120 1493 125 1500 158 1500 c 2
 1034 1500 l 2
 1416 1500 1614 1360 1614 1100 c 0
 1614 680 1196 550 834 550 c 2
 704 550 l 2
 653 550 659 538 650 498 c 2
EndSplineSet
Substitution2: "'c2sc' Capitals to Small Capitals in Latin lookup 1 subtable" p.sc
EndChar

StartChar: Q
Encoding: 81 81 28
GlifName: Q_
Width: 1930
Flags: MW
AnchorPoint: "Anchor-0" 1140 1500 basechar 0
Fore
SplineSet
610 570 m 0
 610 346 672 220 860 220 c 0
 1168 220 1350 606 1350 930 c 0
 1350 1154 1288 1280 1100 1280 c 0
 812 1280 610 894 610 570 c 0
70 -308 m 0
 70 -78 410 -54 568 -54 c 0
 1027 -54 1013 -338 1088 -338 c 0
 1112 -338 1118 -332 1118 -320 c 0
 1118 -290 1076 -312 1076 -220 c 0
 1076 -106 1202 -54 1316 -54 c 0
 1430 -54 1538 -128 1538 -236 c 0
 1538 -486 1208 -500 1050 -500 c 0
 571 -500 641 -216 526 -216 c 0
 504 -216 496 -218 496 -230 c 0
 496 -254 542 -242 542 -334 c 0
 542 -448 432 -500 298 -500 c 0
 164 -500 70 -424 70 -308 c 0
100 600 m 0
 100 1146 534 1540 1120 1540 c 0
 1546 1540 1860 1346 1860 900 c 0
 1860 354 1426 -40 840 -40 c 0
 414 -40 100 154 100 600 c 0
EndSplineSet
Substitution2: "'c2sc' Capitals to Small Capitals in Latin lookup 1 subtable" q.sc
EndChar

StartChar: R
Encoding: 82 82 29
GlifName: R_
Width: 1834
Flags: MW
AnchorPoint: "Anchor-0" 1060 1500 basechar 0
AnchorPoint: "Anchor-1" 776 0 basechar 0
AnchorPoint: "Anchor-2" 776 0 basechar 0
Fore
SplineSet
1780 155 m 0
 1664 16 1476 -30 1338 -30 c 0
 1150 -30 1018 44 1018 194 c 0
 1018 294 1044 366 1044 446 c 0
 1044 496 1004 610 838 610 c 2
 764 610 l 2
 720 610 712 602 704 565 c 2
 653 323 l 2
 645 284 640 270 692 270 c 2
 790 270 l 2
 830 270 840 269 840 229 c 2
 840 55 l 2
 840 5 834 0 786 0 c 2
 -15 0 l 2
 -54 0 -60 7 -60 45 c 2
 -60 225 l 2
 -60 264 -55 270 -14 270 c 2
 120 270 l 2
 170 270 164 282 172 321 c 2
 355 1177 l 2
 365 1224 363 1230 308 1230 c 2
 212 1230 l 2
 167 1230 160 1233 160 1277 c 2
 160 1461 l 2
 160 1499 169 1500 208 1500 c 2
 1118 1500 l 2
 1480 1500 1718 1420 1718 1160 c 0
 1718 971 1575 859 1374 794 c 0
 1313 775 1281 773 1281 757 c 0
 1281 742 1311 739 1374 717 c 0
 1471 683 1530 625 1530 492 c 0
 1530 400 1486 366 1486 322 c 0
 1486 300 1504 284 1526 284 c 0
 1553 284 1582 291 1630 341 c 0
 1656 368 1655 371 1683 341 c 2
 1787 231 l 2
 1818 198 1809 190 1780 155 c 0
834 890 m 2
 978 890 l 2
 1130 890 1238 992 1238 1112 c 0
 1238 1182 1170 1230 1078 1230 c 2
 906 1230 l 2
 855 1230 845 1224 836 1181 c 2
 785 943 l 2
 775 897 776 890 834 890 c 2
EndSplineSet
Substitution2: "'c2sc' Capitals to Small Capitals in Latin lookup 1 subtable" r.sc
Substitution2: "'ss01' Style Set 1 lookup 3 subtable" R.alt
EndChar

StartChar: S
Encoding: 83 83 30
GlifName: S_
Width: 1498
Flags: MW
AnchorPoint: "Anchor-0" 1030 1500 basechar 0
AnchorPoint: "Anchor-1" 645 0 basechar 0
AnchorPoint: "Anchor-2" 645 0 basechar 0
Fore
SplineSet
644 1140 m 0
 644 898 1404 1050 1404 490 c 0
 1404 190 1146 -50 744 -50 c 0
 545 -50 416 2 336 75 c 0
 303 105 306 112 270 82 c 2
 188 13 l 2
 169 -3 152 -10 114 -10 c 2
 -8 -10 l 2
 -54 -10 -82 -20 -72 22 c 2
 58 560 l 2
 67 598 72 610 122 610 c 2
 236 610 l 2
 307 610 295 586 295 528 c 0
 297 257 492 178 664 178 c 0
 854 178 924 262 924 380 c 0
 924 662 170 476 170 1016 c 0
 170 1316 436 1550 784 1550 c 0
 958 1550 1092 1494 1182 1410 c 0
 1203 1390 1204 1378 1228 1398 c 2
 1328 1483 l 2
 1346 1498 1368 1500 1404 1500 c 2
 1518 1500 l 2
 1574 1500 1577 1494 1567 1446 c 2
 1465 960 l 2
 1453 903 1439 910 1372 910 c 2
 1268 910 l 2
 1222 910 1215 914 1217 955 c 0
 1225 1167 1071 1318 856 1318 c 0
 718 1318 644 1224 644 1140 c 0
EndSplineSet
Substitution2: "'c2sc' Capitals to Small Capitals in Latin lookup 1 subtable" s.sc
EndChar

StartChar: T
Encoding: 84 84 31
GlifName: T_
Width: 1628
Flags: MW
AnchorPoint: "Anchor-0" 1039 1500 basechar 0
AnchorPoint: "Anchor-1" 666 0 basechar 0
AnchorPoint: "Anchor-2" 666 0 basechar 0
Fore
SplineSet
212 58 m 2
 212 222 l 2
 212 269 221 270 269 270 c 2
 427 270 l 2
 489 270 484 280 495 330 c 2
 687 1229 l 2
 689 1238 676 1240 664 1240 c 2
 662 1240 l 2
 479 1240 409 1163 340 945 c 0
 324 893 318 880 256 880 c 2
 158 880 l 2
 82 880 81 886 95 945 c 2
 211 1446 l 2
 222 1493 230 1500 290 1500 c 2
 1660 1500 l 2
 1736 1500 1747 1495 1729 1419 c 2
 1612 930 l 2
 1603 893 1599 880 1551 880 c 2
 1421 880 l 2
 1344 880 1355 899 1366 954 c 0
 1407 1170 1359 1240 1184 1240 c 2
 1152 1240 l 2
 1124 1240 1123 1223 1118 1201 c 2
 939 348 l 2
 927 292 914 270 989 270 c 2
 1117 270 l 2
 1167 270 1172 264 1172 212 c 2
 1172 73 l 2
 1172 5 1166 0 1099 0 c 2
 271 0 l 2
 219 0 212 4 212 58 c 2
EndSplineSet
Substitution2: "'c2sc' Capitals to Small Capitals in Latin lookup 1 subtable" t.sc
EndChar

StartChar: U
Encoding: 85 85 32
GlifName: U_
Width: 1830
Flags: MW
AnchorPoint: "Anchor-0" 1170 1500 basechar 0
AnchorPoint: "Anchor-1" 866 0 basechar 0
AnchorPoint: "Anchor-2" 866 0 basechar 0
AnchorPoint: "Anchor-3" 1228 90 basechar 0
Fore
SplineSet
836 1174 m 2
 698 620 l 2
 676 534 670 462 670 410 c 0
 670 320 718 236 868 236 c 0
 1036 236 1223 294 1298 600 c 2
 1439 1176 l 2
 1450 1220 1453 1230 1398 1230 c 2
 1290 1230 l 2
 1240 1230 1240 1240 1240 1290 c 2
 1240 1448 l 2
 1240 1489 1241 1500 1282 1500 c 2
 1910 1500 l 2
 1950 1500 1950 1490 1950 1450 c 2
 1950 1270 l 2
 1950 1237 1936 1230 1904 1230 c 2
 1782 1230 l 2
 1739 1230 1731 1225 1723 1192 c 2
 1578 600 l 2
 1469 156 1254 -50 798 -50 c 0
 364 -50 186 134 186 364 c 0
 186 438 198 517 218 600 c 2
 361 1184 l 2
 371 1223 368 1230 316 1230 c 2
 206 1230 l 2
 167 1230 160 1237 160 1278 c 2
 160 1457 l 2
 160 1494 171 1500 206 1500 c 2
 1030 1500 l 2
 1085 1500 1100 1496 1100 1437 c 2
 1100 1280 l 2
 1100 1236 1092 1230 1050 1230 c 2
 916 1230 l 2
 850 1230 849 1227 836 1174 c 2
EndSplineSet
Substitution2: "'c2sc' Capitals to Small Capitals in Latin lookup 1 subtable" u.sc
EndChar

StartChar: V
Encoding: 86 86 33
GlifName: V_
Width: 1850
Flags: MW
AnchorPoint: "Anchor-0" 1330 1500 basechar 0
AnchorPoint: "Anchor-1" 832 0 basechar 0
AnchorPoint: "Anchor-2" 832 0 basechar 0
Fore
SplineSet
581 16 m 2
 345 1180 l 2
 337 1219 333 1230 284 1230 c 2
 170 1230 l 2
 121 1230 120 1239 120 1288 c 2
 120 1449 l 2
 120 1497 135 1500 180 1500 c 2
 1062 1500 l 2
 1099 1500 1110 1496 1110 1456 c 2
 1110 1272 l 2
 1110 1238 1104 1230 1068 1230 c 2
 898 1230 l 2
 852 1230 852 1222 859 1182 c 2
 957 586 l 2
 971 499 961 436 984 436 c 0
 1009 436 1026 489 1067 552 c 2
 1475 1184 l 2
 1503 1227 1504 1230 1430 1230 c 2
 1390 1230 l 2
 1345 1230 1340 1240 1340 1282 c 2
 1340 1440 l 2
 1340 1489 1341 1500 1390 1500 c 2
 1980 1500 l 2
 2013 1500 2020 1494 2020 1459 c 2
 2020 1281 l 2
 2020 1236 2014 1230 1970 1230 c 2
 1880 1230 l 2
 1833 1230 1828 1227 1810 1200 c 2
 1017 10 l 2
 996 -21 984 -30 930 -30 c 2
 644 -30 l 2
 595 -30 589 -23 581 16 c 2
EndSplineSet
Substitution2: "'c2sc' Capitals to Small Capitals in Latin lookup 1 subtable" v.sc
EndChar

StartChar: W
Encoding: 87 87 34
GlifName: W_
Width: 2618
Flags: MW
AnchorPoint: "Anchor-0" 1630 1500 basechar 0
AnchorPoint: "Anchor-1" 1216 0 basechar 0
AnchorPoint: "Anchor-2" 1216 0 basechar 0
Fore
SplineSet
987 638 m 2
 1322 1100 l 2
 1338 1121 1361 1139 1357 1172 c 2
 1354 1200 l 2
 1351 1228 1352 1230 1320 1230 c 2
 1206 1230 l 2
 1169 1230 1162 1236 1162 1274 c 2
 1162 1426 l 2
 1162 1495 1168 1500 1236 1500 c 2
 1904 1500 l 2
 1946 1500 1962 1498 1962 1452 c 2
 1962 1282 l 2
 1962 1230 1952 1230 1900 1230 c 2
 1848 1230 l 2
 1799 1230 1801 1215 1806 1174 c 2
 1856 754 l 2
 1865 679 1847 591 1870 591 c 0
 1885 591 1900 627 1917 654 c 2
 2243 1172 l 2
 2275 1222 2294 1230 2206 1230 c 2
 2151 1230 l 2
 2104 1230 2100 1239 2100 1284 c 2
 2100 1458 l 2
 2100 1499 2109 1500 2150 1500 c 2
 2724 1500 l 2
 2781 1500 2788 1494 2788 1435 c 2
 2788 1278 l 2
 2788 1235 2782 1230 2738 1230 c 2
 2618 1230 l 2
 2571 1230 2571 1213 2554 1186 c 2
 1825 42 l 2
 1799 1 1790 -20 1718 -20 c 2
 1574 -20 l 2
 1507 -20 1492 -15 1485 48 c 2
 1424 582 l 2
 1412 688 1428 770 1404 770 c 0
 1391 770 1360 727 1319 672 c 2
 846 36 l 2
 814 -6 801 -20 722 -20 c 2
 576 -20 l 2
 506 -20 509 -14 501 46 c 2
 350 1140 l 2
 341 1206 353 1230 274 1230 c 2
 184 1230 l 2
 131 1230 120 1232 120 1288 c 2
 120 1436 l 2
 120 1491 121 1500 176 1500 c 2
 914 1500 l 2
 972 1500 1000 1496 1000 1432 c 2
 1000 1300 l 2
 1000 1250 998 1230 944 1230 c 2
 854 1230 l 2
 810 1230 807 1213 812 1176 c 2
 878 644 l 2
 889 559 878 529 894 529 c 0
 913 529 952 589 987 638 c 2
EndSplineSet
Substitution2: "'c2sc' Capitals to Small Capitals in Latin lookup 1 subtable" w.sc
EndChar

StartChar: X
Encoding: 88 88 35
GlifName: X_
Width: 1700
Flags: MW
AnchorPoint: "Anchor-0" 1230 1500 basechar 0
AnchorPoint: "Anchor-1" 706 0 basechar 0
AnchorPoint: "Anchor-2" 706 0 basechar 0
Fore
SplineSet
221 1230 m 2
 135 1230 l 2
 73 1230 70 1239 70 1299 c 2
 70 1454 l 2
 70 1497 94 1500 133 1500 c 2
 955 1500 l 2
 1005 1500 1010 1494 1010 1443 c 2
 1010 1291 l 2
 1010 1241 1008 1230 955 1230 c 2
 877 1230 l 2
 815 1230 806 1227 841 1183 c 2
 947 1047 l 2
 973 1014 976 987 993 987 c 0
 1012 987 1041 1015 1081 1048 c 2
 1251 1189 l 2
 1278 1211 1316 1230 1243 1230 c 2
 1199 1230 l 2
 1150 1230 1150 1230 1150 1279 c 2
 1150 1435 l 2
 1150 1493 1154 1500 1211 1500 c 2
 1797 1500 l 2
 1852 1500 1870 1498 1870 1439 c 2
 1870 1299 l 2
 1870 1239 1867 1230 1805 1230 c 2
 1741 1230 l 2
 1678 1230 1661 1224 1629 1197 c 2
 1245 880 l 2
 1192 836 1156 805 1156 780 c 0
 1156 758 1186 742 1224 693 c 2
 1523 311 l 2
 1546 281 1559 270 1615 270 c 2
 1737 270 l 2
 1778 270 1778 260 1778 219 c 2
 1778 51 l 2
 1778 2 1768 0 1719 0 c 2
 851 0 l 2
 812 0 798 3 798 45 c 2
 798 223 l 2
 798 270 808 270 855 270 c 2
 973 270 l 2
 1021 270 1005 296 979 329 c 2
 849 497 l 2
 818 537 809 568 792 568 c 0
 773 568 746 547 705 512 c 2
 505 342 l 2
 478 319 432 270 477 270 c 2
 511 270 l 2
 549 270 560 268 560 227 c 2
 560 75 l 2
 560 9 545 0 483 0 c 2
 -105 0 l 2
 -155 0 -180 2 -180 57 c 2
 -180 195 l 2
 -180 255 -178 270 -114 270 c 2
 -13 270 l 2
 44 270 54 279 83 304 c 2
 541 697 l 2
 587 737 618 761 618 786 c 0
 618 818 577 848 530 909 c 2
 321 1179 l 2
 293 1216 290 1230 221 1230 c 2
EndSplineSet
Substitution2: "'c2sc' Capitals to Small Capitals in Latin lookup 1 subtable" x.sc
EndChar

StartChar: Y
Encoding: 89 89 36
GlifName: Y_
Width: 1670
Flags: MW
AnchorPoint: "Anchor-0" 1020 1500 basechar 0
AnchorPoint: "Anchor-1" 761 0 basechar 0
AnchorPoint: "Anchor-2" 761 0 basechar 0
Fore
SplineSet
308 40 m 2
 308 220 l 2
 308 270 318 270 368 270 c 2
 512 270 l 2
 560 270 554 283 563 320 c 2
 605 504 l 2
 621 574 615 597 588 654 c 2
 344 1172 l 2
 322 1220 323 1230 250 1230 c 2
 172 1230 l 2
 124 1230 120 1238 120 1284 c 2
 120 1446 l 2
 120 1490 122 1500 166 1500 c 2
 900 1500 l 2
 955 1500 960 1495 960 1438 c 2
 960 1300 l 2
 960 1234 952 1230 888 1230 c 2
 846 1230 l 2
 789 1230 788 1217 804 1182 c 2
 919 930 l 2
 947 868 934 837 966 837 c 0
 990 837 1004 867 1030 896 c 2
 1290 1184 l 2
 1320 1217 1341 1230 1264 1230 c 2
 1198 1230 l 2
 1158 1230 1150 1235 1150 1274 c 2
 1150 1443 l 2
 1150 1495 1158 1500 1208 1500 c 2
 1772 1500 l 2
 1820 1500 1830 1498 1830 1450 c 2
 1830 1268 l 2
 1830 1234 1821 1230 1786 1230 c 2
 1716 1230 l 2
 1677 1230 1662 1225 1644 1206 c 2
 1159 678 l 2
 1130 646 1114 629 1102 576 c 2
 1045 328 l 2
 1033 274 1039 270 1102 270 c 2
 1200 270 l 2
 1268 270 1278 268 1278 198 c 2
 1278 69 l 2
 1278 3 1260 0 1198 0 c 2
 357 0 l 2
 318 0 308 1 308 40 c 2
EndSplineSet
Substitution2: "'c2sc' Capitals to Small Capitals in Latin lookup 1 subtable" y.sc
EndChar

StartChar: Z
Encoding: 90 90 37
GlifName: Z_
Width: 1570
Flags: MW
AnchorPoint: "Anchor-0" 860 1500 basechar 0
AnchorPoint: "Anchor-1" 686 0 basechar 0
AnchorPoint: "Anchor-2" 686 0 basechar 0
Fore
SplineSet
-110 82 m 2
 -110 306 l 2
 -110 378 -95 381 -56 411 c 2
 812 1066 l 2
 851 1095 1022 1180 1022 1216 c 0
 1022 1236 969 1230 942 1230 c 2
 730 1230 l 2
 479 1230 386 1158 318 936 c 0
 305 892 303 870 240 870 c 2
 120 870 l 2
 56 870 63 891 71 940 c 2
 152 1450 l 2
 159 1495 166 1500 220 1500 c 2
 1492 1500 l 2
 1550 1500 1550 1490 1550 1432 c 2
 1550 1190 l 2
 1550 1124 1538 1121 1502 1094 c 2
 624 431 l 2
 571 391 421 328 421 293 c 0
 421 260 471 270 540 270 c 2
 830 270 l 2
 1089 270 1180 347 1257 620 c 0
 1269 663 1276 670 1334 670 c 2
 1450 670 l 2
 1511 670 1507 655 1500 606 c 2
 1419 62 l 2
 1410 4 1402 0 1334 0 c 2
 -36 0 l 2
 -109 0 -110 9 -110 82 c 2
EndSplineSet
Substitution2: "'c2sc' Capitals to Small Capitals in Latin lookup 1 subtable" z.sc
EndChar

StartChar: a
Encoding: 97 97 38
GlifName: a
Width: 1444
VWidth: 2310
Flags: MW
AnchorPoint: "Anchor-0" 861 1040 basechar 0
AnchorPoint: "Anchor-1" 495 0 basechar 0
AnchorPoint: "Anchor-2" 495 0 basechar 0
AnchorPoint: "Anchor-3" 1137 10 basechar 0
Fore
SplineSet
749 640 m 0
 749 750 732 850 681 850 c 0
 567 850 443 608 443 360 c 0
 443 232 466 188 520 188 c 0
 594 188 749 372 749 640 c 0
1374 273 m 0
 1268 71 1100 -50 900 -50 c 0
 807 -50 738 -7 694 49 c 0
 683 63 675 72 668 79 c 0
 648 98 638 90 604 61 c 0
 535 1 448 -40 342 -40 c 0
 161 -40 -22 40 -22 340 c 0
 -22 780 281 1078 536 1078 c 0
 663 1078 738 1031 786 937 c 0
 801 908 814 895 826 954 c 2
 837 1008 l 2
 842 1032 849 1040 886 1040 c 2
 1192 1040 l 2
 1240 1040 1240 1031 1230 994 c 2
 1050 302 l 2
 1047 290 1044 272 1044 262 c 0
 1044 240 1051 234 1069 234 c 0
 1105 234 1147 277 1197 372 c 0
 1221 418 1231 417 1270 399 c 2
 1352 361 l 2
 1400 338 1403 328 1374 273 c 0
EndSplineSet
Substitution2: "'smcp' Lowercase to Small Capitals in Latin lookup 0 subtable" a.sc
EndChar

StartChar: b
Encoding: 98 98 39
GlifName: b
Width: 1275
VWidth: 2310
Flags: MW
AnchorPoint: "Anchor-0" 1041 1040 basechar 0
AnchorPoint: "Anchor-1" 495 0 basechar 0
AnchorPoint: "Anchor-2" 495 0 basechar 0
Fore
SplineSet
396 254 m 0
 410 211 437 190 473 190 c 0
 570 190 716 392 716 700 c 0
 716 788 697 846 654 846 c 0
 584 846 491 760 446 555 c 2
 395 323 l 2
 389 297 388 278 396 254 c 0
1 302 m 2
 227 1291 l 2
 237 1335 234 1350 175 1350 c 2
 82 1350 l 2
 52 1350 49 1358 49 1389 c 2
 49 1519 l 2
 49 1553 53 1560 86 1560 c 2
 617 1560 l 2
 661 1560 663 1555 653 1513 c 2
 545 1009 l 2
 535 964 536 939 577 974 c 0
 646 1033 748 1078 849 1078 c 0
 1037 1078 1183 990 1183 710 c 0
 1183 330 877 -50 451 -50 c 0
 222 -50 89 53 20 172 c 0
 -8 220 -13 241 1 302 c 2
EndSplineSet
Substitution2: "'smcp' Lowercase to Small Capitals in Latin lookup 0 subtable" b.sc
EndChar

StartChar: c
Encoding: 99 99 40
GlifName: c
Width: 1211
VWidth: 2310
Flags: MW
AnchorPoint: "Anchor-0" 750 1040 basechar 0
AnchorPoint: "Anchor-1" 489 0 basechar 0
AnchorPoint: "Anchor-2" 489 0 basechar 0
Fore
SplineSet
1165 734 m 0
 1165 558 1045 480 917 480 c 0
 805 480 725 552 727 686 c 0
 728 782 805 810 805 844 c 0
 805 868 789 886 746 886 c 0
 618 886 417 688 417 380 c 0
 417 232 466 188 536 188 c 0
 605 188 698 218 766 309 c 0
 782 331 791 346 832 346 c 2
 998 346 l 2
 1040 346 1058 334 1036 302 c 0
 916 130 760 -40 475 -40 c 0
 233 -40 -21 98 -21 400 c 0
 -21 800 307 1080 678 1080 c 0
 941 1080 1165 938 1165 734 c 0
EndSplineSet
Substitution2: "'smcp' Lowercase to Small Capitals in Latin lookup 0 subtable" c.sc
EndChar

StartChar: d
Encoding: 100 100 41
GlifName: d
Width: 1486
VWidth: 2310
Flags: MW
AnchorPoint: "Anchor-0" 590 1040 basechar 0
AnchorPoint: "Anchor-1" 1578 1040 basechar 0
AnchorPoint: "Anchor-2" 552 0 basechar 0
Fore
SplineSet
742 640 m 0
 742 750 725 850 674 850 c 0
 560 850 436 608 436 360 c 0
 436 232 459 188 513 188 c 0
 587 188 742 372 742 640 c 0
1398 292 m 0
 1293 78 1118 -50 901 -50 c 0
 787 -50 720 9 678 80 c 0
 671 93 663 100 656 104 c 0
 642 112 628 102 612 85 c 0
 540 9 455 -40 330 -40 c 0
 142 -40 -22 40 -22 340 c 0
 -22 780 284 1078 529 1078 c 0
 645 1078 727 1040 767 961 c 0
 794 909 812 900 825 952 c 2
 912 1313 l 2
 920 1346 915 1350 874 1350 c 2
 757 1350 l 2
 718 1350 705 1353 706 1399 c 2
 707 1517 l 2
 707 1552 711 1560 742 1560 c 2
 1304 1560 l 2
 1376 1560 1383 1552 1368 1494 c 2
 1059 302 l 2
 1056 290 1053 272 1053 262 c 0
 1053 240 1060 234 1079 234 c 0
 1119 234 1168 283 1222 393 c 0
 1236 421 1245 420 1274 406 c 2
 1375 355 l 2
 1413 337 1416 329 1398 292 c 0
EndSplineSet
Substitution2: "'smcp' Lowercase to Small Capitals in Latin lookup 0 subtable" d.sc
EndChar

StartChar: e
Encoding: 101 101 42
GlifName: e
Width: 1247
VWidth: 2310
Flags: MW
AnchorPoint: "Anchor-0" 724 1040 basechar 0
AnchorPoint: "Anchor-1" 497 0 basechar 0
AnchorPoint: "Anchor-2" 497 0 basechar 0
AnchorPoint: "Anchor-3" 823 102 basechar 0
Fore
SplineSet
-21 410 m 0
 -21 770 280 1080 708 1080 c 0
 974 1080 1164 950 1164 756 c 0
 1164 466 729 423 442 395 c 0
 421 393 417 386 417 365 c 0
 415 217 475 188 581 188 c 0
 650 188 745 219 815 311 c 0
 832 333 841 346 883 346 c 2
 1037 346 l 2
 1096 346 1107 330 1078 290 c 0
 958 122 772 -40 493 -40 c 0
 252 -40 -21 108 -21 410 c 0
465 569 m 0
 640 593 770 664 772 808 c 0
 772 846 758 884 688 884 c 0
 592 884 502 804 446 602 c 0
 438 571 440 566 465 569 c 0
EndSplineSet
Substitution2: "'smcp' Lowercase to Small Capitals in Latin lookup 0 subtable" e.sc
EndChar

StartChar: f
Encoding: 102 102 43
GlifName: f
Width: 916
VWidth: 2310
Flags: MW
AnchorPoint: "Anchor-0" 951 1692 basechar 0
AnchorPoint: "Anchor-1" 251 0 basechar 0
AnchorPoint: "Anchor-2" 251 0 basechar 0
Fore
SplineSet
-24 -233 m 2
 180 777 l 2
 189 822 188 830 131 830 c 2
 48 830 l 2
 16 830 14 838 14 871 c 2
 14 988 l 2
 14 1031 15 1040 58 1040 c 2
 180 1040 l 2
 226 1040 233 1047 239 1078 c 2
 252 1144 l 2
 322 1508 542 1600 813 1600 c 0
 1055 1600 1199 1482 1199 1308 c 0
 1199 1162 1091 1074 963 1074 c 0
 856 1074 755 1136 755 1260 c 0
 755 1352 807 1376 807 1400 c 0
 807 1412 791 1420 769 1420 c 0
 697 1420 672 1356 623 1100 c 2
 620 1084 l 2
 613 1051 613 1040 653 1040 c 2
 804 1040 l 2
 843 1040 848 1032 847 988 c 2
 846 868 l 2
 846 832 838 830 805 830 c 2
 620 830 l 2
 574 830 569 820 561 779 c 2
 386 -242 l 2
 376 -294 369 -300 308 -300 c 2
 37 -300 l 2
 -31 -300 -35 -285 -24 -233 c 2
EndSplineSet
Substitution2: "'smcp' Lowercase to Small Capitals in Latin lookup 0 subtable" f.sc
EndChar

StartChar: g
Encoding: 103 103 44
GlifName: g
Width: 1135
VWidth: 2310
Flags: MW
AnchorPoint: "Anchor-0" 681 1040 basechar 0
AnchorPoint: "Anchor-1" 105 -565 basechar 0
AnchorPoint: "Anchor-2" 105 -565 basechar 0
Fore
SplineSet
-265 -310 m 0
 -265 -188 -156 -106 -18 -56 c 0
 42 -34 23 -40 -11 -2 c 0
 -42 32 -61 74 -61 122 c 0
 -61 247 30 331 138 383 c 0
 197 413 194 402 151 444 c 0
 98 492 67 555 67 634 c 0
 67 932 383 1080 632 1080 c 0
 634 1080 635 1080 637 1080 c 0
 656 1079 662 1083 669 1108 c 0
 707 1250 798 1394 973 1394 c 0
 1150 1394 1246 1278 1246 1174 c 0
 1246 1086 1178 992 1060 992 c 0
 964 992 875 1052 875 1150 c 0
 875 1226 940 1246 908 1246 c 0
 873 1246 828 1176 807 1081 c 0
 802 1057 802 1056 822 1049 c 0
 937 1006 1014 919 1014 792 c 0
 1014 492 713 340 460 340 c 0
 433 340 405 342 379 345 c 0
 341 350 323 354 302 326 c 0
 293 313 287 298 287 280 c 0
 287 258 302 238 354 238 c 0
 399 238 613 240 666 240 c 0
 851 240 961 148 961 -18 c 0
 961 -389 601 -530 251 -530 c 0
 -68 -530 -265 -454 -265 -310 c 0
162 -130 m 0
 133 -159 114 -192 114 -230 c 0
 113 -304 198 -326 327 -326 c 0
 483 -326 592 -286 593 -176 c 0
 594 -130 553 -118 452 -118 c 0
 414 -118 323 -118 283 -118 c 0
 263 -118 243 -117 222 -114 c 0
 189 -110 181 -110 162 -130 c 0
456 604 m 0
 456 554 470 520 508 520 c 0
 586 520 645 690 645 816 c 0
 645 866 630 900 592 900 c 0
 514 900 456 730 456 604 c 0
EndSplineSet
Substitution2: "'smcp' Lowercase to Small Capitals in Latin lookup 0 subtable" g.sc
EndChar

StartChar: h
Encoding: 104 104 45
GlifName: h
Width: 1432
VWidth: 2310
Flags: MW
AnchorPoint: "Anchor-0" 1137 1039 basechar 0
AnchorPoint: "Anchor-1" 549 0 basechar 0
AnchorPoint: "Anchor-2" 549 0 basechar 0
Fore
SplineSet
1389 287 m 0
 1289 90 1115 -40 894 -40 c 0
 714 -40 620 44 620 146 c 0
 620 184 629 220 638 250 c 2
 742 620 l 2
 780 748 794 806 725 806 c 0
 650 806 510 588 453 327 c 2
 395 62 l 2
 384 10 378 0 316 0 c 2
 52 0 l 2
 -25 0 -33 8 -19 68 c 2
 267 1308 l 2
 276 1345 272 1350 224 1350 c 2
 140 1350 l 2
 101 1350 95 1355 95 1396 c 2
 95 1498 l 2
 95 1558 106 1560 164 1560 c 2
 656 1560 l 2
 723 1560 726 1555 713 1498 c 2
 593 966 l 2
 577 890 582 872 645 939 c 0
 742 1039 788 1078 910 1078 c 0
 1068 1078 1279 1014 1172 682 c 2
 1052 310 l 2
 1047 294 1044 280 1044 272 c 0
 1044 252 1054 244 1072 244 c 0
 1108 244 1148 274 1198 362 c 0
 1222 405 1220 439 1275 413 c 2
 1357 374 l 2
 1414 347 1419 345 1389 287 c 0
EndSplineSet
Substitution2: "'smcp' Lowercase to Small Capitals in Latin lookup 0 subtable" h.sc
EndChar

StartChar: i
Encoding: 105 105 46
GlifName: i
Width: 906
VWidth: 2310
Flags: MW
AnchorPoint: "Anchor-1" 247 10 basechar 0
AnchorPoint: "Anchor-2" 247 10 basechar 0
AnchorPoint: "Anchor-3" 352 30 basechar 0
Fore
SplineSet
654 980 m 2
 490 302 l 2
 487 290 485 272 485 262 c 0
 485 240 492 234 510 234 c 0
 545 234 586 276 633 368 c 0
 657 413 654 425 705 401 c 2
 809 352 l 2
 855 330 830 307 809 267 c 0
 703 68 537 -50 329 -50 c 0
 165 -50 63 34 63 154 c 0
 63 192 76 249 83 280 c 2
 193 772 l 2
 204 821 206 830 146 830 c 2
 50 830 l 2
 8 830 3 836 3 880 c 2
 3 998 l 2
 3 1037 13 1040 50 1040 c 2
 602 1040 l 2
 668 1040 668 1035 654 980 c 2
274 1380 m 0
 274 1516 380 1590 510 1590 c 0
 640 1590 748 1516 748 1380 c 0
 746 1244 640 1170 510 1170 c 0
 380 1170 274 1244 274 1380 c 0
EndSplineSet
Substitution2: "'smcp' Lowercase to Small Capitals in Latin lookup 0 subtable" i.sc
EndChar

StartChar: j
Encoding: 106 106 47
GlifName: j
Width: 777
VWidth: 2310
Flags: MW
AnchorPoint: "Anchor-1" -189 -565 basechar 0
AnchorPoint: "Anchor-2" -189 -565 basechar 0
Fore
SplineSet
702 970 m 2
 482 0 l 2
 408 -322 279 -520 -98 -520 c 0
 -357 -520 -512 -382 -512 -248 c 0
 -512 -92 -374 -14 -247 -14 c 0
 -123 -14 -40 -76 -40 -190 c 0
 -40 -282 -94 -290 -94 -318 c 0
 -94 -330 -77 -340 -46 -340 c 0
 84 -340 60 -128 134 206 c 2
 252 764 l 2
 263 815 261 830 200 830 c 2
 128 830 l 2
 87 830 84 846 84 888 c 2
 85 982 l 2
 86 1033 92 1040 136 1040 c 2
 645 1040 l 2
 721 1040 715 1027 702 970 c 2
335 1380 m 0
 335 1516 436 1590 560 1590 c 0
 692 1590 800 1516 800 1380 c 0
 800 1244 692 1170 560 1170 c 0
 435 1170 335 1244 335 1380 c 0
EndSplineSet
Substitution2: "'smcp' Lowercase to Small Capitals in Latin lookup 0 subtable" j.sc
EndChar

StartChar: k
Encoding: 107 107 48
GlifName: k
Width: 1432
VWidth: 2310
Flags: MW
AnchorPoint: "Anchor-0" 1219 1040 basechar 0
AnchorPoint: "Anchor-1" 586 0 basechar 0
AnchorPoint: "Anchor-2" 586 0 basechar 0
Fore
SplineSet
1329 296 m 0
 1217 63 1027 -50 852 -50 c 0
 680 -50 592 21 611 192 c 2
 625 320 l 2
 628 351 632 383 628 414 c 0
 630 436 623 438 600 431 c 0
 584 426 567 424 548 424 c 0
 524 424 502 432 484 446 c 0
 462 463 459 455 454 434 c 2
 377 52 l 2
 367 9 372 0 320 0 c 2
 6 0 l 2
 -61 0 -50 8 -38 60 c 2
 244 1294 l 2
 254 1341 256 1350 197 1350 c 2
 126 1350 l 2
 83 1350 78 1356 78 1398 c 2
 78 1498 l 2
 78 1557 87 1560 144 1560 c 2
 623 1560 l 2
 684 1560 699 1551 684 1482 c 2
 530 780 l 2
 525 760 512 731 551 745 c 0
 575 754 601 758 631 758 c 0
 639 758 647 758 655 757 c 0
 673 755 673 760 679 775 c 0
 682 781 684 787 687 794 c 0
 765 966 873 1080 1040 1080 c 0
 1251 1080 1356 972 1356 828 c 0
 1356 700 1249 598 1131 598 c 0
 1021 598 929 666 929 756 c 0
 929 820 954 850 954 872 c 0
 954 888 943 890 934 890 c 0
 905 890 878 855 831 750 c 0
 829 745 826 740 824 734 c 0
 817 718 817 702 843 682 c 0
 944 605 1018 477 999 336 c 2
 991 278 l 2
 987 250 992 234 1018 234 c 0
 1043 234 1088 264 1150 392 c 0
 1164 417 1171 420 1204 405 c 2
 1315 351 l 2
 1342 338 1346 331 1329 296 c 0
EndSplineSet
Substitution2: "'smcp' Lowercase to Small Capitals in Latin lookup 0 subtable" k.sc
EndChar

StartChar: l
Encoding: 108 108 49
GlifName: l
Width: 815
VWidth: 2310
Flags: MW
AnchorPoint: "Anchor-0" 436 1696 basechar 0
AnchorPoint: "Anchor-1" 965 1040 basechar 0
AnchorPoint: "Anchor-2" 250 0 basechar 0
Fore
SplineSet
678 1478 m 2
 424 302 l 2
 421 290 418 272 418 262 c 0
 418 240 425 234 443 234 c 0
 479 234 521 278 570 376 c 0
 589 412 591 423 632 404 c 2
 736 356 l 2
 767 341 776 336 761 304 c 0
 657 83 464 -50 251 -50 c 0
 88 -50 -12 28 -12 148 c 0
 -12 186 -3 241 6 280 c 2
 226 1278 l 2
 236 1325 249 1350 184 1350 c 2
 89 1350 l 2
 48 1350 38 1351 38 1392 c 2
 38 1521 l 2
 38 1553 43 1560 74 1560 c 2
 614 1560 l 2
 697 1560 692 1539 678 1478 c 2
EndSplineSet
Substitution2: "'smcp' Lowercase to Small Capitals in Latin lookup 0 subtable" l.sc
EndChar

StartChar: m
Encoding: 109 109 50
GlifName: m
Width: 2063
VWidth: 2310
Flags: MW
AnchorPoint: "Anchor-0" 1218 1040 basechar 0
AnchorPoint: "Anchor-1" 900 0 basechar 0
AnchorPoint: "Anchor-2" 900 0 basechar 0
Fore
SplineSet
49 1040 m 2
 522 1040 l 2
 567 1040 590 1035 583 992 c 2
 566 878 l 2
 557 820 577 829 611 875 c 0
 709 1007 797 1078 919 1078 c 0
 1037 1078 1115 1041 1165 922 c 0
 1193 857 1201 858 1238 905 c 0
 1333 1023 1416 1078 1532 1078 c 0
 1690 1078 1861 1014 1754 682 c 2
 1634 310 l 2
 1629 294 1626 280 1626 272 c 0
 1626 252 1636 244 1653 244 c 0
 1691 244 1736 282 1792 396 c 0
 1818 433 1818 431 1856 413 c 2
 1935 372 l 2
 1992 345 1993 342 1963 284 c 0
 1863 88 1689 -40 1476 -40 c 0
 1296 -40 1202 44 1202 146 c 0
 1202 184 1212 220 1221 250 c 2
 1324 620 l 2
 1362 748 1359 796 1307 796 c 0
 1242 796 1140 597 1084 341 c 2
 1019 42 l 2
 1013 14 1006 0 971 0 c 2
 629 0 l 2
 580 0 578 11 588 55 c 2
 749 676 l 2
 778 787 750 796 716 796 c 0
 661 796 540 596 484 339 c 2
 421 52 l 2
 413 18 402 0 359 0 c 2
 69 0 l 2
 -1 0 -4 14 8 66 c 2
 172 772 l 2
 183 819 176 830 113 830 c 2
 63 830 l 2
 11 830 3 832 3 884 c 2
 3 988 l 2
 3 1032 5 1040 49 1040 c 2
EndSplineSet
Substitution2: "'smcp' Lowercase to Small Capitals in Latin lookup 0 subtable" m.sc
EndChar

StartChar: n
Encoding: 110 110 51
GlifName: n
Width: 1446
VWidth: 2310
Flags: MW
AnchorPoint: "Anchor-0" 720 1040 basechar 0
AnchorPoint: "Anchor-1" 600 0 basechar 0
AnchorPoint: "Anchor-2" 600 0 basechar 0
Fore
SplineSet
43 1040 m 2
 554 1040 l 2
 588 1040 596 1032 591 1002 c 2
 568 860 l 2
 560 809 565 801 602 852 c 0
 710 1004 779 1078 970 1078 c 0
 1148 1078 1277 978 1182 682 c 2
 1062 310 l 2
 1057 294 1054 280 1054 272 c 0
 1054 252 1063 244 1080 244 c 0
 1118 244 1164 282 1219 394 c 0
 1240 421 1252 432 1283 418 c 2
 1377 366 l 2
 1423 344 1418 338 1395 293 c 0
 1295 92 1120 -40 904 -40 c 0
 724 -40 630 44 630 146 c 0
 630 184 639 220 648 250 c 2
 752 620 l 2
 790 748 774 776 725 776 c 0
 633 776 541 597 485 341 c 2
 421 48 l 2
 412 7 404 0 357 0 c 2
 59 0 l 2
 -9 0 -5 11 7 62 c 2
 172 774 l 2
 183 822 184 830 121 830 c 2
 50 830 l 2
 8 830 3 838 3 878 c 2
 3 996 l 2
 3 1033 7 1040 43 1040 c 2
EndSplineSet
Substitution2: "'smcp' Lowercase to Small Capitals in Latin lookup 0 subtable" n.sc
EndChar

StartChar: o
Encoding: 111 111 52
GlifName: o
Width: 1298
VWidth: 2310
Flags: MW
AnchorPoint: "Anchor-0" 717 1040 basechar 0
AnchorPoint: "Anchor-1" 455 0 basechar 0
AnchorPoint: "Anchor-2" 455 0 basechar 0
Fore
SplineSet
-12 430 m 0
 -12 810 358 1060 670 1060 c 0
 961 1060 1196 930 1196 610 c 0
 1196 230 866 -20 523 -20 c 0
 204 -20 -12 110 -12 430 c 0
411 320 m 0
 411 212 446 180 516 180 c 0
 613 180 772 412 772 680 c 0
 772 798 738 860 677 860 c 0
 552 860 411 588 411 320 c 0
EndSplineSet
Substitution2: "'smcp' Lowercase to Small Capitals in Latin lookup 0 subtable" o.sc
EndChar

StartChar: p
Encoding: 112 112 53
GlifName: p
Width: 1314
VWidth: 2310
Flags: MW
AnchorPoint: "Anchor-0" 957 1040 basechar 0
AnchorPoint: "Anchor-1" 737 0 basechar 0
AnchorPoint: "Anchor-2" 737 0 basechar 0
Fore
SplineSet
43 1040 m 2
 529 1040 l 2
 560 1040 573 1038 564 1008 c 2
 545 940 l 2
 533 898 535 887 574 931 c 0
 653 1020 753 1078 893 1078 c 0
 1085 1078 1250 958 1250 658 c 0
 1250 218 904 -40 682 -40 c 0
 586 -40 508 -8 456 57 c 0
 423 97 412 79 403 40 c 2
 299 -448 l 2
 289 -492 282 -500 232 -500 c 2
 -49 -500 l 2
 -122 -500 -120 -480 -108 -426 c 2
 167 786 l 2
 175 821 176 830 131 830 c 2
 43 830 l 2
 -1 830 -3 838 -3 882 c 2
 -3 998 l 2
 -3 1037 7 1040 43 1040 c 2
486 398 m 0
 486 288 504 198 555 198 c 0
 669 198 787 430 787 678 c 0
 787 806 762 850 707 850 c 0
 631 850 486 666 486 398 c 0
EndSplineSet
Substitution2: "'smcp' Lowercase to Small Capitals in Latin lookup 0 subtable" p.sc
EndChar

StartChar: q
Encoding: 113 113 54
GlifName: q
Width: 1241
VWidth: 2310
Flags: MW
AnchorPoint: "Anchor-0" 675 1040 basechar 0
AnchorPoint: "Anchor-1" 325 0 basechar 0
AnchorPoint: "Anchor-2" 325 0 basechar 0
Fore
SplineSet
-22 380 m 0
 -22 820 325 1078 547 1078 c 0
 660 1078 735 1031 785 944 c 0
 808 904 819 893 830 944 c 2
 844 1004 l 2
 852 1038 860 1040 898 1040 c 2
 1165 1040 l 2
 1221 1040 1224 1035 1213 990 c 2
 933 -230 l 2
 923 -273 915 -290 971 -290 c 2
 1053 -290 l 2
 1093 -290 1097 -299 1097 -340 c 2
 1097 -445 l 2
 1097 -494 1091 -500 1043 -500 c 2
 559 -500 l 2
 502 -500 495 -493 505 -444 c 2
 605 8 l 2
 613 43 603 60 547 22 c 0
 488 -17 416 -40 330 -40 c 0
 142 -40 -22 80 -22 380 c 0
742 640 m 0
 742 750 734 850 665 850 c 0
 569 850 436 608 436 360 c 0
 436 232 459 188 513 188 c 0
 587 188 742 372 742 640 c 0
EndSplineSet
Substitution2: "'smcp' Lowercase to Small Capitals in Latin lookup 0 subtable" q.sc
EndChar

StartChar: r
Encoding: 114 114 55
GlifName: r
Width: 1181
VWidth: 2310
Flags: MW
AnchorPoint: "Anchor-0" 714 1040 basechar 0
AnchorPoint: "Anchor-1" 237 0 basechar 0
AnchorPoint: "Anchor-2" 237 0 basechar 0
Fore
SplineSet
37 1040 m 2
 520 1040 l 2
 571 1040 595 1034 585 984 c 2
 576 938 l 2
 567 891 562 869 606 919 c 0
 704 1034 782 1066 895 1066 c 0
 1019 1066 1141 974 1141 838 c 0
 1141 674 1029 560 870 560 c 0
 752 560 680 648 681 730 c 0
 681 768 693 786 693 800 c 0
 693 808 688 810 684 810 c 0
 653 810 553 664 494 387 c 2
 425 70 l 2
 414 18 411 0 347 0 c 2
 63 0 l 2
 6 0 -5 6 5 50 c 2
 174 774 l 2
 185 822 184 830 125 830 c 2
 49 830 l 2
 5 830 3 838 3 882 c 2
 3 999 l 2
 3 1030 7 1040 37 1040 c 2
EndSplineSet
Substitution2: "'smcp' Lowercase to Small Capitals in Latin lookup 0 subtable" r.sc
EndChar

StartChar: s
Encoding: 115 115 56
GlifName: s
Width: 1050
VWidth: 2310
Flags: MW
AnchorPoint: "Anchor-0" 599 1040 basechar 0
AnchorPoint: "Anchor-1" 370 0 basechar 0
AnchorPoint: "Anchor-2" 370 0 basechar 0
Fore
SplineSet
534 265 m 0
 534 419 41 488 41 740 c 0
 41 978 281 1084 531 1084 c 0
 865 1084 1017 934 1017 802 c 0
 1017 702 943 624 819 624 c 0
 732 624 650 690 650 780 c 0
 650 838 671 848 671 872 c 0
 671 892 614 904 565 904 c 0
 478 904 443 866 443 812 c 0
 443 632 970 594 970 318 c 0
 970 50 650 -44 397 -44 c 0
 155 -44 -105 62 -105 282 c 0
 -105 398 -7 492 123 492 c 0
 226 492 300 428 300 334 c 0
 300 228 242 218 242 198 c 0
 242 180 326 156 411 156 c 0
 465 156 534 183 534 265 c 0
EndSplineSet
Substitution2: "'smcp' Lowercase to Small Capitals in Latin lookup 0 subtable" s.sc
EndChar

StartChar: t
Encoding: 116 116 57
GlifName: t
Width: 906
VWidth: 2310
Flags: MW
AnchorPoint: "Anchor-0" 650 1277 basechar 0
AnchorPoint: "Anchor-1" 809 1153 basechar 0
AnchorPoint: "Anchor-2" 345 0 basechar 0
Fore
SplineSet
47 1040 m 2
 189 1040 l 2
 228 1040 224 1048 231 1078 c 2
 258 1192 l 2
 264 1215 271 1222 297 1223 c 0
 417 1229 488 1265 525 1291 c 0
 563 1318 556 1316 617 1316 c 0
 666 1316 684 1314 675 1278 c 2
 627 1084 l 2
 618 1048 616 1040 659 1040 c 2
 803 1040 l 2
 832 1040 847 1038 847 1006 c 2
 847 884 l 2
 847 838 845 830 799 830 c 2
 599 830 l 2
 567 830 562 820 555 792 c 2
 439 324 l 2
 429 286 420 236 463 236 c 0
 504 236 544 285 593 378 c 0
 608 405 618 422 651 405 c 2
 747 355 l 2
 784 336 783 331 767 290 c 0
 685 79 508 -40 301 -40 c 0
 89 -40 -5 60 37 252 c 2
 164 782 l 2
 171 812 178 830 135 830 c 2
 45 830 l 2
 6 830 -15 832 -15 875 c 2
 -15 995 l 2
 -15 1039 7 1040 47 1040 c 2
EndSplineSet
Substitution2: "'smcp' Lowercase to Small Capitals in Latin lookup 0 subtable" t.sc
Substitution2: "'ss01' Style Set 1 lookup 3 subtable" t.alt
EndChar

StartChar: u
Encoding: 117 117 58
GlifName: u
Width: 1573
VWidth: 2310
Flags: MW
AnchorPoint: "Anchor-0" 899 1040 basechar 0
AnchorPoint: "Anchor-1" 532 0 basechar 0
AnchorPoint: "Anchor-2" 532 0 basechar 0
AnchorPoint: "Anchor-3" 1352 50 basechar 0
Fore
SplineSet
3 743 m 0
 102 946 276 1080 478 1080 c 0
 693 1080 751 958 706 790 c 2
 608 420 l 2
 572 292 550 214 615 214 c 0
 705 214 818 462 875 728 c 2
 928 976 l 2
 936 1014 940 1040 987 1040 c 2
 1289 1040 l 2
 1347 1040 1360 1040 1348 994 c 2
 1168 302 l 2
 1160 272 1153 234 1189 234 c 0
 1227 234 1269 278 1320 374 c 0
 1335 402 1348 422 1382 406 c 2
 1469 363 l 2
 1507 345 1527 334 1508 296 c 0
 1403 80 1231 -50 1014 -50 c 0
 867 -50 775 39 774 150 c 2
 774 170 l 2
 774 187 762 185 745 164 c 0
 645 37 550 -38 424 -38 c 0
 281 -38 109 28 219 358 c 1
 332 730 l 2
 341 760 346 796 314 796 c 0
 278 796 238 759 183 648 c 0
 163 609 163 608 121 628 c 2
 13 679 l 2
 -26 697 -15 706 3 743 c 0
EndSplineSet
Substitution2: "'smcp' Lowercase to Small Capitals in Latin lookup 0 subtable" u.sc
EndChar

StartChar: v
Encoding: 118 118 59
GlifName: v
Width: 1274
VWidth: 2310
Flags: MW
AnchorPoint: "Anchor-0" 903 1040 basechar 0
AnchorPoint: "Anchor-1" 567 0 basechar 0
AnchorPoint: "Anchor-2" 567 0 basechar 0
Fore
SplineSet
862 684 m 0
 745 684 676 750 677 866 c 0
 678 986 768 1098 956 1098 c 0
 1118 1098 1231 1000 1231 818 c 0
 1231 471 931 277 374 -11 c 0
 337 -29 317 -49 280 -28 c 2
 170 34 l 2
 151 45 151 48 158 76 c 0
 169 119 190 177 190 240 c 0
 190 434 0 588 0 776 c 0
 0 969 215 1019 439 1119 c 0
 460 1129 460 1132 470 1109 c 2
 522 979 l 2
 531 957 532 958 514 945 c 0
 478 919 436 877 436 820 c 0
 436 681 622 633 631 387 c 0
 632 371 631 361 634 356 c 0
 639 348 647 356 668 369 c 0
 885 508 994 602 994 716 c 0
 994 722 991 725 986 725 c 0
 966 725 947 684 862 684 c 0
EndSplineSet
Substitution2: "'smcp' Lowercase to Small Capitals in Latin lookup 0 subtable" v.sc
EndChar

StartChar: w
Encoding: 119 119 60
GlifName: w
Width: 2127
VWidth: 2310
Flags: MW
AnchorPoint: "Anchor-0" 1086 1040 basechar 0
AnchorPoint: "Anchor-1" 907 0 basechar 0
AnchorPoint: "Anchor-2" 907 0 basechar 0
Fore
SplineSet
23 747 m 0
 123 946 298 1078 513 1078 c 0
 693 1078 787 994 787 892 c 0
 787 854 778 818 769 788 c 2
 673 438 l 2
 635 310 630 232 692 232 c 0
 810 232 964 448 1017 707 c 2
 1074 991 l 2
 1082 1032 1089 1040 1138 1040 c 2
 1448 1040 l 2
 1515 1040 1510 1030 1497 973 c 2
 1369 418 l 2
 1331 250 1308 176 1430 176 c 0
 1681 176 1827 524 1827 700 c 0
 1827 712 1825 718 1819 718 c 0
 1798 718 1810 694 1730 694 c 0
 1644 694 1582 760 1582 876 c 0
 1582 976 1655 1068 1796 1068 c 0
 1910 1068 2063 1000 2063 798 c 0
 2063 498 1851 -40 1403 -40 c 0
 1273 -40 1086 -6 1008 172 c 0
 983 229 964 225 914 163 c 0
 791 27 631 -40 497 -40 c 0
 339 -40 132 24 237 356 c 2
 355 728 l 2
 360 744 363 758 363 766 c 0
 363 786 354 794 337 794 c 0
 299 794 254 757 199 645 c 0
 178 603 176 608 133 628 c 2
 39 673 l 2
 -7 695 0 702 23 747 c 0
EndSplineSet
Substitution2: "'smcp' Lowercase to Small Capitals in Latin lookup 0 subtable" w.sc
EndChar

StartChar: x
Encoding: 120 120 61
GlifName: x
Width: 1430
VWidth: 2310
Flags: MW
AnchorPoint: "Anchor-0" 914 1040 basechar 0
AnchorPoint: "Anchor-1" 467 2 basechar 0
AnchorPoint: "Anchor-2" 467 2 basechar 0
Fore
SplineSet
-105 268 m 0
 -105 416 11 538 131 538 c 0
 257 538 318 470 318 360 c 0
 318 236 228 226 228 184 c 0
 228 164 240 160 262 160 c 0
 320 160 368 244 451 373 c 0
 474 409 471 424 462 474 c 0
 444 566 427 654 404 725 c 0
 397 746 382 780 352 780 c 0
 319 780 285 746 243 662 c 0
 228 632 230 621 201 639 c 2
 79 710 l 2
 49 727 59 736 73 768 c 0
 146 932 287 1084 491 1084 c 0
 667 1084 750 953 772 857 c 0
 773 855 773 852 773 850 c 0
 780 815 792 829 807 850 c 0
 894 976 952 1080 1097 1080 c 0
 1290 1080 1427 952 1427 768 c 0
 1427 620 1321 518 1201 518 c 0
 1088 518 999 576 999 686 c 0
 999 810 1089 820 1089 862 c 0
 1089 882 1077 886 1055 886 c 0
 995 886 948 798 862 647 c 0
 841 610 830 600 840 549 c 0
 855 471 874 391 901 307 c 0
 908 286 926 256 954 256 c 0
 990 256 1032 303 1076 384 c 0
 1096 420 1094 440 1131 414 c 2
 1228 349 l 2
 1255 331 1261 330 1246 296 c 0
 1172 127 1007 -40 817 -40 c 0
 647 -40 573 43 539 126 c 0
 534 140 530 150 526 158 c 0
 512 189 511 172 478 131 c 0
 397 31 343 -44 220 -44 c 0
 32 -44 -105 84 -105 268 c 0
EndSplineSet
Substitution2: "'smcp' Lowercase to Small Capitals in Latin lookup 0 subtable" x.sc
EndChar

StartChar: y
Encoding: 121 121 62
GlifName: y
Width: 1347
VWidth: 2310
Flags: MW
AnchorPoint: "Anchor-0" 793 1040 basechar 0
AnchorPoint: "Anchor-1" -15 -565 basechar 0
AnchorPoint: "Anchor-2" -15 -565 basechar 0
Fore
SplineSet
968 696 m 0
 869 696 802 792 802 888 c 0
 802 1028 920 1090 1036 1090 c 0
 1184 1090 1296 962 1296 800 c 0
 1296 320 749 -530 198 -530 c 0
 -112 -530 -198 -306 -198 -132 c 0
 -198 20 -100 154 57 154 c 0
 157 154 246 88 245 -34 c 0
 243 -216 113 -220 112 -270 c 0
 111 -316 138 -336 198 -336 c 0
 286 -336 383 -300 479 -239 c 0
 504 -223 503 -222 490 -194 c 0
 352 91 356 599 312 735 c 0
 305 756 299 780 267 780 c 0
 226 780 178 718 117 618 c 0
 106 600 96 597 77 608 c 2
 -38 678 l 2
 -61 690 -52 696 -41 718 c 0
 64 924 212 1084 426 1084 c 0
 620 1084 675 1010 709 895 c 0
 751 752 722 438 802 159 c 0
 816 111 817 112 843 148 c 0
 983 348 1070 552 1070 718 c 0
 1070 730 1069 736 1063 736 c 0
 1043 736 1044 696 968 696 c 0
EndSplineSet
Substitution2: "'smcp' Lowercase to Small Capitals in Latin lookup 0 subtable" y.sc
EndChar

StartChar: z
Encoding: 122 122 63
GlifName: z
Width: 1226
VWidth: 2310
Flags: MW
AnchorPoint: "Anchor-0" 677 1040 basechar 0
AnchorPoint: "Anchor-1" 399 0 basechar 0
AnchorPoint: "Anchor-2" 399 0 basechar 0
Fore
SplineSet
-64 695 m 0
 54 825 276 1080 428 1080 c 0
 616 1080 715 942 816 942 c 0
 892 942 997 1005 1064 1051 c 0
 1090 1068 1089 1072 1109 1049 c 2
 1184 960 l 2
 1209 930 1209 930 1177 906 c 2
 594 450 l 2
 560 423 538 415 541 405 c 0
 545 392 560 407 599 416 c 0
 621 421 641 424 655 424 c 0
 771 424 786 380 833 380 c 0
 902 380 945 428 1002 509 c 0
 1020 534 1022 526 1045 508 c 2
 1148 428 l 2
 1172 410 1167 409 1150 383 c 0
 1051 234 844 -40 624 -40 c 0
 490 -40 355 78 272 78 c 0
 197 78 81 30 9 -11 c 0
 -20 -27 -19 -33 -40 -8 c 2
 -132 100 l 2
 -149 120 -149 120 -127 136 c 2
 494 621 l 2
 511 635 538 646 533 655 c 0
 528 664 517 645 493 638 c 0
 477 633 462 630 451 630 c 0
 354 630 345 686 262 686 c 0
 204 686 151 646 99 591 c 0
 73 565 74 555 41 578 c 2
 -52 645 l 2
 -83 667 -91 666 -64 695 c 0
EndSplineSet
Substitution2: "'smcp' Lowercase to Small Capitals in Latin lookup 0 subtable" z.sc
EndChar

StartChar: comma
Encoding: 44 44 65
GlifName: comma
Width: 590
Flags: MW
Fore
SplineSet
-32 172 m 0
 -32 316 86 406 222 406 c 0
 360 406 500 324 500 98 c 0
 500 -163 190 -299 -47 -311 c 0
 -82 -313 -86 -311 -86 -276 c 2
 -86 -170 l 2
 -86 -146 -77 -153 -56 -151 c 0
 60 -142 235 -101 302 -24 c 0
 335 13 308 19 278 1 c 0
 247 -17 208 -30 156 -30 c 0
 40 -30 -32 46 -32 172 c 0
EndSplineSet
EndChar

StartChar: exclam
Encoding: 33 33 67
GlifName: exclam
Width: 756
Flags: MW
Fore
SplineSet
10 200 m 0
 10 332 118 440 250 440 c 0
 382 440 490 332 490 200 c 0
 490 68 382 -40 250 -40 c 0
 118 -40 10 68 10 200 c 0
760 1196 m 0
 639 873 482 825 403 562 c 0
 394 532 383 530 343 530 c 2
 297 530 l 2
 249 530 233 532 241 570 c 0
 293 833 181 953 250 1298 c 0
 278 1438 386 1518 526 1518 c 0
 690 1518 782 1416 782 1314 c 0
 782 1278 772 1227 760 1196 c 0
EndSplineSet
EndChar

StartChar: quotesingle
Encoding: 39 39 70
GlifName: quotesingle
Width: 614
Flags: MW
Fore
SplineSet
570 1232 m 0
 502 1151 401 1075 374 966 c 0
 367 939 371 936 336 936 c 2
 266 936 l 2
 228 936 232 941 229 974 c 0
 212 1163 180 1220 180 1344 c 0
 180 1482 298 1556 430 1556 c 0
 522 1556 634 1498 634 1374 c 0
 634 1321 607 1276 570 1232 c 0
EndSplineSet
EndChar

StartChar: quoteleft
Encoding: 8216 8216 71
GlifName: quoteleft
Width: 704
Flags: MW
Fore
SplineSet
735 1116 m 0
 735 972 617 882 481 882 c 0
 343 882 203 964 203 1190 c 0
 203 1451 513 1587 750 1599 c 0
 785 1601 789 1599 789 1564 c 2
 789 1458 l 2
 789 1434 780 1441 759 1439 c 0
 643 1430 468 1389 401 1312 c 0
 368 1275 395 1269 425 1287 c 0
 456 1305 495 1318 547 1318 c 0
 663 1318 735 1242 735 1116 c 0
EndSplineSet
EndChar

StartChar: quotedblleft
Encoding: 8220 8220 72
GlifName: quotedblleft
Width: 1324
Flags: MW
Fore
SplineSet
735 1116 m 0
 735 972 617 882 481 882 c 0
 343 882 203 964 203 1190 c 0
 203 1451 513 1587 750 1599 c 0
 785 1601 789 1599 789 1564 c 2
 789 1458 l 2
 789 1434 780 1441 759 1439 c 0
 643 1430 468 1389 401 1312 c 0
 368 1275 395 1269 425 1287 c 0
 456 1305 495 1318 547 1318 c 0
 663 1318 735 1242 735 1116 c 0
1355 1116 m 0
 1355 972 1237 882 1101 882 c 0
 963 882 823 964 823 1190 c 0
 823 1451 1133 1587 1370 1599 c 0
 1405 1601 1409 1599 1409 1564 c 2
 1409 1458 l 2
 1409 1434 1400 1441 1379 1439 c 0
 1263 1430 1088 1389 1021 1312 c 0
 988 1275 1015 1269 1045 1287 c 0
 1076 1305 1115 1318 1167 1318 c 0
 1283 1318 1355 1242 1355 1116 c 0
EndSplineSet
EndChar

StartChar: quotedblright
Encoding: 8221 8221 73
GlifName: quotedblright
Width: 1324
Flags: MW
Fore
SplineSet
279 1476 m 0
 279 1620 397 1710 533 1710 c 0
 671 1710 811 1628 811 1402 c 0
 811 1141 501 1005 264 993 c 0
 229 991 225 993 225 1028 c 2
 225 1134 l 2
 225 1158 234 1151 255 1153 c 0
 371 1162 546 1203 613 1280 c 0
 646 1317 619 1323 589 1305 c 0
 558 1287 519 1274 467 1274 c 0
 351 1274 279 1350 279 1476 c 0
899 1476 m 0
 899 1620 1017 1710 1153 1710 c 0
 1291 1710 1431 1628 1431 1402 c 0
 1431 1141 1121 1005 884 993 c 0
 849 991 845 993 845 1028 c 2
 845 1134 l 2
 845 1158 854 1151 875 1153 c 0
 991 1162 1166 1203 1233 1280 c 0
 1266 1317 1239 1323 1209 1305 c 0
 1178 1287 1139 1274 1087 1274 c 0
 971 1274 899 1350 899 1476 c 0
EndSplineSet
EndChar

StartChar: quoteright
Encoding: 8217 8217 74
GlifName: quoteright
Width: 704
Flags: MW
Fore
SplineSet
289 1476 m 0
 289 1620 407 1710 543 1710 c 0
 681 1710 821 1628 821 1402 c 0
 821 1141 511 1005 274 993 c 0
 239 991 235 993 235 1028 c 2
 235 1134 l 2
 235 1158 244 1151 265 1153 c 0
 381 1162 556 1203 623 1280 c 0
 656 1317 629 1323 599 1305 c 0
 568 1287 529 1274 477 1274 c 0
 361 1274 289 1350 289 1476 c 0
EndSplineSet
EndChar

StartChar: question
Encoding: 63 63 75
GlifName: question
Width: 1220
Flags: MW
Fore
SplineSet
727 494 m 0
 654 476 593 472 562 472 c 0
 441 472 290 536 290 680 c 0
 290 996 858 865 858 1200 c 0
 858 1308 800 1366 702 1366 c 0
 634 1366 578 1350 578 1326 c 0
 578 1286 660 1282 660 1140 c 0
 660 1016 514 940 404 940 c 0
 294 940 150 1026 150 1162 c 0
 150 1366 398 1540 762 1540 c 0
 1104 1540 1280 1400 1280 1180 c 0
 1280 726 531 783 531 701 c 0
 531 678 553 666 600 666 c 0
 622 666 675 670 728 688 c 0
 766 701 770 714 775 661 c 2
 786 555 l 2
 792 501 770 505 727 494 c 0
EndSplineSet
Refer: 1 46 N 1 0 0 1 338 0 2
EndChar

StartChar: parenleft
Encoding: 40 40 76
GlifName: parenleft
Width: 960
Flags: MW
Fore
SplineSet
783 -214 m 2
 739 -302 l 2
 718 -344 711 -338 665 -322 c 0
 294 -190 100 83 100 470 c 0
 100 1040 453 1438 993 1588 c 0
 1035 1600 1039 1602 1057 1566 c 2
 1109 1462 l 2
 1124 1432 1105 1437 1075 1427 c 0
 755 1320 570 895 570 470 c 0
 570 179 608 -69 777 -168 c 0
 804 -184 797 -187 783 -214 c 2
EndSplineSet
EndChar

StartChar: parenright
Encoding: 41 41 77
GlifName: parenright
Width: 920
Flags: MW
Fore
SplineSet
137 1478 m 2
 181 1566 l 2
 202 1608 209 1602 255 1586 c 0
 626 1454 820 1181 820 794 c 0
 820 224 467 -174 -73 -324 c 0
 -115 -336 -119 -338 -137 -302 c 2
 -189 -198 l 2
 -204 -168 -185 -173 -155 -163 c 0
 165 -56 350 369 350 794 c 0
 350 1085 312 1333 143 1432 c 0
 116 1448 123 1451 137 1478 c 2
EndSplineSet
EndChar

StartChar: asterisk
Encoding: 42 42 78
GlifName: asterisk
Width: 1318
VWidth: 2310
Flags: MW
Fore
SplineSet
792 975 m 0
 870 949 942 947 1024 896 c 0
 1143 822 1131 698 1085 618 c 0
 1049 556 953 505 863 557 c 0
 770 610 769 766 703 886 c 0
 677 934 653 963 671 880 c 0
 687 802 717 734 717 652 c 0
 717 514 599 460 507 460 c 0
 435 460 343 518 343 622 c 0
 343 730 481 810 551 931 c 0
 582 985 581 997 534 956 c 0
 471 901 426 839 352 796 c 0
 232 727 126 802 80 882 c 0
 44 944 49 1053 139 1105 c 0
 238 1162 384 1072 530 1080 c 0
 585 1083 568 1090 532 1103 c 0
 452 1131 380 1135 294 1184 c 0
 194 1241 186 1382 232 1462 c 0
 268 1524 365 1575 455 1523 c 0
 552 1467 549 1298 626 1176 c 0
 644 1147 661 1118 651 1178 c 0
 636 1266 601 1339 601 1428 c 0
 601 1566 719 1620 811 1620 c 0
 883 1620 975 1562 975 1458 c 0
 975 1354 847 1276 775 1163 c 0
 738 1105 730 1076 790 1129 c 0
 850 1183 895 1243 966 1284 c 0
 1086 1353 1191 1278 1237 1198 c 0
 1273 1136 1269 1027 1179 975 c 0
 1085 921 946 1001 807 1001 c 0
 742 1001 739 992 792 975 c 0
EndSplineSet
EndChar

StartChar: at
Encoding: 64 64 79
GlifName: at
Width: 2300
VWidth: 2310
Flags: MW
Fore
SplineSet
1348 692 m 0
 1348 776 1344 836 1288 836 c 0
 1200 836 1130 608 1130 480 c 0
 1130 386 1140 364 1168 364 c 0
 1250 364 1348 536 1348 692 c 0
1768 -173 m 0
 1600 -353 1350 -448 1038 -448 c 0
 672 -448 90 -224 90 442 c 0
 90 1108 644 1600 1270 1600 c 0
 1856 1600 2180 1248 2180 802 c 0
 2180 462 1944 126 1582 126 c 0
 1481 126 1405 172 1354 230 c 0
 1324 264 1314 272 1274 239 c 0
 1200 178 1119 130 1008 130 c 0
 850 130 708 211 708 420 c 0
 708 640 878 1068 1196 1068 c 0
 1314 1068 1372 1027 1400 958 c 0
 1415 922 1420 917 1428 961 c 2
 1438 1012 l 2
 1444 1042 1449 1040 1486 1040 c 2
 1719 1040 l 2
 1770 1040 1783 1036 1772 989 c 2
 1640 440 l 2
 1636 414 1610 340 1676 340 c 0
 1778 340 1954 482 1954 810 c 0
 1954 1224 1612 1364 1344 1364 c 0
 956 1364 540 1046 540 482 c 0
 540 58 762 -218 1110 -218 c 0
 1284 -218 1446 -208 1612 -51 c 0
 1642 -23 1645 -3 1677 -35 c 2
 1770 -128 l 2
 1791 -149 1788 -151 1768 -173 c 0
EndSplineSet
EndChar

StartChar: dollar
Encoding: 36 36 80
GlifName: dollar
Width: 1506
Flags: MW
Fore
SplineSet
1034 1102 m 0
 1034 1194 1118 1204 1118 1250 c 0
 1118 1282 1108 1303 1067 1315 c 0
 1028 1326 997 1314 985 1271 c 2
 919 1035 l 2
 903 980 894 974 951 957 c 0
 1162 896 1404 806 1404 490 c 0
 1404 208 1012 -11 665 -37 c 0
 622 -40 615 -37 605 -73 c 2
 588 -135 l 2
 580 -163 573 -170 535 -170 c 2
 403 -170 l 2
 361 -170 359 -163 369 -129 c 2
 389 -59 l 2
 400 -20 396 -24 357 -15 c 0
 69 53 0 246 0 392 c 0
 0 528 80 634 218 634 c 0
 352 634 422 562 422 448 c 0
 422 316 338 340 338 280 c 0
 338 243 359 210 427 191 c 0
 457 183 459 186 467 215 c 2
 562 554 l 2
 573 592 545 601 511 612 c 0
 331 669 170 758 170 1016 c 0
 170 1314 498 1493 769 1532 c 0
 828 1541 839 1533 854 1585 c 2
 868 1635 l 2
 876 1664 889 1670 925 1670 c 2
 1035 1670 l 2
 1088 1670 1099 1668 1086 1623 c 2
 1070 1571 l 2
 1055 1516 1065 1524 1119 1510 c 0
 1307 1462 1476 1354 1476 1158 c 0
 1476 1002 1376 916 1258 916 c 0
 1144 916 1034 968 1034 1102 c 0
644 1140 m 0
 644 1118 651 1099 662 1083 c 0
 684 1052 699 1036 712 1083 c 2
 764 1267 l 2
 776 1310 779 1318 737 1297 c 0
 674 1266 644 1212 644 1140 c 0
924 380 m 0
 924 441 889 480 834 509 c 0
 780 538 776 532 759 471 c 2
 691 229 l 2
 675 171 685 174 745 188 c 0
 862 215 924 278 924 380 c 0
EndSplineSet
EndChar

StartChar: numbersign
Encoding: 35 35 81
GlifName: numbersign
Width: 1320
Flags: MW
Fore
SplineSet
611 1610 m 2
 731 1610 l 2
 778 1610 783 1605 772 1566 c 2
 657 1156 l 2
 646 1117 646 1110 699 1110 c 2
 809 1110 l 2
 855 1110 850 1122 859 1156 c 2
 976 1574 l 2
 985 1606 993 1610 1035 1610 c 2
 1147 1610 l 2
 1199 1610 1196 1601 1184 1559 c 2
 1071 1148 l 2
 1063 1118 1062 1110 1105 1110 c 2
 1335 1110 l 2
 1370 1110 1380 1107 1380 1070 c 2
 1380 944 l 2
 1380 906 1376 900 1339 900 c 2
 1049 900 l 2
 995 900 999 890 988 850 c 2
 942 684 l 2
 934 654 931 630 977 630 c 2
 1191 630 l 2
 1236 630 1240 622 1240 578 c 2
 1240 466 l 2
 1240 430 1239 420 1203 420 c 2
 921 420 l 2
 866 420 867 416 855 374 c 2
 730 -74 l 2
 720 -108 709 -110 665 -110 c 2
 557 -110 l 2
 514 -110 506 -110 515 -76 c 2
 643 380 l 2
 653 417 649 420 599 420 c 2
 489 420 l 2
 450 420 450 416 442 386 c 2
 316 -68 l 2
 307 -101 300 -110 255 -110 c 2
 133 -110 l 2
 84 -110 97 -84 106 -52 c 2
 227 380 l 2
 236 414 225 420 179 420 c 2
 -13 420 l 2
 -46 420 -60 422 -60 458 c 2
 -60 580 l 2
 -60 618 -58 630 -17 630 c 2
 257 630 l 2
 301 630 299 637 308 670 c 2
 360 858 l 2
 369 892 371 900 323 900 c 2
 123 900 l 2
 84 900 80 912 80 948 c 2
 80 1078 l 2
 80 1109 97 1110 125 1110 c 2
 379 1110 l 2
 433 1110 432 1115 443 1156 c 2
 564 1590 l 2
 571 1614 581 1610 611 1610 c 2
747 900 m 2
 615 900 l 2
 586 900 585 899 579 876 c 2
 523 674 l 2
 513 638 511 630 561 630 c 2
 665 630 l 2
 713 630 714 633 724 670 c 2
 779 868 l 2
 787 898 778 900 747 900 c 2
EndSplineSet
EndChar

StartChar: slash
Encoding: 47 47 82
GlifName: slash
Width: 1040
Flags: MW
Fore
SplineSet
933 1560 m 2
 1046 1560 l 2
 1104 1560 1088 1537 1072 1506 c 2
 148 -262 l 2
 132 -292 123 -300 75 -300 c 2
 -15 -300 l 2
 -85 -300 -94 -289 -73 -248 c 2
 860 1518 l 2
 876 1548 884 1560 933 1560 c 2
EndSplineSet
EndChar

StartChar: percent
Encoding: 37 37 83
GlifName: percent
Width: 2260
Flags: MW
Fore
SplineSet
120 1080 m 0
 181 1366 397 1540 683 1540 c 0
 909 1540 1141 1366 1080 1080 c 0
 1019 794 742 620 496 620 c 0
 270 620 59 794 120 1080 c 0
510 1080 m 0
 467 876 479 790 547 790 c 0
 615 790 647 876 690 1080 c 0
 733 1284 730 1370 662 1370 c 0
 594 1370 553 1284 510 1080 c 0
1659 1496 m 2
 1816 1496 l 2
 1851 1496 1846 1486 1828 1464 c 2
 621 24 l 2
 604 3 592 -4 557 -4 c 2
 404 -4 l 2
 365 -4 379 19 394 37 c 2
 1612 1474 l 2
 1623 1488 1636 1496 1659 1496 c 2
1139 420 m 0
 1200 706 1427 880 1703 880 c 0
 1929 880 2160 706 2099 420 c 0
 2038 134 1762 -40 1536 -40 c 0
 1310 -40 1078 134 1139 420 c 0
1529 420 m 0
 1486 216 1509 130 1577 130 c 0
 1645 130 1666 216 1709 420 c 0
 1752 624 1740 710 1672 710 c 0
 1604 710 1572 624 1529 420 c 0
EndSplineSet
EndChar

StartChar: plus
Encoding: 43 43 84
GlifName: plus
Width: 1060
Flags: MW
Fore
SplineSet
725 896 m 2
 913 896 l 2
 936 896 947 892 947 868 c 2
 947 691 l 2
 947 674 946 666 929 666 c 2
 676 666 l 2
 644 666 632 662 626 632 c 2
 562 389 l 2
 558 373 555 370 537 370 c 2
 349 370 l 2
 329 370 320 371 324 390 c 2
 388 625 l 2
 395 658 387 666 352 666 c 2
 156 666 l 2
 131 666 127 671 127 695 c 2
 127 869 l 2
 127 891 136 896 157 896 c 2
 411 896 l 2
 438 896 451 902 457 930 c 2
 513 1160 l 2
 518 1182 526 1190 551 1190 c 2
 730 1190 l 2
 750 1190 757 1183 752 1161 c 2
 695 934 l 2
 688 903 694 896 725 896 c 2
EndSplineSet
EndChar

StartChar: hyphen
Encoding: 45 45 85
GlifName: hyphen
Width: 820
Flags: MW
Fore
SplineSet
104 770 m 2
 616 770 l 2
 647 770 650 763 650 731 c 2
 650 581 l 2
 650 546 649 540 614 540 c 2
 112 540 l 2
 76 540 70 545 70 580 c 2
 70 729 l 2
 70 761 72 770 104 770 c 2
EndSplineSet
Substitution2: "Single Substitution lookup 10 subtable" hyphen.sc
EndChar

StartChar: dotlessi
Encoding: 305 305 86
GlifName: dotlessi
Width: 932
VWidth: 2310
Flags: MW
AnchorPoint: "Anchor-0" 499 1040 basechar 0
AnchorPoint: "Anchor-1" 367 0 basechar 0
AnchorPoint: "Anchor-2" 367 0 basechar 0
Fore
SplineSet
698 980 m 2
 528 302 l 2
 525 290 522 272 522 262 c 0
 522 240 530 234 550 234 c 0
 589 234 634 276 683 368 c 0
 707 413 704 425 755 401 c 2
 859 352 l 2
 905 330 880 307 859 267 c 0
 753 68 584 -50 366 -50 c 0
 202 -50 100 34 100 154 c 0
 100 192 113 249 120 280 c 2
 230 772 l 2
 241 821 243 830 183 830 c 2
 87 830 l 2
 45 830 40 836 40 880 c 2
 40 998 l 2
 40 1037 50 1040 87 1040 c 2
 645 1040 l 2
 711 1040 712 1035 698 980 c 2
EndSplineSet
EndChar

StartChar: braceleft
Encoding: 123 123 89
GlifName: braceleft
Width: 704
VWidth: 2310
Flags: MW
Fore
SplineSet
452 -298 m 0
 190 -289 -70 -233 -70 -20 c 0
 -70 214 170 304 170 430 c 0
 170 497 156 515 118 530 c 0
 96 539 90 547 90 580 c 2
 90 670 l 2
 90 702 92 721 116 729 c 0
 178 749 262 781 262 852 c 0
 262 978 210 988 210 1202 c 0
 210 1410 468 1547 830 1559 c 0
 871 1560 884 1558 884 1513 c 2
 884 1404 l 2
 884 1350 878 1348 828 1345 c 0
 720 1339 616 1311 616 1204 c 0
 616 1072 644 1102 644 902 c 0
 644 778 546 701 420 647 c 0
 372 627 369 606 413 584 c 0
 471 555 504 502 504 440 c 0
 504 240 356 220 356 88 c 0
 356 -13 397 -64 478 -80 c 0
 518 -88 544 -81 544 -134 c 2
 544 -246 l 2
 544 -308 507 -300 452 -298 c 0
EndSplineSet
EndChar

StartChar: bar
Encoding: 124 124 90
GlifName: bar
Width: 600
VWidth: 2310
Flags: MW
Fore
SplineSet
409 1560 m 2
 521 1560 l 2
 605 1560 592 1523 578 1464 c 2
 131 -452 l 2
 121 -494 112 -500 61 -500 c 2
 -71 -500 l 2
 -131 -500 -137 -489 -127 -444 c 2
 321 1480 l 2
 333 1530 343 1560 409 1560 c 2
EndSplineSet
EndChar

StartChar: braceright
Encoding: 125 125 91
GlifName: braceright
Width: 704
VWidth: 2310
Flags: MW
Fore
SplineSet
172 1558 m 0
 434 1549 694 1493 694 1280 c 0
 694 1046 454 956 454 830 c 0
 454 763 468 745 506 730 c 0
 528 721 534 713 534 680 c 2
 534 590 l 2
 534 558 532 539 508 531 c 0
 446 511 362 479 362 408 c 0
 362 282 414 272 414 58 c 0
 414 -150 156 -287 -206 -299 c 0
 -247 -300 -260 -298 -260 -253 c 2
 -260 -144 l 2
 -260 -90 -254 -88 -204 -85 c 0
 -96 -79 8 -51 8 56 c 0
 8 188 -20 158 -20 358 c 0
 -20 482 78 559 204 613 c 0
 252 633 255 654 211 676 c 0
 153 705 120 758 120 820 c 0
 120 1020 268 1040 268 1172 c 0
 268 1273 227 1324 146 1340 c 0
 106 1348 80 1341 80 1394 c 2
 80 1506 l 2
 80 1568 117 1560 172 1558 c 0
EndSplineSet
EndChar

StartChar: asciitilde
Encoding: 126 126 92
GlifName: asciitilde
Width: 1376
VWidth: 2310
Flags: MW
Fore
SplineSet
486 814 m 0
 418 814 362 786 332 733 c 0
 317 707 316 686 272 686 c 2
 156 686 l 2
 122 686 121 697 126 724 c 0
 162 900 316 1060 538 1060 c 0
 778 1060 738 892 890 892 c 0
 963 892 1022 924 1050 985 c 0
 1061 1008 1064 1020 1100 1020 c 2
 1202 1020 l 2
 1250 1020 1257 1015 1249 974 c 0
 1215 801 1093 646 838 646 c 0
 604 646 652 814 486 814 c 0
EndSplineSet
EndChar

StartChar: less
Encoding: 60 60 93
GlifName: less
Width: 1120
Flags: MW
Fore
SplineSet
438 748 m 2
 890 575 l 2
 919 564 930 553 930 511 c 2
 930 393 l 2
 930 335 923 333 884 348 c 2
 164 642 l 2
 131 655 120 672 120 720 c 2
 120 830 l 2
 120 890 135 896 176 912 c 2
 1020 1246 l 2
 1060 1262 1080 1265 1080 1199 c 2
 1080 1112 l 2
 1080 1055 1072 1037 1032 1022 c 2
 438 802 l 2
 403 789 382 788 382 776 c 0
 382 759 399 763 438 748 c 2
EndSplineSet
EndChar

StartChar: equal
Encoding: 61 61 94
GlifName: equal
Width: 1120
Flags: MW
Fore
SplineSet
207 1090 m 2
 1017 1090 l 2
 1047 1090 1050 1086 1050 1062 c 2
 1050 893 l 2
 1050 869 1048 860 1014 860 c 2
 204 860 l 2
 172 860 170 864 170 890 c 2
 170 1062 l 2
 170 1085 180 1090 207 1090 c 2
127 690 m 2
 937 690 l 2
 967 690 970 686 970 662 c 2
 970 493 l 2
 970 469 968 460 934 460 c 2
 124 460 l 2
 92 460 90 464 90 490 c 2
 90 662 l 2
 90 685 100 690 127 690 c 2
EndSplineSet
EndChar

StartChar: greater
Encoding: 62 62 95
GlifName: greater
Width: 1120
Flags: MW
Fore
SplineSet
682 802 m 2
 230 975 l 2
 201 986 190 997 190 1039 c 2
 190 1157 l 2
 190 1215 197 1217 236 1202 c 2
 956 908 l 2
 989 895 1000 878 1000 830 c 2
 1000 720 l 2
 1000 660 985 654 944 638 c 2
 100 304 l 2
 60 288 40 285 40 351 c 2
 40 438 l 2
 40 495 48 513 88 528 c 2
 682 748 l 2
 717 761 738 762 738 774 c 0
 738 791 721 787 682 802 c 2
EndSplineSet
EndChar

StartChar: bracketleft
Encoding: 91 91 96
GlifName: bracketleft
Width: 810
Flags: MW
Fore
SplineSet
361 1560 m 2
 873 1560 l 2
 913 1560 930 1557 930 1513 c 2
 930 1372 l 2
 930 1312 919 1310 861 1310 c 2
 737 1310 l 2
 673 1310 657 1307 645 1252 c 2
 378 22 l 2
 365 -36 361 -50 438 -50 c 2
 547 -50 l 2
 600 -50 610 -51 610 -104 c 2
 610 -244 l 2
 610 -294 603 -300 555 -300 c 2
 -41 -300 l 2
 -102 -300 -109 -297 -98 -244 c 2
 277 1498 l 2
 288 1551 294 1560 361 1560 c 2
EndSplineSet
EndChar

StartChar: backslash
Encoding: 92 92 97
GlifName: backslash
Width: 1040
Flags: MW
Fore
SplineSet
523 1476 m 2
 828 -234 l 2
 839 -293 838 -300 765 -300 c 2
 625 -300 l 2
 555 -300 560 -290 550 -232 c 2
 251 1494 l 2
 241 1555 243 1560 317 1560 c 2
 439 1560 l 2
 521 1560 511 1542 523 1476 c 2
EndSplineSet
EndChar

StartChar: bracketright
Encoding: 93 93 98
GlifName: bracketright
Width: 810
Flags: MW
Fore
SplineSet
449 -300 m 2
 -63 -300 l 2
 -103 -300 -120 -297 -120 -253 c 2
 -120 -112 l 2
 -120 -52 -109 -50 -51 -50 c 2
 73 -50 l 2
 137 -50 153 -47 165 8 c 2
 432 1238 l 2
 445 1296 449 1310 372 1310 c 2
 263 1310 l 2
 210 1310 200 1311 200 1364 c 2
 200 1504 l 2
 200 1554 207 1560 255 1560 c 2
 851 1560 l 2
 912 1560 919 1557 908 1504 c 2
 533 -238 l 2
 522 -291 516 -300 449 -300 c 2
EndSplineSet
EndChar

StartChar: asciicircum
Encoding: 94 94 100
GlifName: asciicircum
Width: 1090
Flags: MW
Fore
SplineSet
676 1279 m 2
 362 1125 l 2
 315 1102 309 1101 268 1131 c 2
 238 1152 l 2
 198 1181 200 1180 238 1211 c 2
 590 1499 l 2
 626 1529 639 1540 710 1540 c 2
 772 1540 l 2
 838 1540 852 1538 880 1502 c 2
 1107 1210 l 2
 1130 1180 1131 1180 1100 1158 c 2
 1058 1128 l 2
 1022 1101 1019 1101 982 1127 c 2
 784 1269 l 2
 737 1303 730 1306 676 1279 c 2
EndSplineSet
EndChar

StartChar: grave
Encoding: 96 96 101
GlifName: grave
Width: 790
Flags: MW
Fore
SplineSet
440 1340 m 2
 343 1333 250 1412 250 1510 c 0
 250 1608 359 1724 460 1676 c 2
 823 1505 l 2
 854 1490 853 1475 852 1431 c 0
 850 1380 852 1370 805 1367 c 2
 440 1340 l 2
EndSplineSet
EndChar

StartChar: exclamdown
Encoding: 161 161 103
GlifName: exclamdown
Width: 765
Flags: MW
Fore
SplineSet
672 840 m 0
 672 708 564 600 432 600 c 0
 300 600 192 708 192 840 c 0
 192 972 300 1080 432 1080 c 0
 564 1080 672 972 672 840 c 0
-78 -156 m 0
 43 167 200 215 279 478 c 0
 288 508 298 510 338 510 c 2
 384 510 l 2
 432 510 449 508 441 470 c 0
 389 207 501 87 432 -258 c 0
 404 -398 296 -478 156 -478 c 0
 -8 -478 -100 -376 -100 -274 c 0
 -100 -238 -90 -187 -78 -156 c 0
EndSplineSet
EndChar

StartChar: cent
Encoding: 162 162 104
GlifName: cent
Width: 1096
VWidth: 2310
Flags: MW
Fore
SplineSet
895 1230 m 2
 995 1230 l 2
 1016 1230 1023 1224 1016 1205 c 2
 533 -146 l 2
 527 -163 522 -170 503 -170 c 2
 409 -170 l 2
 387 -170 379 -163 385 -147 c 2
 868 1216 l 2
 872 1228 880 1230 895 1230 c 2
EndSplineSet
Refer: 40 99 N 1 0 0 1 0 0 2
EndChar

StartChar: sterling
Encoding: 163 163 105
GlifName: sterling
Width: 1415
VWidth: 2310
Flags: MW
Fore
SplineSet
-55 15 m 0
 5 259 292 403 319 522 c 0
 328 563 321 560 281 560 c 2
 49 560 l 2
 11 560 -3 549 -3 591 c 2
 -3 747 l 2
 -3 787 17 790 54 790 c 2
 204 790 l 2
 295 790 266 804 246 851 c 0
 213 925 188 1003 210 1100 c 0
 275 1380 584 1550 986 1550 c 0
 1350 1550 1441 1346 1429 1162 c 0
 1419 1002 1300 910 1162 910 c 0
 1028 910 929 992 960 1126 c 0
 981 1218 1062 1248 1073 1294 c 0
 1085 1348 1032 1366 944 1366 c 0
 786 1366 711 1268 677 1120 c 0
 654 1019 673 935 694 857 c 0
 708 805 702 790 782 790 c 2
 958 790 l 2
 1015 790 1017 785 1017 729 c 2
 1017 635 l 2
 1017 566 1005 560 933 560 c 2
 755 560 l 2
 692 560 693 557 664 515 c 0
 586 400 448 350 324 271 c 0
 270 237 238 202 247 193 c 0
 260 180 389 276 472 320 c 0
 577 376 664 414 750 414 c 0
 870 414 870 326 962 326 c 0
 1012 326 1067 351 1102 407 c 0
 1127 448 1114 474 1175 474 c 2
 1267 474 l 2
 1317 474 1299 449 1286 405 c 0
 1208 143 1033 -80 796 -80 c 0
 562 -80 522 50 376 50 c 0
 310 50 190 30 127 -8 c 0
 98 -26 104 -40 64 -40 c 2
 -48 -40 l 2
 -75 -40 -60 -7 -55 15 c 0
EndSplineSet
EndChar

StartChar: currency
Encoding: 164 164 106
GlifName: currency
Width: 1140
Flags: MW
Fore
SplineSet
8 238 m 1
 -63 331 l 1
 131 489 l 1
 81 573 85 653 112 770 c 256
 139 887 183 967 261 1051 c 1
 139 1209 l 1
 254 1302 l 1
 375 1144 l 1
 459 1196 547 1229 677 1229 c 256
 807 1229 878 1196 939 1145 c 1
 1132 1302 l 1
 1203 1209 l 1
 1009 1051 l 1
 1049 967 1055 887 1028 770 c 0
 1001 654 959 573 880 488 c 1
 1001 331 l 1
 886 238 l 1
 765 395 l 1
 681 344 594 310 465 310 c 256
 335 310 261 344 201 395 c 1
 8 238 l 1
502 473 m 0
 685 473 817 591 858 770 c 256
 899 949 822 1067 640 1067 c 0
 457 1067 323 949 282 770 c 256
 241 591 320 473 502 473 c 0
EndSplineSet
EndChar

StartChar: yen
Encoding: 165 165 107
GlifName: yen
Width: 1570
Flags: MW
Fore
SplineSet
316 582 m 2
 1357 582 l 2
 1395 582 1400 578 1400 554 c 2
 1400 385 l 2
 1400 361 1396 352 1353 352 c 2
 313 352 l 2
 271 352 270 356 270 382 c 2
 270 554 l 2
 270 577 281 582 316 582 c 2
378 922 m 2
 1417 922 l 2
 1455 922 1460 918 1460 894 c 2
 1460 725 l 2
 1460 701 1457 692 1414 692 c 2
 375 692 l 2
 334 692 332 696 332 722 c 2
 332 894 l 2
 332 917 343 922 378 922 c 2
EndSplineSet
Refer: 36 89 N 1 0 0 1 0 0 2
EndChar

StartChar: brokenbar
Encoding: 166 166 108
GlifName: brokenbar
Width: 600
VWidth: 2310
Flags: MW
Fore
SplineSet
74 332 m 1
 294 332 l 1
 100 -500 l 1
 -120 -500 l 1
 74 332 l 1
360 1560 m 1
 580 1560 l 1
 406 818 l 1
 186 818 l 1
 360 1560 l 1
EndSplineSet
EndChar

StartChar: section
Encoding: 167 167 109
GlifName: section
Width: 1188
VWidth: 2310
Flags: MW
Fore
SplineSet
885 1316 m 0
 897 1368 837 1388 733 1388 c 0
 627 1388 587 1342 570 1268 c 0
 516 1036 1211 1076 1136 750 c 0
 1116 661 1033 581 932 514 c 1
 1007 463 1053 393 1028 284 c 0
 971 36 594 -40 404 -40 c 0
 188 -40 -154 4 -96 256 c 0
 -60 412 85 478 163 478 c 0
 257 478 336 386 314 292 c 0
 297 220 232 210 221 164 c 0
 209 112 313 112 417 112 c 0
 543 112 598 138 620 232 c 0
 674 464 -21 424 54 750 c 0
 78 856 183 913 286 965 c 1
 195 1018 133 1091 162 1216 c 0
 210 1424 556 1540 746 1540 c 0
 1002 1540 1275 1456 1221 1224 c 0
 1190 1088 1047 1032 969 1032 c 0
 895 1032 789 1094 811 1188 c 0
 828 1260 874 1270 885 1316 c 0
484 880 m 1
 475 865 469 849 465 834 c 0
 439 722 555 671 688 622 c 1
 696 637 702 651 705 666 c 0
 731 780 616 830 484 880 c 1
EndSplineSet
EndChar

StartChar: gravecomb
Encoding: 768 768 110
GlifName: gravecomb
Width: 0
Flags: MW
AnchorPoint: "Anchor-0" 777 1500 mark 0
Fore
SplineSet
432 2060 m 256
 497 2140 646 2150 714 2066 c 2
 948 1777 l 2
 961 1764 962 1755 949 1741 c 2
 835 1625 l 2
 824 1613 820 1610 805 1619 c 2
 469 1797 l 2
 355 1857 352 1961 432 2060 c 256
EndSplineSet
EndChar

StartChar: acutecomb
Encoding: 769 769 111
GlifName: acutecomb
Width: 0
Flags: MW
AnchorPoint: "Anchor-0" 635 1500 mark 0
Fore
SplineSet
1054 2060 m 256
 1134 1961 1120 1851 1017 1797 c 2
 681 1619 l 2
 666 1610 661 1613 650 1625 c 2
 537 1741 l 2
 524 1755 525 1764 538 1777 c 2
 772 2066 l 2
 843 2154 989 2140 1054 2060 c 256
EndSplineSet
EndChar

StartChar: uni0302
Encoding: 770 770 112
GlifName: uni0302
Width: 0
Flags: MW
AnchorPoint: "Anchor-0" 705 1500 mark 0
Fore
SplineSet
501 1640 m 2
 428 1710 l 2
 414 1724 417 1727 433 1744 c 2
 680 2002 l 2
 695 2018 708 2019 737 2019 c 2
 922 2019 l 2
 948 2019 957 2016 964 2002 c 2
 1091 1745 l 2
 1097 1734 1093 1723 1081 1710 c 2
 1010 1636 l 2
 993 1619 991 1623 977 1635 c 2
 816 1780 l 2
 801 1793 787 1794 766 1781 c 2
 535 1634 l 2
 517 1623 512 1629 501 1640 c 2
EndSplineSet
EndChar

StartChar: tildecomb
Encoding: 771 771 113
GlifName: tildecomb
Width: 0
Flags: MW
AnchorPoint: "Anchor-0" 702 1500 mark 0
Fore
SplineSet
902 1630 m 0
 818 1630 773 1668 730 1699 c 0
 685 1732 658 1748 618 1748 c 0
 577 1748 548 1727 532 1714 c 0
 521 1705 511 1700 498 1700 c 2
 376 1700 l 2
 353 1700 355 1710 362 1730 c 0
 403 1857 543 2004 667 2004 c 0
 751 2004 784 1967 826 1935 c 0
 868 1903 915 1886 948 1886 c 0
 981 1886 1005 1891 1025 1912 c 0
 1037 1925 1038 1934 1057 1934 c 2
 1185 1934 l 2
 1203 1934 1204 1928 1199 1912 c 0
 1160 1764 1039 1630 902 1630 c 0
EndSplineSet
EndChar

StartChar: uni0304
Encoding: 772 772 114
GlifName: uni0304
Width: 0
Flags: MW
AnchorPoint: "Anchor-0" 736 1500 mark 0
Fore
SplineSet
520 1662 m 2
 520 1795 l 2
 520 1814 522 1822 540 1822 c 2
 966 1822 l 2
 991 1822 1000 1818 1000 1791 c 2
 1000 1660 l 2
 1000 1639 999 1630 978 1630 c 2
 555 1630 l 2
 529 1630 520 1634 520 1662 c 2
EndSplineSet
EndChar

StartChar: uni0306
Encoding: 774 774 115
GlifName: uni0306
Width: 0
Flags: MW
AnchorPoint: "Anchor-0" 705 1500 mark 0
Fore
SplineSet
724 1580 m 0
 522 1580 478 1705 524 1919 c 0
 528 1936 534 1938 551 1938 c 2
 665 1938 l 2
 679 1938 681 1935 680 1922 c 0
 678 1882 682 1840 779 1840 c 0
 871 1840 895 1878 914 1909 c 0
 925 1927 926 1938 950 1938 c 2
 1067 1938 l 2
 1088 1938 1088 1934 1082 1914 c 0
 1029 1704 923 1580 724 1580 c 0
EndSplineSet
EndChar

StartChar: uni0307
Encoding: 775 775 116
GlifName: uni0307
Width: 0
Flags: MW
AnchorPoint: "Anchor-0" 572 920 mark 0
Fore
SplineSet
699 1269 m 0
 593 1269 507 1355 507 1461 c 0
 507 1567 593 1653 699 1653 c 0
 805 1653 891 1567 891 1461 c 0
 891 1355 805 1269 699 1269 c 0
EndSplineSet
EndChar

StartChar: uni0308
Encoding: 776 776 117
GlifName: uni0308
Width: 0
Flags: MW
AnchorPoint: "Anchor-0" 707 1500 mark 0
Fore
SplineSet
1074 1690 m 0
 968 1690 882 1776 882 1882 c 0
 882 1988 968 2074 1074 2074 c 0
 1180 2074 1266 1988 1266 1882 c 0
 1266 1776 1180 1690 1074 1690 c 0
514 1690 m 0
 408 1690 322 1776 322 1882 c 0
 322 1988 408 2074 514 2074 c 0
 620 2074 706 1988 706 1882 c 0
 706 1776 620 1690 514 1690 c 0
EndSplineSet
EndChar

StartChar: uni030A
Encoding: 778 778 118
GlifName: uni030A_
Width: 0
Flags: MW
AnchorPoint: "Anchor-0" 706 1500 mark 0
Fore
SplineSet
776 1804 m 0
 826 1804 869 1847 879 1891 c 0
 891 1944 869 1987 819 1987 c 0
 769 1987 728 1944 716 1891 c 0
 706 1847 726 1804 776 1804 c 0
759 1640 m 0
 588 1640 517 1758 547 1889 c 0
 577 2020 693 2140 834 2140 c 0
 1006 2140 1076 2021 1046 1889 c 0
 1016 1758 900 1640 759 1640 c 0
EndSplineSet
EndChar

StartChar: uni030B
Encoding: 779 779 119
GlifName: uni030B_
Width: 0
Flags: MW
AnchorPoint: "Anchor-0" 600 1500 mark 0
Fore
SplineSet
1054 1697 m 2
 919 1787 l 2
 903 1798 902 1807 912 1822 c 2
 1081 2154 l 2
 1122 2234 1269 2288 1368 2201 c 256
 1485 2099 1454 2006 1376 1941 c 2
 1084 1698 l 2
 1071 1686 1068 1687 1054 1697 c 2
424 1697 m 2
 289 1787 l 2
 273 1798 272 1807 282 1822 c 2
 451 2154 l 2
 492 2234 652 2296 748 2206 c 256
 857 2105 824 2006 746 1941 c 2
 454 1698 l 2
 441 1686 438 1687 424 1697 c 2
EndSplineSet
EndChar

StartChar: uni030C
Encoding: 780 780 120
GlifName: uni030C_
Width: 0
Flags: MW
AnchorPoint: "Anchor-0" 705 1500 mark 0
Fore
SplineSet
601 1657 m 2
 469 1919 l 2
 464 1930 470 1938 484 1949 c 2
 570 2023 l 2
 587 2038 588 2036 602 2024 c 2
 764 1879 l 2
 779 1866 793 1865 814 1878 c 2
 1045 2025 l 2
 1063 2036 1069 2032 1079 2019 c 2
 1137 1949 l 2
 1149 1934 1148 1932 1132 1915 c 2
 885 1657 l 2
 870 1641 857 1640 828 1640 c 2
 643 1640 l 2
 617 1640 608 1643 601 1657 c 2
EndSplineSet
EndChar

StartChar: uni0311
Encoding: 785 785 121
GlifName: uni0311
Width: 0
Flags: MW
AnchorPoint: "Anchor-0" 705 1500 mark 0
Fore
SplineSet
826 2008 m 0
 1028 2008 1071 1883 1025 1669 c 0
 1021 1652 1015 1650 998 1650 c 2
 874 1650 l 2
 860 1650 859 1653 860 1666 c 0
 862 1706 858 1748 761 1748 c 0
 669 1748 645 1710 626 1679 c 0
 615 1661 613 1650 589 1650 c 2
 482 1650 l 2
 461 1650 461 1654 467 1674 c 0
 520 1884 627 2008 826 2008 c 0
EndSplineSet
EndChar

StartChar: uni0312
Encoding: 786 786 122
GlifName: uni0312
Width: 0
Flags: MW
AnchorPoint: "Anchor-0" 569 920 mark 0
Fore
SplineSet
871 1279 m 0
 871 1164 776 1092 667 1092 c 0
 557 1092 445 1158 445 1339 c 0
 445 1548 693 1656 883 1666 c 0
 911 1667 914 1666 914 1638 c 2
 914 1553 l 2
 914 1534 907 1539 890 1538 c 0
 797 1531 657 1499 603 1437 c 0
 577 1407 599 1402 623 1416 c 0
 648 1431 679 1441 720 1441 c 0
 813 1441 871 1380 871 1279 c 0
EndSplineSet
EndChar

StartChar: dotbelowcomb
Encoding: 803 803 123
GlifName: dotbelowcomb
Width: 0
Flags: MW
AnchorPoint: "Anchor-1" 360 0 mark 0
AnchorPoint: "Anchor-2" 360 0 mark 0
Fore
SplineSet
281 -553 m 0
 175 -553 89 -467 89 -361 c 0
 89 -255 175 -169 281 -169 c 0
 387 -169 473 -255 473 -361 c 0
 473 -467 387 -553 281 -553 c 0
EndSplineSet
EndChar

StartChar: uni0326
Encoding: 806 806 124
GlifName: uni0326
Width: 0
Flags: MW
AnchorPoint: "Anchor-1" 356 0 mark 0
AnchorPoint: "Anchor-2" 356 0 mark 0
Fore
SplineSet
51 -371 m 0
 51 -256 146 -184 255 -184 c 0
 365 -184 477 -250 477 -431 c 0
 477 -640 229 -748 39 -758 c 0
 11 -759 8 -758 8 -730 c 2
 8 -645 l 2
 8 -626 15 -631 32 -630 c 0
 125 -623 265 -591 319 -529 c 0
 345 -499 323 -494 299 -508 c 0
 274 -523 243 -533 202 -533 c 0
 109 -533 51 -472 51 -371 c 0
EndSplineSet
EndChar

StartChar: uni0327
Encoding: 807 807 125
GlifName: uni0327
Width: 0
Flags: MW
AnchorPoint: "Anchor-1" 388 0 mark 0
AnchorPoint: "Anchor-2" 388 0 mark 0
Fore
SplineSet
57 -520 m 2
 57 -423 l 2
 62 -401 75 -397 95 -396 c 0
 177 -390 311 -386 323 -336 c 0
 337 -276 203 -267 115 -259 c 0
 77 -255 78 -248 95 -230 c 2
 309 2 l 2
 317 11 322 12 338 12 c 2
 436 12 l 2
 466 12 473 8 459 -8 c 2
 392 -86 l 2
 370 -109 368 -117 403 -120 c 0
 530 -130 597 -198 571 -310 c 0
 519 -535 242 -545 85 -549 c 0
 64 -550 57 -542 57 -520 c 2
EndSplineSet
EndChar

StartChar: uni0328
Encoding: 808 808 126
GlifName: uni0328
Width: 0
Flags: MW
AnchorPoint: "Anchor-2" 382 47 mark 0
AnchorPoint: "Anchor-3" 382 47 mark 0
Fore
SplineSet
227 -422 m 0
 64 -422 -24 -368 -17 -250 c 0
 -7 -78 262 28 386 100 c 0
 411 115 451 88 459 80 c 0
 491 49 509 44 489 26 c 0
 431 -26 304 -89 285 -170 c 0
 273 -221 305 -235 355 -235 c 0
 404 -235 435 -216 460 -194 c 0
 475 -181 483 -179 491 -187 c 2
 543 -237 l 2
 554 -246 552 -250 541 -265 c 0
 484 -338 394 -422 227 -422 c 0
EndSplineSet
EndChar

StartChar: breve
Encoding: 728 728 127
GlifName: breve
Width: 1000
Flags: MW
AnchorPoint: "Anchor-0" 689 1500 mark 0
Fore
SplineSet
724 1620 m 0
 522 1620 478 1745 524 1959 c 0
 528 1976 534 1978 551 1978 c 2
 665 1978 l 2
 679 1978 681 1975 680 1962 c 0
 678 1922 682 1880 779 1880 c 0
 871 1880 895 1918 914 1949 c 0
 925 1967 926 1978 950 1978 c 2
 1067 1978 l 2
 1088 1978 1088 1974 1082 1954 c 0
 1029 1744 923 1620 724 1620 c 0
EndSplineSet
EndChar

StartChar: dotaccent
Encoding: 729 729 128
GlifName: dotaccent
Width: 1000
Flags: MW
AnchorPoint: "Anchor-0" 617 1040 mark 0
Fore
SplineSet
699 1269 m 0
 593 1269 507 1355 507 1461 c 0
 507 1567 593 1653 699 1653 c 0
 805 1653 891 1567 891 1461 c 0
 891 1355 805 1269 699 1269 c 0
EndSplineSet
EndChar

StartChar: ring
Encoding: 730 730 129
GlifName: ring
Width: 1000
Flags: MW
AnchorPoint: "Anchor-0" 710 1500 mark 0
Fore
SplineSet
776 1804 m 0
 826 1804 869 1847 879 1891 c 0
 891 1944 869 1987 819 1987 c 0
 769 1987 728 1944 716 1891 c 0
 706 1847 726 1804 776 1804 c 0
759 1640 m 0
 588 1640 517 1758 547 1889 c 0
 577 2020 693 2140 834 2140 c 0
 1006 2140 1076 2021 1046 1889 c 0
 1016 1758 900 1640 759 1640 c 0
EndSplineSet
EndChar

StartChar: ogonek
Encoding: 731 731 130
GlifName: ogonek
Width: 1000
Flags: MW
AnchorPoint: "Anchor-2" 421 27 mark 0
AnchorPoint: "Anchor-3" 421 27 mark 0
Fore
SplineSet
227 -422 m 0
 64 -422 -24 -368 -17 -250 c 0
 -7 -78 262 28 386 100 c 0
 411 115 451 88 459 80 c 0
 491 49 509 44 489 26 c 0
 431 -26 304 -89 285 -170 c 0
 273 -221 305 -235 355 -235 c 0
 404 -235 435 -216 460 -194 c 0
 475 -181 483 -179 491 -187 c 2
 543 -237 l 2
 554 -246 552 -250 541 -265 c 0
 484 -338 394 -422 227 -422 c 0
EndSplineSet
EndChar

StartChar: tilde
Encoding: 732 732 131
GlifName: tilde
Width: 1000
Flags: MW
AnchorPoint: "Anchor-0" 676 1500 mark 0
Fore
SplineSet
902 1630 m 0
 818 1630 773 1668 730 1699 c 0
 685 1732 658 1748 618 1748 c 0
 577 1748 548 1727 532 1714 c 0
 521 1705 511 1700 498 1700 c 2
 376 1700 l 2
 353 1700 355 1710 362 1730 c 0
 403 1857 543 2004 667 2004 c 0
 751 2004 784 1967 826 1935 c 0
 868 1903 915 1886 948 1886 c 0
 981 1886 1005 1891 1025 1912 c 0
 1037 1925 1038 1934 1057 1934 c 2
 1185 1934 l 2
 1203 1934 1204 1928 1199 1912 c 0
 1160 1764 1039 1630 902 1630 c 0
EndSplineSet
EndChar

StartChar: hungarumlaut
Encoding: 733 733 132
GlifName: hungarumlaut
Width: 1000
Flags: MW
AnchorPoint: "Anchor-0" 674 1500 mark 0
Fore
SplineSet
1054 1697 m 2
 919 1787 l 2
 903 1798 902 1807 912 1822 c 2
 1081 2154 l 2
 1122 2234 1269 2288 1368 2201 c 256
 1485 2099 1454 2006 1376 1941 c 2
 1084 1698 l 2
 1071 1686 1068 1687 1054 1697 c 2
424 1697 m 2
 289 1787 l 2
 273 1798 272 1807 282 1822 c 2
 451 2154 l 2
 492 2234 652 2296 748 2206 c 256
 857 2105 824 2006 746 1941 c 2
 454 1698 l 2
 441 1686 438 1687 424 1697 c 2
EndSplineSet
EndChar

StartChar: dieresis
Encoding: 168 168 133
GlifName: dieresis
Width: 1000
Flags: MW
AnchorPoint: "Anchor-0" 741 1500 mark 0
Fore
SplineSet
1074 1690 m 0
 968 1690 882 1776 882 1882 c 0
 882 1988 968 2074 1074 2074 c 0
 1180 2074 1266 1988 1266 1882 c 0
 1266 1776 1180 1690 1074 1690 c 0
514 1690 m 0
 408 1690 322 1776 322 1882 c 0
 322 1988 408 2074 514 2074 c 0
 620 2074 706 1988 706 1882 c 0
 706 1776 620 1690 514 1690 c 0
EndSplineSet
EndChar

StartChar: ordfeminine
Encoding: 170 170 134
GlifName: ordfeminine
Width: 907
VWidth: 2310
Flags: MW
Fore
SplineSet
571 1348 m 0
 571 1414 558 1474 524 1474 c 0
 448 1474 369 1329 369 1180 c 0
 369 1103 386 1077 422 1077 c 0
 471 1077 571 1187 571 1348 c 0
974 1128 m 0
 910 1007 808 934 676 934 c 0
 614 934 568 959 538 993 c 0
 531 1001 526 1007 521 1011 c 0
 508 1022 500 1018 478 1001 c 0
 432 965 376 940 305 940 c 0
 186 940 75 988 75 1168 c 0
 75 1432 258 1611 425 1611 c 0
 510 1611 561 1582 593 1526 c 0
 603 1509 611 1501 619 1536 c 2
 626 1569 l 2
 629 1583 633 1588 658 1588 c 2
 861 1588 l 2
 892 1588 891 1582 885 1560 c 2
 773 1145 l 2
 771 1138 770 1127 770 1121 c 0
 770 1108 775 1104 787 1104 c 0
 811 1104 838 1130 868 1187 c 0
 882 1215 888 1214 911 1203 c 2
 961 1181 l 2
 990 1167 991 1161 974 1128 c 0
EndSplineSet
EndChar

StartChar: cedilla
Encoding: 184 184 135
GlifName: cedilla
Width: 1000
Flags: MW
AnchorPoint: "Anchor-1" 388 0 mark 0
AnchorPoint: "Anchor-2" 388 0 mark 0
Fore
SplineSet
57 -520 m 2
 57 -423 l 2
 62 -401 75 -397 95 -396 c 0
 177 -390 311 -386 323 -336 c 0
 337 -276 203 -267 115 -259 c 0
 77 -255 78 -248 95 -230 c 2
 309 2 l 2
 317 11 322 12 338 12 c 2
 436 12 l 2
 466 12 473 8 459 -8 c 2
 392 -86 l 2
 370 -109 368 -117 403 -120 c 0
 530 -130 597 -198 571 -310 c 0
 519 -535 242 -545 85 -549 c 0
 64 -550 57 -542 57 -520 c 2
EndSplineSet
EndChar

StartChar: uni00B9
Encoding: 185 185 136
GlifName: uni00B_9
Width: 740
VWidth: 2310
Flags: MW
Fore
SplineSet
-8 951 m 2
 -8 1012 l 2
 -8 1037 -2 1038 24 1038 c 2
 175 1038 l 2
 204 1038 208 1043 214 1070 c 2
 328 1556 l 2
 328 1580 323 1584 300 1584 c 2
 177 1584 l 2
 157 1584 150 1585 150 1607 c 2
 150 1679 l 2
 150 1711 170 1710 198 1711 c 0
 308 1713 427 1728 495 1833 c 0
 507 1851 521 1860 552 1860 c 2
 591 1860 l 2
 617 1860 627 1855 622 1832 c 2
 448 1072 l 2
 441 1041 454 1038 487 1038 c 2
 620 1038 l 2
 640 1038 652 1036 652 1014 c 2
 652 947 l 2
 652 918 650 912 621 912 c 2
 31 912 l 2
 -4 912 -8 915 -8 951 c 2
EndSplineSet
EndChar

StartChar: ordmasculine
Encoding: 186 186 137
GlifName: ordmasculine
Width: 798
VWidth: 2310
Flags: MW
Fore
SplineSet
22 1202 m 0
 22 1430 212 1610 489 1610 c 0
 670 1610 788 1526 788 1346 c 0
 788 1118 598 938 321 938 c 0
 140 938 22 1022 22 1202 c 0
292 1166 m 0
 292 1089 310 1070 345 1070 c 0
 428 1070 518 1221 518 1382 c 0
 518 1459 500 1478 465 1478 c 0
 382 1478 292 1327 292 1166 c 0
EndSplineSet
EndChar

StartChar: paragraph
Encoding: 182 182 138
GlifName: paragraph
Width: 1632
Flags: MW
Fore
SplineSet
1003 -44 m 2
 1303 1258 l 2
 1309 1286 1301 1287 1272 1287 c 2
 1228 1287 l 2
 1190 1287 1184 1281 1175 1242 c 2
 880 -36 l 2
 872 -69 868 -87 905 -87 c 2
 941 -87 l 2
 983 -87 993 -86 1003 -44 c 2
214 989 m 0
 294 1336 614 1500 872 1500 c 2
 1673 1500 l 2
 1701 1500 1714 1496 1714 1466 c 2
 1714 1328 l 2
 1714 1289 1695 1287 1656 1287 c 2
 1566 1287 l 2
 1524 1287 1521 1278 1511 1236 c 2
 1219 -32 l 2
 1211 -66 1209 -87 1247 -87 c 2
 1345 -87 l 2
 1371 -87 1380 -88 1380 -114 c 2
 1380 -259 l 2
 1380 -293 1365 -300 1332 -300 c 2
 349 -300 l 2
 323 -300 311 -299 311 -270 c 2
 311 -146 l 2
 311 -97 326 -87 375 -87 c 2
 613 -87 l 2
 645 -87 656 -86 663 -54 c 2
 777 440 l 2
 785 475 777 479 744 479 c 2
 637 479 l 2
 380 479 134 642 214 989 c 0
EndSplineSet
EndChar

StartChar: onequarter
Encoding: 188 188 140
GlifName: onequarter
Width: 2000
Flags: MW
Fore
SplineSet
1522 1440 m 1
 1650 1440 l 1
 728 -60 l 1
 590 -60 l 1
 1522 1440 l 1
EndSplineSet
Refer: 6 52 N 0.6 0 0 0.6 1070 4 2
Refer: 3 49 N 0.6 0 0 0.6 214 632 2
EndChar

StartChar: onehalf
Encoding: 189 189 141
GlifName: onehalf
Width: 2000
Flags: MW
Fore
SplineSet
1492 1450 m 1
 1620 1450 l 1
 698 -50 l 1
 560 -50 l 1
 1492 1450 l 1
EndSplineSet
Refer: 4 50 N 0.6 0 0 0.6 1152 -16 2
Refer: 3 49 N 0.6 0 0 0.6 214 622 2
EndChar

StartChar: threequarters
Encoding: 190 190 142
GlifName: threequarters
Width: 2000
Flags: MW
Fore
SplineSet
1432 1400 m 1
 1560 1400 l 1
 638 -100 l 1
 500 -100 l 1
 1432 1400 l 1
EndSplineSet
Refer: 6 52 N 0.6 0 0 0.6 1070 -36 2
Refer: 5 51 N 0.6 0 0 0.6 130 614 2
EndChar

StartChar: questiondown
Encoding: 191 191 143
GlifName: questiondown
Width: 1220
Flags: MW
Fore
SplineSet
468 546 m 0
 541 564 602 568 633 568 c 0
 754 568 905 504 905 360 c 0
 905 44 337 175 337 -160 c 0
 337 -268 395 -326 493 -326 c 0
 561 -326 617 -310 617 -286 c 0
 617 -246 535 -242 535 -100 c 0
 535 24 681 100 791 100 c 0
 901 100 1045 14 1045 -122 c 0
 1045 -326 797 -500 433 -500 c 0
 91 -500 -85 -360 -85 -140 c 0
 -85 314 664 257 664 339 c 0
 664 362 642 374 595 374 c 0
 573 374 520 370 467 352 c 0
 429 339 425 326 420 379 c 2
 409 485 l 2
 403 539 425 535 468 546 c 0
927 840 m 0
 927 708 819 600 687 600 c 0
 555 600 447 708 447 840 c 0
 447 972 555 1080 687 1080 c 0
 819 1080 927 972 927 840 c 0
EndSplineSet
EndChar

StartChar: degree
Encoding: 176 176 144
GlifName: degree
Width: 639
Flags: MW
Fore
SplineSet
403 1359 m 0
 391 1306 420 1270 473 1270 c 0
 527 1270 572 1306 584 1359 c 0
 596 1413 569 1450 515 1450 c 0
 462 1450 415 1413 403 1359 c 0
254 1359 m 0
 285 1495 413 1600 549 1600 c 0
 686 1600 767 1496 735 1359 c 0
 704 1223 575 1120 439 1120 c 0
 303 1120 223 1223 254 1359 c 0
EndSplineSet
EndChar

StartChar: plusminus
Encoding: 177 177 145
GlifName: plusminus
Width: 1059
Flags: MW
Fore
SplineSet
366 361 m 1
 437 666 l 1
 134 666 l 1
 183 878 l 1
 486 878 l 1
 555 1180 l 1
 768 1180 l 1
 699 878 l 1
 1002 878 l 1
 953 666 l 1
 650 666 l 1
 579 361 l 1
 366 361 l 1
-22 -15 m 1
 26 197 l 1
 845 197 l 1
 797 -15 l 1
 -22 -15 l 1
EndSplineSet
EndChar

StartChar: acute
Encoding: 180 180 146
GlifName: acute
Width: 790
Flags: MW
Fore
SplineSet
735 1340 m 2
 351 1373 l 2
 289 1378 265 1377 261 1432 c 0
 255 1509 284 1512 348 1536 c 2
 715 1676 l 2
 831 1720 925 1628 925 1510 c 0
 925 1392 840 1331 735 1340 c 2
EndSplineSet
EndChar

StartChar: uni00B2
Encoding: 178 178 147
GlifName: uni00B_2
Width: 859
VWidth: 2310
Flags: MW
Fore
SplineSet
807 1220 m 0
 770 1029 633 902 472 902 c 0
 332 902 266 974 178 974 c 0
 144 974 122 958 108 934 c 0
 98 918 102 914 75 914 c 2
 -10 914 l 2
 -33 914 -37 916 -37 939 c 0
 -36 1076 111 1267 288 1363 c 0
 425 1437 606 1527 606 1634 c 0
 606 1693 569 1722 480 1722 c 0
 403 1722 305 1692 305 1666 c 0
 305 1644 402 1651 402 1548 c 0
 402 1468 339 1424 271 1424 c 0
 200 1424 131 1469 131 1563 c 0
 131 1727 346 1826 558 1826 c 0
 739 1826 860 1784 860 1628 c 0
 860 1460 613 1389 432 1310 c 0
 331 1266 249 1215 211 1179 c 0
 180 1149 139 1099 152 1095 c 0
 172 1089 178 1127 227 1162 c 0
 259 1184 318 1195 358 1195 c 0
 460 1195 478 1143 569 1143 c 0
 633 1143 682 1173 690 1220 c 0
 694 1245 690 1246 719 1246 c 2
 783 1246 l 2
 809 1246 812 1245 807 1220 c 0
EndSplineSet
EndChar

StartChar: uni00B3
Encoding: 179 179 148
GlifName: uni00B_3
Width: 776
VWidth: 2310
Flags: MW
Fore
SplineSet
10 1123 m 0
 10 1205 64 1268 153 1268 c 0
 233 1268 275 1224 275 1168 c 0
 275 1089 200 1090 200 1062 c 0
 200 1030 258 1012 305 1012 c 0
 394 1012 477 1071 477 1196 c 0
 477 1278 436 1307 356 1316 c 0
 333 1319 324 1312 324 1338 c 2
 324 1417 l 2
 324 1440 330 1435 350 1437 c 0
 460 1445 549 1547 549 1635 c 0
 549 1700 490 1722 413 1722 c 0
 378 1722 339 1712 339 1692 c 0
 339 1664 419 1670 419 1585 c 0
 419 1535 371 1485 297 1485 c 0
 226 1485 154 1530 154 1618 c 0
 154 1734 303 1826 491 1826 c 0
 690 1826 790 1755 790 1641 c 0
 790 1507 661 1435 528 1393 c 0
 502 1385 484 1387 484 1379 c 0
 484 1369 495 1373 528 1365 c 0
 671 1327 712 1287 712 1190 c 0
 712 1010 492 902 311 902 c 0
 117 902 10 1007 10 1123 c 0
EndSplineSet
EndChar

StartChar: mu
Encoding: 181 181 149
GlifName: mu
Width: 1545
Flags: MW
Fore
SplineSet
632 847 m 1
 332 -82 l 2
 252 -330 506 -383 524 -375 c 0
 533 -371 471 -346 471 -252 c 0
 471 -157 559 -86 694 -86 c 0
 844 -86 917 -158 917 -280 c 0
 917 -401 810 -520 550 -520 c 0
 268 -520 33 -351 120 -82 c 2
 420 847 l 1
 632 847 l 1
EndSplineSet
Refer: 58 117 N 1 0 0 1 0 0 2
EndChar

StartChar: guillemotleft
Encoding: 171 171 150
GlifName: guillemotleft
Width: 1390
Flags: MW
Fore
SplineSet
1041 775 m 1
 1298 380 l 1
 1192 270 l 1
 623 750 l 1
 635 800 l 1
 1426 1280 l 1
 1480 1170 l 1
 1041 775 l 1
481 775 m 1
 738 380 l 1
 632 270 l 1
 63 750 l 1
 75 800 l 1
 866 1280 l 1
 920 1170 l 1
 481 775 l 1
EndSplineSet
EndChar

StartChar: guillemotright
Encoding: 187 187 151
GlifName: guillemotright
Width: 1390
Flags: MW
Fore
SplineSet
427 775 m 1
 170 1170 l 1
 276 1280 l 1
 845 800 l 1
 833 750 l 1
 42 270 l 1
 -12 380 l 1
 427 775 l 1
987 775 m 1
 730 1170 l 1
 836 1280 l 1
 1405 800 l 1
 1393 750 l 1
 602 270 l 1
 548 380 l 1
 987 775 l 1
EndSplineSet
EndChar

StartChar: logicalnot
Encoding: 172 172 152
GlifName: logicalnot
Width: 1051
Flags: MW
Fore
SplineSet
693 406 m 1
 753 666 l 1
 134 666 l 1
 183 880 l 1
 995 880 l 1
 886 406 l 1
 693 406 l 1
EndSplineSet
EndChar

StartChar: uni00AD
Encoding: 173 173 153
GlifName: uni00A_D_
Width: 920
Flags: MW
Fore
SplineSet
219 890 m 2
 831 890 l 2
 862 890 863 883 856 851 c 2
 822 701 l 2
 814 666 811 660 776 660 c 2
 174 660 l 2
 138 660 134 665 142 700 c 2
 176 849 l 2
 183 881 187 890 219 890 c 2
EndSplineSet
EndChar

StartChar: copyright
Encoding: 169 169 154
GlifName: copyright
Width: 1739
Flags: MW
Fore
SplineSet
747 73 m 0
 1130 73 1486 349 1579 750 c 0
 1672 1151 1440 1427 1059 1427 c 0
 676 1427 320 1151 227 750 c 0
 134 347 366 73 747 73 c 0
1081 1520 m 0
 1525 1520 1776 1192 1674 750 c 0
 1571 306 1167 -20 725 -20 c 0
 281 -20 31 308 133 750 c 0
 235 1193 639 1520 1081 1520 c 0
EndSplineSet
Refer: 14 67 N 0.6 0 0 0.6 344 290 2
EndChar

StartChar: registered
Encoding: 174 174 155
GlifName: registered
Width: 1739
Flags: MW
Fore
SplineSet
747 73 m 0
 1130 73 1486 349 1579 750 c 0
 1672 1151 1440 1427 1059 1427 c 0
 676 1427 320 1151 227 750 c 0
 134 347 366 73 747 73 c 0
1081 1520 m 0
 1525 1520 1776 1192 1674 750 c 0
 1571 306 1167 -20 725 -20 c 0
 281 -20 31 308 133 750 c 0
 235 1193 639 1520 1081 1520 c 0
EndSplineSet
Refer: 29 82 N 0.54 0 0 0.54 412 350 2
EndChar

StartChar: multiply
Encoding: 215 215 157
GlifName: multiply
Width: 1090
Flags: MW
Fore
SplineSet
625 860 m 2
 821 1020 l 2
 845 1039 858 1047 874 1026 c 2
 960 913 l 2
 976 892 979 884 953 863 c 2
 753 700 l 2
 724 677 726 673 744 649 c 2
 872 483 l 2
 883 469 878 462 860 447 c 2
 712 327 l 2
 688 308 682 310 667 330 c 2
 548 485 l 2
 530 509 523 513 494 490 c 2
 294 327 l 2
 275 311 265 309 252 326 c 2
 154 453 l 2
 142 469 147 471 166 487 c 2
 376 658 l 2
 398 676 396 684 382 702 c 2
 262 857 l 2
 244 880 244 888 272 911 c 2
 413 1026 l 2
 438 1047 444 1040 460 1019 c 2
 582 860 l 2
 596 842 603 842 625 860 c 2
EndSplineSet
EndChar

StartChar: divide
Encoding: 247 247 158
GlifName: divide
Width: 1119
Flags: MW
Fore
SplineSet
175 886 m 2
 1034 886 l 2
 1054 886 1060 880 1060 858 c 2
 1060 692 l 2
 1060 677 1052 674 1036 674 c 2
 172 674 l 2
 146 674 140 679 140 704 c 2
 140 846 l 2
 140 879 143 886 175 886 c 2
336 410 m 0
 336 509 420 590 519 590 c 0
 618 590 697 509 697 410 c 0
 697 311 618 230 519 230 c 0
 420 230 336 311 336 410 c 0
508 1160 m 0
 508 1259 592 1340 691 1340 c 0
 790 1340 869 1259 869 1160 c 0
 869 1061 790 980 691 980 c 0
 592 980 508 1061 508 1160 c 0
EndSplineSet
EndChar

StartChar: uni0394
Encoding: 916 916 159
GlifName: uni0394
Width: 1900
Flags: MW
Fore
SplineSet
999 270 m 2
 1057 270 1065 280 1060 319 c 2
 970 1023 l 2
 965 1069 944 1050 924 1019 c 2
 470 313 l 2
 450 281 449 270 485 270 c 2
 999 270 l 2
1560 0 m 2
 35 0 l 2
 -7 0 -10 15 4 37 c 2
 964 1497 l 2
 984 1529 988 1530 1034 1530 c 2
 1334 1530 l 2
 1381 1530 1384 1519 1390 1487 c 2
 1627 61 l 2
 1633 23 1617 0 1560 0 c 2
EndSplineSet
EndChar

StartChar: uni03A9
Encoding: 937 937 160
GlifName: uni03A_9
Width: 1719
Flags: MW
Fore
SplineSet
1383 400 m 1
 1596 400 l 1
 1504 0 l 1
 805 0 l 1
 922 506 l 1
 1106 576 1184 687 1233 900 c 0
 1294 1163 1215 1313 1017 1313 c 0
 819 1313 673 1163 612 900 c 0
 563 687 586 567 738 497 c 1
 623 0 l 1
 -65 0 l 1
 27 400 l 1
 230 400 l 1
 208 306 213 163 316 163 c 2
 452 163 l 1
 492 337 l 1
 319 424 120 626 183 900 c 0
 281 1326 618 1520 1065 1520 c 0
 1512 1520 1760 1326 1662 900 c 0
 1599 626 1308 430 1095 345 c 1
 1053 163 l 1
 1189 163 l 2
 1292 163 1361 306 1383 400 c 1
EndSplineSet
EndChar

StartChar: pi
Encoding: 960 960 162
GlifName: pi
Width: 1561
VWidth: 2309
Flags: MW
Fore
SplineSet
1483 900 m 2
 1434 563 l 2
 1430 542 1431 540 1409 540 c 2
 1281 540 l 2
 1246 540 1248 537 1241 503 c 2
 1165 247 l 2
 1156 207 1174 175 1222 175 c 0
 1254 175 1272 184 1311 232 c 0
 1326 250 1326 255 1346 245 c 2
 1390 224 l 2
 1409 215 1411 214 1397 192 c 0
 1319 64 1193 -20 1012 -20 c 0
 828 -20 753 99 792 246 c 2
 863 515 l 2
 868 537 870 540 847 540 c 2
 703 540 l 2
 679 540 679 539 674 515 c 2
 649 386 l 2
 582 70 281 -20 144 -20 c 0
 12 -20 -54 45 -54 176 c 0
 -54 513 304 148 353 459 c 2
 362 516 l 2
 367 537 369 540 347 540 c 2
 291 540 l 2
 269 540 271 536 267 515 c 2
 247 419 l 2
 241 393 242 390 215 390 c 2
 151 390 l 2
 126 390 128 391 133 416 c 2
 211 888 l 2
 218 921 219 920 252 920 c 2
 1466 920 l 2
 1487 920 1487 921 1483 900 c 2
EndSplineSet
EndChar

StartChar: uni1E9E
Encoding: 7838 7838 163
GlifName: uni1E_9E_
Width: 2172
VWidth: 2309
Flags: MW
Fore
SplineSet
-100 0 m 1
 -52 210 l 1
 129 210 l 1
 285 882 l 2
 379 1288 962 1520 1498 1520 c 0
 1915 1520 2153 1348 2199 1282 c 1
 1686 798 l 1
 1973 714 2087 540 2050 380 c 0
 1990 120 1637 -30 1355 -30 c 0
 1071 -30 865 66 910 261 c 0
 940 393 1065 492 1185 492 c 0
 1296 492 1372 402 1344 280 c 0
 1337 250 1323 220 1304 194 c 1
 1324 189 1344 187 1366 187 c 0
 1514 187 1620 292 1647 410 c 0
 1681 558 1609 665 1257 735 c 1
 1283 848 l 1
 1677 1198 l 1
 1622 1263 1537 1307 1419 1307 c 0
 1091 1307 755 1185 680 861 c 2
 529 210 l 1
 709 210 l 1
 661 0 l 1
 -100 0 l 1
EndSplineSet
EndChar

StartChar: uni2010
Encoding: 8208 8208 176
GlifName: uni2010
Width: 920
Flags: MW
Fore
SplineSet
188 890 m 2
 814 890 l 2
 837 890 840 886 840 862 c 2
 840 693 l 2
 840 669 838 660 812 660 c 2
 186 660 l 2
 161 660 160 664 160 690 c 2
 160 862 l 2
 160 885 167 890 188 890 c 2
EndSplineSet
EndChar

StartChar: uni2011
Encoding: 8209 8209 177
GlifName: uni2011
Width: 920
Flags: MW
Fore
SplineSet
188 890 m 2
 814 890 l 2
 837 890 840 886 840 862 c 2
 840 693 l 2
 840 669 838 660 812 660 c 2
 186 660 l 2
 161 660 160 664 160 690 c 2
 160 862 l 2
 160 885 167 890 188 890 c 2
EndSplineSet
EndChar

StartChar: figuredash
Encoding: 8210 8210 178
GlifName: figuredash
Width: 1224
Flags: MW
Fore
SplineSet
200 890 m 2
 1106 890 l 2
 1139 890 1144 886 1144 862 c 2
 1144 693 l 2
 1144 669 1142 660 1104 660 c 2
 197 660 l 2
 161 660 160 664 160 690 c 2
 160 862 l 2
 160 885 170 890 200 890 c 2
EndSplineSet
EndChar

StartChar: endash
Encoding: 8211 8211 179
GlifName: endash
Width: 1432
Flags: MW
Fore
SplineSet
209 890 m 2
 1307 890 l 2
 1347 890 1352 886 1352 862 c 2
 1352 693 l 2
 1352 669 1349 660 1303 660 c 2
 206 660 l 2
 162 660 160 664 160 690 c 2
 160 862 l 2
 160 885 172 890 209 890 c 2
EndSplineSet
EndChar

StartChar: emdash
Encoding: 8212 8212 180
GlifName: emdash
Width: 2124
Flags: MW
Fore
SplineSet
238 890 m 2
 1972 890 l 2
 2036 890 2044 886 2044 862 c 2
 2044 693 l 2
 2044 669 2039 660 1967 660 c 2
 232 660 l 2
 163 660 160 664 160 690 c 2
 160 862 l 2
 160 885 180 890 238 890 c 2
EndSplineSet
EndChar

StartChar: uni2015
Encoding: 8213 8213 181
GlifName: uni2015
Width: 2331
Flags: MW
Fore
SplineSet
246 890 m 2
 2171 890 l 2
 2242 890 2251 886 2251 862 c 2
 2251 693 l 2
 2251 669 2245 660 2165 660 c 2
 240 660 l 2
 163 660 160 664 160 690 c 2
 160 862 l 2
 160 885 181 890 246 890 c 2
EndSplineSet
EndChar

StartChar: dagger
Encoding: 8224 8224 182
GlifName: dagger
Width: 1186
Flags: MW
Fore
SplineSet
598 1088 m 0
 616 1195 546 1179 558 1311 c 0
 559 1325 561 1336 564 1348 c 0
 587 1446 695 1520 804 1520 c 0
 913 1520 987 1446 964 1348 c 0
 961 1336 959 1325 954 1311 c 0
 906 1182 845 1195 813 1094 c 0
 808 1078 806 1072 822 1075 c 0
 900 1088 936 1157 1058 1174 c 0
 1072 1176 1084 1176 1096 1176 c 0
 1194 1176 1246 1085 1221 976 c 0
 1196 867 1101 776 1003 776 c 0
 991 776 981 776 967 778 c 0
 859 794 849 857 786 875 c 0
 771 879 759 877 757 863 c 0
 730 711 758 611 795 528 c 0
 802 511 805 498 792 479 c 0
 679 315 549 -6 438 -478 c 0
 433 -499 426 -500 405 -500 c 2
 273 -500 l 2
 251 -500 243 -497 248 -476 c 0
 353 -14 372 303 337 469 c 0
 331 497 337 509 359 533 c 0
 432 615 503 711 545 858 c 0
 550 876 545 880 524 875 c 0
 453 857 415 794 299 778 c 0
 285 776 273 776 261 776 c 0
 153 776 110 867 135 976 c 0
 160 1085 246 1176 354 1176 c 0
 366 1176 376 1176 390 1174 c 0
 506 1157 509 1085 585 1074 c 0
 595 1073 596 1077 598 1088 c 0
EndSplineSet
EndChar

StartChar: daggerdbl
Encoding: 8225 8225 183
GlifName: daggerdbl
Width: 1186
Flags: MW
Fore
SplineSet
596 1085 m 0
 610 1182 548 1190 560 1321 c 0
 561 1335 564 1346 567 1358 c 0
 585 1436 695 1520 804 1520 c 0
 913 1520 987 1446 969 1368 c 0
 966 1356 963 1345 958 1331 c 0
 911 1205 846 1185 814 1096 c 0
 806 1076 805 1072 826 1076 c 0
 901 1091 939 1157 1058 1174 c 0
 1072 1176 1084 1176 1096 1176 c 0
 1194 1176 1246 1085 1221 976 c 0
 1196 867 1101 776 1003 776 c 0
 991 776 981 776 967 778 c 0
 862 794 851 854 791 873 c 0
 768 880 761 882 756 852 c 0
 730 710 758 615 793 535 c 0
 803 511 806 499 784 474 c 0
 709 391 633 294 592 143 c 0
 586 123 584 119 604 123 c 0
 681 137 718 205 838 222 c 0
 852 224 864 224 876 224 c 0
 974 224 1027 133 1002 24 c 0
 975 -95 881 -176 783 -176 c 0
 771 -176 761 -176 747 -174 c 0
 641 -158 630 -97 570 -78 c 0
 554 -73 542 -67 539 -91 c 0
 528 -183 589 -193 577 -321 c 0
 576 -335 573 -346 570 -358 c 0
 552 -436 452 -520 333 -520 c 0
 214 -520 152 -436 170 -358 c 0
 173 -346 176 -335 181 -321 c 0
 228 -194 294 -183 325 -93 c 0
 333 -70 324 -72 304 -77 c 0
 233 -94 195 -158 79 -174 c 0
 65 -176 53 -176 41 -176 c 0
 -57 -176 -111 -95 -84 24 c 0
 -59 133 36 224 134 224 c 0
 146 224 156 224 170 222 c 0
 282 205 287 137 358 123 c 0
 375 120 377 122 380 141 c 0
 407 286 380 382 346 463 c 0
 332 495 335 505 363 537 c 0
 433 617 504 711 544 853 c 0
 552 884 544 880 518 873 c 0
 450 853 411 794 299 778 c 0
 285 776 273 776 261 776 c 0
 153 776 110 867 135 976 c 0
 160 1085 246 1176 354 1176 c 0
 366 1176 376 1176 390 1174 c 0
 502 1157 507 1089 578 1075 c 0
 590 1073 594 1070 596 1085 c 0
EndSplineSet
EndChar

StartChar: perthousand
Encoding: 8240 8240 185
GlifName: perthousand
Width: 3300
Flags: MW
Fore
SplineSet
2179 420 m 0
 2240 706 2467 880 2743 880 c 0
 2969 880 3200 706 3139 420 c 0
 3078 134 2802 -40 2576 -40 c 0
 2350 -40 2118 134 2179 420 c 0
2569 420 m 0
 2526 216 2549 130 2617 130 c 0
 2685 130 2706 216 2749 420 c 0
 2792 624 2780 710 2712 710 c 0
 2644 710 2612 624 2569 420 c 0
120 1080 m 0
 181 1366 397 1540 683 1540 c 0
 909 1540 1141 1366 1080 1080 c 0
 1019 794 742 620 496 620 c 0
 270 620 59 794 120 1080 c 0
510 1080 m 0
 467 876 479 790 547 790 c 0
 615 790 647 876 690 1080 c 0
 733 1284 730 1370 662 1370 c 0
 594 1370 553 1284 510 1080 c 0
1659 1496 m 2
 1816 1496 l 2
 1851 1496 1846 1486 1828 1464 c 2
 621 24 l 2
 604 3 592 -4 557 -4 c 2
 404 -4 l 2
 365 -4 379 19 394 37 c 2
 1612 1474 l 2
 1623 1488 1636 1496 1659 1496 c 2
1139 420 m 0
 1200 706 1427 880 1703 880 c 0
 1929 880 2160 706 2099 420 c 0
 2038 134 1762 -40 1536 -40 c 0
 1310 -40 1078 134 1139 420 c 0
1529 420 m 0
 1486 216 1509 130 1577 130 c 0
 1645 130 1666 216 1709 420 c 0
 1752 624 1740 710 1672 710 c 0
 1604 710 1572 624 1529 420 c 0
EndSplineSet
EndChar

StartChar: uni2031
Encoding: 8241 8241 186
GlifName: uni2031
Width: 4340
Flags: MW
Fore
SplineSet
3219 420 m 0
 3280 706 3507 880 3783 880 c 0
 4009 880 4240 706 4179 420 c 0
 4118 134 3842 -40 3616 -40 c 0
 3390 -40 3158 134 3219 420 c 0
3609 420 m 0
 3566 216 3589 130 3657 130 c 0
 3725 130 3746 216 3789 420 c 0
 3832 624 3820 710 3752 710 c 0
 3684 710 3652 624 3609 420 c 0
2179 420 m 0
 2240 706 2467 880 2743 880 c 0
 2969 880 3200 706 3139 420 c 0
 3078 134 2802 -40 2576 -40 c 0
 2350 -40 2118 134 2179 420 c 0
2569 420 m 0
 2526 216 2549 130 2617 130 c 0
 2685 130 2706 216 2749 420 c 0
 2792 624 2780 710 2712 710 c 0
 2644 710 2612 624 2569 420 c 0
120 1080 m 0
 181 1366 397 1540 683 1540 c 0
 909 1540 1141 1366 1080 1080 c 0
 1019 794 742 620 496 620 c 0
 270 620 59 794 120 1080 c 0
510 1080 m 0
 467 876 479 790 547 790 c 0
 615 790 647 876 690 1080 c 0
 733 1284 730 1370 662 1370 c 0
 594 1370 553 1284 510 1080 c 0
1659 1496 m 2
 1816 1496 l 2
 1851 1496 1846 1486 1828 1464 c 2
 621 24 l 2
 604 3 592 -4 557 -4 c 2
 404 -4 l 2
 365 -4 379 19 394 37 c 2
 1612 1474 l 2
 1623 1488 1636 1496 1659 1496 c 2
1139 420 m 0
 1200 706 1427 880 1703 880 c 0
 1929 880 2160 706 2099 420 c 0
 2038 134 1762 -40 1536 -40 c 0
 1310 -40 1078 134 1139 420 c 0
1529 420 m 0
 1486 216 1509 130 1577 130 c 0
 1645 130 1666 216 1709 420 c 0
 1752 624 1740 710 1672 710 c 0
 1604 710 1572 624 1529 420 c 0
EndSplineSet
EndChar

StartChar: guilsinglleft
Encoding: 8249 8249 187
GlifName: guilsinglleft
Width: 830
Flags: MW
Fore
SplineSet
481 775 m 1
 738 380 l 1
 632 270 l 1
 63 750 l 1
 75 800 l 1
 866 1280 l 1
 920 1170 l 1
 481 775 l 1
EndSplineSet
EndChar

StartChar: guilsinglright
Encoding: 8250 8250 188
GlifName: guilsinglright
Width: 830
Flags: MW
Fore
SplineSet
427 775 m 1
 170 1170 l 1
 276 1280 l 1
 845 800 l 1
 833 750 l 1
 42 270 l 1
 -12 380 l 1
 427 775 l 1
EndSplineSet
EndChar

StartChar: uni203E
Encoding: 8254 8254 189
GlifName: uni203E_
Width: 719
Flags: MW
Fore
SplineSet
303 1919 m 2
 1268 1919 l 2
 1303 1919 1308 1915 1308 1891 c 2
 1308 1722 l 2
 1308 1698 1305 1689 1265 1689 c 2
 300 1689 l 2
 261 1689 260 1693 260 1719 c 2
 260 1891 l 2
 260 1914 271 1919 303 1919 c 2
EndSplineSet
EndChar

StartChar: uni2074
Encoding: 8308 8308 191
GlifName: uni2074
Width: 860
VWidth: 2309
Flags: MW
Fore
SplineSet
720 1017 m 2
 720 941 l 2
 720 921 715 919 695 919 c 2
 256 919 l 2
 228 919 222 920 222 948 c 2
 222 1018 l 2
 222 1040 226 1045 248 1045 c 2
 356 1045 l 2
 382 1045 383 1051 390 1076 c 2
 405 1133 l 2
 413 1163 396 1165 364 1165 c 2
 89 1165 l 2
 63 1165 63 1169 55 1185 c 2
 36 1220 l 2
 29 1233 33 1238 40 1251 c 0
 134 1439 513 1547 575 1785 c 0
 582 1810 582 1819 616 1819 c 2
 778 1819 l 2
 810 1819 815 1816 810 1788 c 0
 772 1556 383 1465 265 1334 c 0
 249 1316 233 1291 280 1291 c 2
 415 1291 l 2
 436 1291 436 1299 444 1317 c 2
 453 1345 l 2
 463 1368 462 1372 481 1382 c 0
 521 1403 604 1431 629 1483 c 0
 634 1495 637 1501 656 1501 c 2
 696 1501 l 2
 715 1501 724 1500 720 1482 c 2
 683 1326 l 2
 679 1307 688 1291 710 1291 c 2
 788 1291 l 2
 807 1291 810 1286 810 1268 c 2
 810 1199 l 2
 810 1171 810 1165 782 1165 c 2
 671 1165 l 2
 646 1165 645 1161 639 1136 c 2
 623 1076 l 2
 616 1051 627 1045 655 1045 c 2
 694 1045 l 2
 717 1045 720 1041 720 1017 c 2
EndSplineSet
EndChar

StartChar: Euro
Encoding: 8364 8364 192
GlifName: E_uro
Width: 1792
Flags: MW
Fore
SplineSet
1160 1304 m 0
 812 1304 600 964 600 600 c 0
 600 316 682 198 860 198 c 0
 1161 198 1291 325 1298 464 c 0
 1299 476 1304 480 1318 480 c 2
 1488 480 l 2
 1502 480 1509 479 1509 466 c 0
 1504 266 1271 -20 840 -20 c 0
 334 -20 170 244 170 600 c 0
 170 1046 594 1520 1100 1520 c 0
 1474 1520 1682 1306 1682 1102 c 0
 1682 946 1572 870 1454 870 c 0
 1320 870 1240 952 1240 1086 c 0
 1240 1208 1324 1207 1324 1243 c 0
 1324 1277 1268 1304 1160 1304 c 0
EndSplineSet
Refer: 94 61 N 1 0 0 1 -70 -30 2
EndChar

StartChar: partialdiff
Encoding: 8706 8706 193
GlifName: partialdiff
Width: 1330
VWidth: 2310
Flags: MW
Fore
SplineSet
429 470 m 0
 388 292 442 210 560 210 c 0
 688 210 780 302 816 460 c 0
 853 620 785 722 679 722 c 0
 571 722 472 658 429 470 c 0
667 1312 m 0
 661 1286 701 1248 684 1176 c 0
 658 1062 551 990 417 990 c 0
 278 990 221 1086 252 1222 c 0
 290 1386 509 1520 813 1520 c 0
 1185 1520 1392 1220 1281 740 c 0
 1149 170 829 -20 507 -20 c 0
 205 -20 -50 130 35 500 c 0
 107 810 358 960 580 960 c 0
 710 960 813 914 867 842 c 0
 882 822 883 806 893 811 c 0
 901 815 899 829 905 864 c 0
 962 1197 885 1366 767 1366 c 0
 699 1366 673 1338 667 1312 c 0
EndSplineSet
EndChar

StartChar: emptyset
Encoding: 8709 8709 194
GlifName: emptyset
Width: 1140
VWidth: 2309
Flags: MW
Fore
SplineSet
18 341 m 1
 989 1312 l 1
 1132 1179 l 1
 161 208 l 1
 18 341 l 1
292 770 m 0
 292 622 388 483 571 483 c 0
 754 483 848 622 848 770 c 0
 848 918 754 1057 571 1057 c 0
 388 1057 292 918 292 770 c 0
62 770 m 0
 62 1020 239 1279 571 1279 c 0
 903 1279 1078 1020 1078 770 c 0
 1078 520 903 260 571 260 c 0
 239 260 62 520 62 770 c 0
EndSplineSet
EndChar

StartChar: product
Encoding: 8719 8719 195
GlifName: product
Width: 2020
Flags: MW
Fore
SplineSet
874 1188 m 2
 676 329 l 2
 666 285 663 270 707 270 c 2
 779 270 l 2
 819 270 853 267 853 228 c 2
 853 65 l 2
 839 6 812 0 758 0 c 2
 23 0 l 2
 -35 0 -42 6 -42 67 c 2
 -42 206 l 2
 -42 251 -26 270 19 270 c 2
 127 270 l 2
 176 270 193 271 204 320 c 2
 403 1184 l 2
 412 1225 403 1230 360 1230 c 2
 269 1230 l 2
 217 1230 208 1235 208 1290 c 2
 208 1444 l 2
 208 1493 226 1500 271 1500 c 2
 2066 1500 l 2
 2104 1500 2125 1493 2125 1451 c 2
 2125 1278 l 2
 2125 1239 2106 1230 2064 1230 c 2
 1935 1230 l 2
 1897 1230 1891 1218 1882 1179 c 2
 1684 320 l 2
 1675 282 1673 270 1711 270 c 2
 1821 270 l 2
 1866 270 1879 260 1879 213 c 2
 1879 81 l 2
 1879 8 1851 0 1780 0 c 2
 1066 0 l 2
 1007 0 992 7 992 70 c 2
 992 225 l 2
 992 263 1015 270 1051 270 c 2
 1140 270 l 2
 1187 270 1202 271 1213 318 c 2
 1416 1196 l 2
 1423 1228 1412 1230 1379 1230 c 2
 927 1230 l 2
 891 1230 883 1225 874 1188 c 2
EndSplineSet
EndChar

StartChar: summation
Encoding: 8721 8721 196
GlifName: summation
Width: 1449
Flags: MW
Fore
SplineSet
316 1500 m 1
 1520 1500 l 1
 1403 990 l 1
 1189 990 l 1
 1238 1204 1232 1287 998 1287 c 2
 767 1287 l 1
 994 813 l 1
 385 213 l 1
 729 213 l 2
 1002 213 1048 296 1107 550 c 1
 1320 550 l 1
 1193 0 l 1
 -120 0 l 1
 611 730 l 1
 290 1387 l 1
 316 1500 l 1
EndSplineSet
EndChar

StartChar: minus
Encoding: 8722 8722 197
GlifName: minus
Width: 1224
Flags: MW
Fore
SplineSet
200 890 m 2
 1106 890 l 2
 1139 890 1144 886 1144 862 c 2
 1144 693 l 2
 1144 669 1142 660 1104 660 c 2
 197 660 l 2
 161 660 160 664 160 690 c 2
 160 862 l 2
 160 885 170 890 200 890 c 2
EndSplineSet
EndChar

StartChar: uni2219
Encoding: 8729 8729 199
GlifName: uni2219
Width: 610
Flags: MW
Fore
SplineSet
125 870 m 0
 125 1002 233 1110 365 1110 c 0
 497 1110 605 1002 605 870 c 0
 605 738 497 630 365 630 c 0
 233 630 125 738 125 870 c 0
EndSplineSet
EndChar

StartChar: radical
Encoding: 8730 8730 200
GlifName: radical
Width: 1180
Flags: MW
Fore
SplineSet
1184 1290 m 1
 572 -20 l 1
 284 -20 l 1
 181 381 l 1
 56 323 l 1
 6 500 l 1
 461 730 l 1
 552 330 l 1
 1095 1500 l 1
 1386 1500 l 1
 1338 1290 l 1
 1184 1290 l 1
EndSplineSet
EndChar

StartChar: infinity
Encoding: 8734 8734 201
GlifName: infinity
Width: 1913
VWidth: 2309
Flags: MW
Fore
SplineSet
1622 780 m 0
 1622 928 1547 997 1414 997 c 0
 1287 997 1196 945 1101 825 c 0
 1074 791 1062 784 1090 748 c 0
 1187 623 1282 563 1414 563 c 0
 1547 563 1622 642 1622 780 c 0
1863 780 m 0
 1863 490 1676 351 1434 351 c 0
 1279 351 1111 458 996 594 c 0
 956 641 960 646 920 598 c 0
 804 460 636 351 479 351 c 0
 237 351 50 500 50 780 c 0
 50 1070 237 1209 479 1209 c 0
 641 1209 813 1094 931 949 c 0
 956 918 954 914 980 946 c 0
 1098 1093 1271 1209 1434 1209 c 0
 1676 1209 1863 1070 1863 780 c 0
816 820 m 0
 718 942 618 997 489 997 c 0
 366 997 291 908 291 780 c 0
 291 642 366 563 489 563 c 0
 619 563 721 621 819 744 c 0
 848 780 845 784 816 820 c 0
EndSplineSet
EndChar

StartChar: integral
Encoding: 8747 8747 202
GlifName: integral
Width: 920
VWidth: 2310
Flags: MW
Fore
SplineSet
210 1144 m 2
 210 1366 404 1600 804 1600 c 0
 1126 1600 1270 1462 1270 1308 c 0
 1270 1148 1160 1086 1036 1086 c 0
 892 1086 796 1162 796 1272 c 0
 796 1366 868 1388 868 1410 c 0
 868 1424 840 1426 820 1426 c 0
 740 1426 630 1354 630 1100 c 2
 630 -63 l 2
 630 -285 436 -519 36 -519 c 0
 -286 -519 -430 -381 -430 -227 c 0
 -430 -67 -320 -5 -196 -5 c 0
 -52 -5 44 -81 44 -191 c 0
 44 -285 -28 -307 -28 -329 c 0
 -28 -343 0 -345 20 -345 c 0
 100 -345 210 -273 210 -19 c 2
 210 1144 l 2
EndSplineSet
EndChar

StartChar: approxequal
Encoding: 8776 8776 203
GlifName: approxequal
Width: 1200
VWidth: 0
Flags: MW
Fore
SplineSet
832 674 m 0
 691 674 617 767 575 835 c 0
 544 885 490 901 455 901 c 0
 370 901 341 867 329 817 c 0
 326 806 325 792 325 778 c 2
 325 778 326 771 325 767 c 0
 319 727 277 692 237 692 c 2
 154 692 l 2
 124 692 101 713 99 743 c 0
 90 905 207 1066 378 1111 c 0
 410 1119 443 1124 476 1124 c 0
 625 1124 698 1028 739 964 c 0
 774 909 824 897 854 897 c 0
 918 897 940 920 951 970 c 0
 954 984 956 1000 955 1018 c 0
 955 1021 955 1027 956 1031 c 0
 962 1071 1003 1106 1043 1106 c 2
 1126 1106 l 2
 1155 1106 1182 1084 1182 1052 c 0
 1184 882 1060 718 897 681 c 0
 876 676 854 674 832 674 c 0
718 174 m 0
 577 174 492 267 450 335 c 0
 419 385 375 401 340 401 c 0
 255 401 227 367 215 317 c 0
 212 306 211 292 211 278 c 2
 211 278 211 271 210 267 c 0
 204 227 163 192 123 192 c 2
 40 192 l 2
 10 192 -14 213 -16 243 c 0
 -25 405 92 566 263 611 c 0
 295 619 328 624 361 624 c 0
 510 624 583 528 624 464 c 0
 659 409 709 397 739 397 c 0
 803 397 825 420 836 470 c 0
 839 484 841 500 840 518 c 0
 840 521 840 527 841 531 c 0
 847 571 888 606 928 606 c 2
 1011 606 l 2
 1040 606 1067 584 1067 552 c 0
 1069 382 945 218 782 181 c 0
 761 176 740 174 718 174 c 0
EndSplineSet
EndChar

StartChar: notequal
Encoding: 8800 8800 204
GlifName: notequal
Width: 1119
Flags: MW
Fore
SplineSet
156 397 m 2
 942 1260 l 2
 971 1292 978 1294 992 1281 c 2
 1092 1190 l 2
 1106 1177 1109 1170 1076 1134 c 2
 289 271 l 2
 258 237 254 237 239 251 c 2
 137 343 l 2
 123 355 130 368 156 397 c 2
147 690 m 2
 957 690 l 2
 987 690 990 686 990 662 c 2
 990 493 l 2
 990 469 988 460 954 460 c 2
 144 460 l 2
 112 460 110 464 110 490 c 2
 110 662 l 2
 110 685 120 690 147 690 c 2
227 1090 m 2
 1037 1090 l 2
 1067 1090 1070 1086 1070 1062 c 2
 1070 893 l 2
 1070 869 1068 860 1034 860 c 2
 224 860 l 2
 192 860 190 864 190 890 c 2
 190 1062 l 2
 190 1085 200 1090 227 1090 c 2
EndSplineSet
EndChar

StartChar: lessequal
Encoding: 8804 8804 205
GlifName: lessequal
Width: 1119
Flags: MW
Fore
SplineSet
42 230 m 2
 852 230 l 2
 882 230 886 226 886 202 c 2
 886 33 l 2
 886 9 884 0 850 0 c 2
 39 0 l 2
 7 0 5 4 5 30 c 2
 5 202 l 2
 5 225 15 230 42 230 c 2
468 748 m 2
 920 575 l 2
 949 564 960 553 960 511 c 2
 960 393 l 2
 960 335 953 333 914 348 c 2
 194 642 l 2
 161 655 150 672 150 720 c 2
 150 830 l 2
 150 890 165 896 206 912 c 2
 1050 1246 l 2
 1090 1262 1110 1265 1110 1199 c 2
 1110 1112 l 2
 1110 1055 1102 1037 1062 1022 c 2
 468 802 l 2
 433 789 412 788 412 776 c 0
 412 759 429 763 468 748 c 2
EndSplineSet
EndChar

StartChar: greaterequal
Encoding: 8805 8805 206
GlifName: greaterequal
Width: 1119
Flags: MW
Fore
SplineSet
42 230 m 2
 852 230 l 2
 882 230 886 226 886 202 c 2
 886 33 l 2
 886 9 884 0 850 0 c 2
 39 0 l 2
 7 0 5 4 5 30 c 2
 5 202 l 2
 5 225 15 230 42 230 c 2
712 802 m 2
 260 975 l 2
 231 986 220 997 220 1039 c 2
 220 1157 l 2
 220 1215 227 1217 266 1202 c 2
 986 908 l 2
 1019 895 1030 878 1030 830 c 2
 1030 720 l 2
 1030 660 1015 654 974 638 c 2
 130 304 l 2
 90 288 70 285 70 351 c 2
 70 438 l 2
 70 495 78 513 118 528 c 2
 712 748 l 2
 747 761 768 762 768 774 c 0
 768 791 751 787 712 802 c 2
EndSplineSet
EndChar

StartChar: lozenge
Encoding: 9674 9674 207
GlifName: lozenge
Width: 1200
VWidth: 0
Flags: MW
Fore
SplineSet
561 430 m 1
 454 692 l 1
 706 972 l 1
 792 732 l 1
 561 430 l 1
479 30 m 1
 1024 712 l 1
 793 1392 l 1
 224 712 l 1
 479 30 l 1
EndSplineSet
EndChar

StartChar: uniF8E8
Encoding: 63720 63720 208
GlifName: uniF_8E_8
Width: 1125
Flags: MW
Fore
SplineSet
589 724 m 0
 819 724 1032 889 1088 1130 c 0
 1144 1371 1005 1536 776 1536 c 0
 546 1536 333 1371 277 1130 c 0
 221 888 360 724 589 724 c 0
789 1592 m 0
 1055 1592 1206 1395 1145 1130 c 0
 1083 864 840 668 575 668 c 0
 309 668 159 865 220 1130 c 0
 281 1396 524 1592 789 1592 c 0
964 940 m 0
 926 895 866 880 821 880 c 0
 760 880 717 904 717 953 c 0
 717 985 726 1009 726 1035 c 0
 726 1051 713 1088 659 1088 c 2
 635 1088 l 2
 621 1088 619 1085 616 1073 c 2
 599 995 l 2
 596 982 595 977 612 977 c 2
 644 977 l 2
 657 977 660 977 660 964 c 2
 660 908 l 2
 660 892 658 890 642 890 c 2
 383 890 l 2
 370 890 368 893 368 905 c 2
 368 963 l 2
 368 976 370 977 383 977 c 2
 426 977 l 2
 442 977 440 981 443 994 c 2
 503 1271 l 2
 506 1286 505 1289 487 1289 c 2
 456 1289 l 2
 441 1289 439 1290 439 1304 c 2
 439 1363 l 2
 439 1375 442 1376 455 1376 c 2
 750 1376 l 2
 867 1376 944 1350 944 1266 c 0
 944 1205 898 1168 833 1147 c 0
 813 1141 803 1140 803 1135 c 0
 803 1130 813 1129 833 1122 c 0
 864 1111 883 1092 883 1049 c 0
 883 1019 869 1008 869 994 c 0
 869 987 875 982 882 982 c 0
 891 982 900 984 916 1000 c 0
 924 1009 924 1010 933 1000 c 2
 967 965 l 2
 977 954 973 951 964 940 c 0
658 1178 m 2
 704 1178 l 2
 753 1178 789 1211 789 1250 c 0
 789 1273 767 1289 737 1289 c 2
 681 1289 l 2
 664 1289 661 1287 658 1273 c 2
 642 1196 l 2
 639 1181 639 1178 658 1178 c 2
EndSplineSet
EndChar

StartChar: uniF8E9
Encoding: 63721 63721 209
GlifName: uniF_8E_9
Width: 1125
Flags: MW
Fore
SplineSet
599 724 m 0
 829 724 1042 889 1098 1130 c 0
 1154 1371 1015 1536 786 1536 c 0
 556 1536 343 1371 287 1130 c 0
 231 888 370 724 599 724 c 0
799 1592 m 0
 1065 1592 1216 1395 1155 1130 c 0
 1093 864 850 668 585 668 c 0
 319 668 169 865 230 1130 c 0
 291 1396 534 1592 799 1592 c 0
946 1033 m 0
 910 937 801 840 634 840 c 0
 488 840 382 911 382 1077 c 0
 382 1258 521 1408 728 1408 c 0
 785 1408 825 1393 853 1370 c 0
 866 1359 867 1349 880 1362 c 2
 898 1380 l 2
 907 1388 908 1394 926 1394 c 2
 994 1394 l 2
 1010 1394 1010 1392 1007 1379 c 2
 971 1185 l 2
 969 1172 967 1167 951 1167 c 2
 887 1167 l 2
 872 1167 871 1168 872 1181 c 0
 879 1271 819 1318 748 1318 c 0
 639 1318 566 1207 566 1081 c 0
 566 979 613 946 673 946 c 0
 735 946 795 981 832 1038 c 0
 840 1050 842 1059 863 1059 c 2
 921 1059 l 2
 951 1059 954 1055 946 1033 c 0
EndSplineSet
EndChar

StartChar: uniF8EA
Encoding: 63722 63722 210
GlifName: uniF_8E_A_
Width: 1626
Flags: MW
Fore
SplineSet
306 996 m 2
 306 1055 l 2
 306 1072 310 1072 327 1072 c 2
 384 1072 l 2
 406 1072 404 1076 408 1094 c 2
 477 1417 l 2
 478 1420 473 1421 469 1421 c 2
 468 1421 l 2
 402 1421 377 1394 352 1315 c 0
 346 1296 344 1292 322 1292 c 2
 287 1292 l 2
 260 1292 259 1294 264 1315 c 2
 306 1496 l 2
 310 1513 312 1515 334 1515 c 2
 828 1515 l 2
 856 1515 858 1513 852 1486 c 2
 810 1310 l 2
 807 1297 805 1292 788 1292 c 2
 742 1292 l 2
 714 1292 718 1298 722 1318 c 0
 737 1396 719 1421 656 1421 c 2
 645 1421 l 2
 635 1421 634 1415 632 1407 c 2
 568 1100 l 2
 564 1080 559 1072 586 1072 c 2
 632 1072 l 2
 650 1072 652 1070 652 1051 c 2
 652 1001 l 2
 652 976 650 975 626 975 c 2
 328 975 l 2
 309 975 306 977 306 996 c 2
1387 1281 m 2
 1221 984 l 2
 1214 972 1215 968 1194 968 c 2
 1135 968 l 2
 1112 968 1111 968 1108 988 c 2
 1065 1271 l 2
 1059 1309 1061 1336 1054 1336 c 0
 1047 1336 1044 1311 1035 1273 c 2
 990 1089 l 2
 986 1073 988 1072 1009 1072 c 2
 1047 1072 l 2
 1061 1072 1062 1070 1062 1055 c 2
 1062 993 l 2
 1062 977 1060 975 1043 975 c 2
 827 975 l 2
 807 975 803 976 803 996 c 2
 803 1059 l 2
 803 1070 805 1072 816 1072 c 2
 865 1072 l 2
 889 1072 888 1075 893 1094 c 2
 969 1395 l 2
 974 1414 975 1418 949 1418 c 2
 923 1418 l 2
 904 1418 901 1419 901 1438 c 2
 901 1499 l 2
 901 1515 907 1515 922 1515 c 2
 1180 1515 l 2
 1205 1515 1207 1513 1211 1491 c 2
 1246 1278 l 2
 1252 1243 1252 1223 1257 1223 c 0
 1263 1223 1276 1250 1291 1277 c 2
 1417 1495 l 2
 1426 1511 1430 1515 1456 1515 c 2
 1674 1515 l 2
 1688 1515 1691 1514 1691 1500 c 2
 1691 1443 l 2
 1691 1421 1690 1418 1668 1418 c 2
 1612 1418 l 2
 1596 1418 1596 1418 1594 1404 c 2
 1543 1094 l 2
 1540 1075 1542 1072 1564 1072 c 2
 1606 1072 l 2
 1621 1072 1624 1071 1624 1056 c 2
 1624 996 l 2
 1624 977 1621 975 1602 975 c 2
 1332 975 l 2
 1311 975 1308 976 1308 997 c 2
 1308 1050 l 2
 1308 1070 1310 1072 1329 1072 c 2
 1349 1072 l 2
 1377 1072 1376 1075 1380 1098 c 2
 1410 1278 l 2
 1416 1311 1434 1335 1422 1335 c 0
 1415 1335 1403 1309 1387 1281 c 2
EndSplineSet
EndChar

StartChar: uniFB00
Encoding: 64256 64256 211
GlifName: uniF_B_00
Width: 1820
VWidth: 2310
Flags: MW
Fore
SplineSet
1114 1060 m 0
 1115 1062 1115 1064 1115 1066 c 0
 1114 1081 1097 1075 1078 1078 c 0
 993 1089 924 1124 924 1220 c 0
 924 1312 980 1316 980 1340 c 0
 980 1352 962 1360 938 1360 c 0
 866 1360 763 1306 699 1108 c 0
 683 1059 665 1040 736 1040 c 2
 1064 1040 l 2
 1094 1040 1102 1036 1114 1060 c 0
992 830 m 2
 700 830 l 2
 647 830 640 834 631 788 c 2
 435 -224 l 2
 420 -300 417 -300 326 -300 c 2
 78 -300 l 2
 -19 -300 4 -279 19 -204 c 2
 204 748 l 2
 215 804 240 830 164 830 c 2
 92 830 l 2
 39 830 50 847 50 896 c 2
 50 996 l 2
 50 1043 54 1040 100 1040 c 2
 212 1040 l 2
 262 1040 262 1042 270 1084 c 0
 354 1446 644 1540 944 1540 c 0
 1064 1540 1171 1515 1253 1472 c 0
 1292 1451 1292 1441 1327 1468 c 0
 1456 1567 1628 1600 1804 1600 c 0
 2066 1600 2270 1482 2270 1308 c 0
 2270 1162 2142 1074 2014 1074 c 0
 1898 1074 1784 1136 1784 1260 c 0
 1784 1352 1840 1376 1840 1400 c 0
 1840 1412 1822 1420 1798 1420 c 0
 1718 1420 1590 1356 1540 1100 c 0
 1529 1045 1522 1040 1590 1040 c 2
 1736 1040 l 2
 1783 1040 1790 1045 1790 996 c 2
 1790 898 l 2
 1790 848 1802 830 1748 830 c 2
 1566 830 l 2
 1481 830 1486 821 1473 752 c 2
 1301 -132 l 2
 1288 -197 1288 -200 1210 -200 c 2
 938 -200 l 2
 869 -200 868 -202 879 -144 c 2
 1052 744 l 2
 1066 816 1083 830 992 830 c 2
EndSplineSet
Ligature2: "'liga' Standard Ligatures lookup 0 subtable" f f
EndChar

StartChar: uniFB01
Encoding: 64257 64257 212
GlifName: uniF_B_01
Width: 1712
VWidth: 2310
Flags: MW
Fore
SplineSet
25 -176 m 2
 209 740 l 2
 220 796 250 830 172 830 c 2
 112 830 l 2
 55 830 50 825 50 884 c 2
 50 996 l 2
 50 1045 56 1040 104 1040 c 2
 180 1040 l 2
 284 1040 273 1061 290 1144 c 0
 364 1508 684 1600 984 1600 c 0
 1246 1600 1470 1542 1470 1328 c 0
 1470 1182 1342 1114 1214 1114 c 0
 1098 1114 984 1156 984 1280 c 0
 984 1372 1040 1376 1040 1400 c 0
 1040 1412 1022 1420 998 1420 c 0
 918 1420 760 1354 700 1100 c 1
 686 1030 700 1040 780 1040 c 2
 1428 1040 l 2
 1498 1040 1496 1040 1482 984 c 2
 1308 302 l 2
 1305 290 1302 272 1302 262 c 0
 1302 240 1310 234 1330 234 c 0
 1368 234 1411 273 1459 360 c 0
 1483 404 1479 427 1532 402 c 2
 1620 361 l 2
 1678 333 1670 325 1640 269 c 0
 1534 69 1364 -50 1146 -50 c 0
 982 -50 880 34 880 154 c 0
 880 192 893 249 900 280 c 2
 1002 736 l 2
 1017 804 1045 830 952 830 c 2
 728 830 l 2
 635 830 643 815 628 740 c 2
 436 -220 l 2
 420 -301 414 -300 316 -300 c 2
 96 -300 l 2
 -26 -300 6 -269 25 -176 c 2
EndSplineSet
LCarets2: 1 0
Ligature2: "'liga' Standard Ligatures lookup 0 subtable" f i
EndChar

StartChar: uniFB02
Encoding: 64258 64258 213
GlifName: uniF_B_02
Width: 1770
VWidth: 2310
Flags: MW
Fore
SplineSet
1648 1520 m 2
 1366 302 l 2
 1363 290 1360 272 1360 262 c 0
 1360 240 1368 234 1388 234 c 0
 1427 234 1472 276 1521 368 c 0
 1542 407 1539 426 1584 405 c 2
 1682 359 l 2
 1731 336 1731 333 1706 284 c 0
 1601 75 1428 -50 1204 -50 c 0
 1040 -50 940 28 940 148 c 0
 940 186 949 241 958 280 c 2
 1135 1070 l 2
 1144 1110 1150 1112 1104 1117 c 0
 1016 1127 944 1161 944 1260 c 0
 944 1352 1000 1376 1000 1400 c 0
 1000 1412 982 1420 958 1420 c 0
 878 1420 741 1324 700 1100 c 0
 694 1068 687 1040 760 1040 c 2
 900 1040 l 2
 949 1040 950 1041 950 992 c 2
 950 878 l 2
 950 827 946 830 896 830 c 2
 706 830 l 2
 652 830 646 832 637 786 c 2
 442 -192 l 2
 424 -283 432 -300 320 -300 c 2
 84 -300 l 2
 -2 -300 0 -300 14 -228 c 2
 219 788 l 2
 229 840 213 830 156 830 c 2
 116 830 l 2
 50 830 50 830 50 896 c 2
 50 980 l 2
 50 1033 45 1040 100 1040 c 2
 224 1040 l 2
 280 1040 272 1056 281 1100 c 2
 290 1144 l 2
 364 1508 664 1600 964 1600 c 0
 1102 1600 1224 1567 1308 1511 c 0
 1384 1460 1375 1450 1464 1496 c 2
 1598 1565 l 2
 1651 1592 1662 1582 1648 1520 c 2
EndSplineSet
LCarets2: 1 0
Ligature2: "'liga' Standard Ligatures lookup 0 subtable" f l
EndChar

StartChar: uniFB03
Encoding: 64259 64259 214
GlifName: uniF_B_03
Width: 2552
VWidth: 2310
Flags: MW
Fore
SplineSet
717 1156 m 0
 692 1097 647 1040 752 1040 c 2
 1052 1040 l 2
 1085 1040 1105 1033 1111 1055 c 2
 1114 1066 l 2
 1125 1106 1102 1096 1066 1104 c 0
 996 1119 944 1156 944 1240 c 0
 944 1332 1000 1336 1000 1360 c 0
 1000 1372 982 1380 958 1380 c 0
 892 1380 786 1321 717 1156 c 0
2310 1328 m 0
 2310 1182 2182 1114 2054 1114 c 0
 1938 1114 1824 1156 1824 1280 c 0
 1824 1372 1880 1376 1880 1400 c 0
 1880 1412 1862 1420 1838 1420 c 0
 1758 1420 1600 1354 1540 1100 c 0
 1529 1046 1520 1040 1588 1040 c 2
 2246 1040 l 2
 2330 1040 2338 1047 2320 976 c 2
 2148 302 l 2
 2145 290 2142 272 2142 262 c 0
 2142 240 2150 234 2170 234 c 0
 2207 234 2250 272 2296 354 c 0
 2327 409 2322 426 2386 396 c 2
 2460 361 l 2
 2525 330 2504 311 2471 252 c 0
 2365 62 2198 -50 1986 -50 c 0
 1822 -50 1720 34 1720 154 c 0
 1720 192 1733 249 1740 280 c 2
 1841 732 l 2
 1857 805 1885 830 1786 830 c 2
 1552 830 l 2
 1486 830 1485 827 1474 772 c 2
 1294 -130 l 2
 1281 -195 1283 -200 1204 -200 c 2
 976 -200 l 2
 838 -200 864 -179 886 -70 c 2
 1046 728 l 2
 1064 816 1083 830 972 830 c 2
 748 830 l 2
 630 830 637 816 618 720 c 2
 441 -194 l 2
 421 -296 419 -300 296 -300 c 2
 104 -300 l 2
 -23 -300 5 -276 24 -178 c 2
 209 772 l 2
 219 824 227 830 162 830 c 2
 104 830 l 2
 54 830 50 826 50 878 c 2
 50 984 l 2
 50 1036 46 1040 100 1040 c 2
 202 1040 l 2
 256 1040 261 1038 270 1084 c 0
 354 1446 664 1540 964 1540 c 0
 1086 1540 1196 1527 1278 1496 c 0
 1342 1472 1340 1478 1398 1509 c 0
 1523 1577 1675 1600 1824 1600 c 0
 2086 1600 2310 1542 2310 1328 c 0
EndSplineSet
LCarets2: 2 0 0
Ligature2: "'liga' Standard Ligatures lookup 0 subtable" f f i
EndChar

StartChar: uniFB04
Encoding: 64260 64260 215
GlifName: uniF_B_04
Width: 2610
VWidth: 2310
Flags: MW
Fore
SplineSet
1070 1079 m 0
 989 1091 924 1127 924 1220 c 0
 924 1312 980 1316 980 1340 c 0
 980 1352 962 1360 938 1360 c 0
 867 1360 767 1308 703 1120 c 0
 681 1054 668 1040 760 1040 c 2
 1064 1040 l 2
 1095 1040 1111 1047 1112 1056 c 0
 1113 1065 1099 1075 1070 1079 c 0
724 830 m 2
 630 830 637 817 622 740 c 2
 438 -206 l 2
 421 -296 420 -300 312 -300 c 2
 112 -300 l 2
 -10 -300 2 -293 21 -194 c 2
 209 772 l 2
 219 823 228 830 164 830 c 2
 100 830 l 2
 40 830 50 844 50 900 c 2
 50 976 l 2
 50 1025 40 1040 92 1040 c 2
 212 1040 l 2
 262 1040 262 1042 270 1084 c 0
 354 1446 644 1540 944 1540 c 0
 1032 1540 1114 1527 1184 1502 c 0
 1314 1456 1292 1460 1410 1520 c 0
 1526 1579 1664 1600 1804 1600 c 0
 1932 1600 2047 1571 2130 1522 c 0
 2218 1470 2205 1445 2306 1497 c 2
 2438 1565 l 2
 2492 1593 2497 1565 2476 1472 c 2
 2206 302 l 2
 2203 290 2200 272 2200 262 c 0
 2200 240 2208 234 2228 234 c 0
 2266 234 2310 275 2359 364 c 0
 2381 405 2378 427 2426 404 c 2
 2490 374 l 2
 2531 355 2578 351 2556 304 c 0
 2452 83 2275 -50 2044 -50 c 0
 1880 -50 1780 28 1780 148 c 0
 1780 186 1789 241 1798 280 c 2
 1970 1048 l 2
 1984 1110 1991 1109 1924 1120 c 0
 1845 1133 1784 1169 1784 1260 c 0
 1784 1352 1840 1376 1840 1400 c 0
 1840 1412 1822 1420 1798 1420 c 0
 1718 1420 1591 1356 1540 1100 c 0
 1528 1040 1526 1040 1598 1040 c 2
 1718 1040 l 2
 1776 1040 1790 1050 1790 988 c 2
 1790 888 l 2
 1790 824 1782 830 1720 830 c 2
 1542 830 l 2
 1480 830 1484 822 1474 772 c 2
 1300 -98 l 2
 1284 -179 1295 -200 1192 -200 c 2
 968 -200 l 2
 846 -200 862 -188 882 -90 c 2
 1045 720 l 2
 1062 804 1090 830 980 830 c 2
 724 830 l 2
EndSplineSet
LCarets2: 2 0 0
Ligature2: "'liga' Standard Ligatures lookup 0 subtable" f f l
EndChar

StartChar: uniFF10
Encoding: 65296 65296 216
GlifName: uniF_F_10
Width: 1400
Flags: MW
Fore
SplineSet
123 750 m 0
 254 1316 515 1520 881 1520 c 0
 1247 1520 1474 1316 1343 750 c 0
 1212 184 941 -20 595 -20 c 0
 249 -20 -8 184 123 750 c 0
543 750 m 0
 440 306 476 190 604 190 c 0
 742 190 820 306 923 750 c 0
 1026 1194 1000 1310 862 1310 c 0
 734 1310 646 1194 543 750 c 0
EndSplineSet
EndChar

StartChar: uniFF19
Encoding: 65305 65305 225
GlifName: uniF_F_19
Width: 1400
VWidth: 2310
Flags: MW
Fore
SplineSet
446 178 m 0
 446 151 474 134 522 134 c 0
 640 134 795 303 892 636 c 0
 902 671 910 685 904 689 c 0
 896 694 889 678 864 658 c 0
 776 586 651 540 521 540 c 0
 299 540 118 690 190 1000 c 0
 275 1370 560 1520 862 1520 c 0
 1184 1520 1456 1330 1324 760 c 0
 1213 280 858 -20 486 -20 c 0
 202 -20 73 114 73 278 c 0
 73 418 175 510 304 510 c 0
 438 510 525 448 525 354 c 0
 525 250 446 224 446 178 c 0
596 1030 m 0
 553 842 622 778 730 778 c 0
 836 778 952 880 989 1040 c 0
 1025 1198 987 1290 859 1290 c 0
 741 1290 637 1208 596 1030 c 0
EndSplineSet
EndChar

StartChar: t.alt
Encoding: 65536 -1 226
GlifName: t.alt
Width: 950
VWidth: 2310
Flags: MW
Fore
SplineSet
82 1040 m 2
 224 1040 l 2
 233 1040 258 1040 258 1040 c 2
 258 1040 l 2
 258 1040 263 1041 266 1041 c 0
 391 1046 520 1185 559 1211 c 0
 599 1238 592 1236 656 1236 c 0
 705 1236 724 1234 715 1198 c 2
 684 1084 l 2
 675 1048 673 1040 718 1040 c 2
 866 1040 l 2
 895 1040 910 1038 910 1006 c 2
 910 884 l 2
 910 838 908 830 862 830 c 2
 656 830 l 2
 620 830 615 820 608 792 c 2
 486 324 l 2
 476 286 466 236 514 236 c 0
 559 236 603 285 656 378 c 0
 672 405 681 422 714 405 c 2
 810 355 l 2
 847 336 846 331 830 290 c 0
 748 79 566 -40 340 -40 c 0
 124 -40 30 60 72 252 c 2
 199 782 l 2
 206 812 213 830 170 830 c 2
 80 830 l 2
 41 830 20 832 20 875 c 2
 20 995 l 2
 20 1039 42 1040 82 1040 c 2
EndSplineSet
EndChar

StartChar: R.alt
Encoding: 65537 -1 227
GlifName: R_.alt
Width: 1810
Flags: MW
Fore
SplineSet
1556 0 m 2
 1324 0 l 2
 1096 0 1008 56 1008 176 c 0
 1008 278 1058 376 1058 480 c 0
 1058 582 984 610 854 610 c 2
 768 610 l 2
 698 610 708 584 697 530 c 2
 654 326 l 2
 644 277 633 270 696 270 c 2
 756 270 l 2
 817 270 840 284 840 218 c 2
 840 102 l 2
 840 24 856 0 772 0 c 2
 40 0 l 2
 -43 0 -60 -13 -60 74 c 2
 -60 222 l 2
 -60 272 -58 270 -8 270 c 2
 96 270 l 2
 178 270 166 294 180 358 c 2
 348 1146 l 2
 362 1209 385 1230 300 1230 c 2
 216 1230 l 2
 146 1230 160 1252 160 1318 c 2
 160 1454 l 2
 160 1520 205 1500 264 1500 c 2
 1118 1500 l 2
 1480 1500 1718 1420 1718 1160 c 0
 1718 963 1569 817 1350 776 c 0
 1240 755 1234 738 1354 720 c 0
 1471 703 1550 637 1550 554 c 0
 1550 454 1496 398 1496 338 c 0
 1496 296 1510 270 1556 270 c 2
 1588 270 l 2
 1639 270 1634 264 1634 214 c 2
 1634 90 l 2
 1634 8 1641 0 1556 0 c 2
840 890 m 2
 978 890 l 2
 1130 890 1238 992 1238 1112 c 0
 1238 1182 1170 1230 1078 1230 c 2
 904 1230 l 2
 836 1230 843 1215 832 1162 c 2
 790 966 l 2
 777 905 759 890 840 890 c 2
EndSplineSet
EndChar

StartChar: zero.oldstyle
Encoding: 65538 -1 228
GlifName: zero.oldstyle
Width: 1260
Flags: MW
Fore
SplineSet
50 520 m 0
 134 886 429 1060 735 1060 c 0
 1051 1060 1254 886 1170 520 c 0
 1086 154 761 -20 485 -20 c 0
 179 -20 -34 154 50 520 c 0
470 520 m 0
 414 276 434 180 532 180 c 0
 620 180 694 276 750 520 c 0
 806 764 777 860 689 860 c 0
 591 860 526 764 470 520 c 0
EndSplineSet
Substitution2: "'tnum' Tabular Numbers lookup 2 subtable" zero.oldtab
EndChar

StartChar: one.oldstyle
Encoding: 65539 -1 229
GlifName: one.oldstyle
Width: 1070
VWidth: 2310
Flags: MW
Fore
SplineSet
-60 42 m 2
 -30 174 l 2
 -23 206 -15 210 18 210 c 2
 236 210 l 2
 271 210 279 213 287 247 c 2
 389 687 l 2
 396 719 387 720 354 720 c 2
 160 720 l 2
 135 720 132 726 138 753 c 2
 171 895 l 2
 179 929 189 930 223 930 c 0
 413 931 541 946 680 1146 c 0
 695 1167 704 1180 738 1180 c 2
 840 1180 l 2
 886 1180 891 1175 880 1127 c 2
 675 238 l 2
 669 211 677 210 704 210 c 2
 910 210 l 2
 943 210 947 204 939 170 c 2
 912 52 l 2
 901 6 895 0 850 0 c 2
 -32 0 l 2
 -66 0 -68 7 -60 42 c 2
EndSplineSet
Substitution2: "'tnum' Tabular Numbers lookup 2 subtable" one.oldtab
EndChar

StartChar: two.oldstyle
Encoding: 65540 -1 230
GlifName: two.oldstyle
Width: 1313
VWidth: 2310
Flags: MW
Fore
SplineSet
1191 380 m 0
 1118 104 922 -60 749 -60 c 0
 535 -60 464 60 298 60 c 0
 233 60 176 35 139 -5 c 0
 115 -30 110 -40 65 -40 c 2
 -41 -40 l 2
 -74 -40 -74 -26 -65 3 c 0
 16 275 248 477 547 608 c 0
 682 667 748 742 771 840 c 0
 796 948 735 996 637 996 c 0
 559 996 517 968 511 944 c 0
 505 918 562 888 545 816 c 0
 514 682 386 600 282 600 c 0
 144 600 73 686 100 802 c 0
 147 1006 476 1140 750 1140 c 0
 1062 1140 1242 1050 1200 870 c 0
 1154 669 872 581 523 460 c 0
 346 399 244 309 174 207 c 0
 147 167 133 142 142 139 c 0
 148 137 163 165 197 197 c 0
 282 275 427 394 574 394 c 0
 724 394 758 326 880 326 c 0
 954 326 999 350 1020 387 c 0
 1032 408 1038 414 1064 414 c 2
 1166 414 l 2
 1193 414 1198 408 1191 380 c 0
EndSplineSet
Substitution2: "'tnum' Tabular Numbers lookup 2 subtable" two.oldtab
EndChar

StartChar: three.oldstyle
Encoding: 65541 -1 231
GlifName: three.oldstyle
Width: 1235
VWidth: 2310
Flags: MW
Fore
SplineSet
-20 -112 m 0
 -20 24 70 130 218 130 c 0
 352 130 422 58 422 -36 c 0
 422 -168 297 -168 297 -214 c 0
 297 -268 394 -296 472 -296 c 0
 620 -296 758 -198 758 10 c 0
 758 146 689 195 556 210 c 0
 518 214 504 203 504 247 c 2
 504 378 l 2
 504 417 513 409 547 412 c 0
 731 426 878 595 878 742 c 0
 878 850 780 886 652 886 c 0
 594 886 528 870 528 836 c 0
 528 790 662 800 662 658 c 0
 662 574 582 492 458 492 c 0
 340 492 220 568 220 714 c 0
 220 908 468 1060 782 1060 c 0
 1114 1060 1280 942 1280 752 c 0
 1280 528 1065 408 844 338 c 0
 800 324 770 329 770 315 c 0
 770 298 789 306 844 292 c 0
 1082 229 1150 161 1150 0 c 0
 1150 -300 784 -480 482 -480 c 0
 158 -480 -20 -306 -20 -112 c 0
EndSplineSet
Substitution2: "'tnum' Tabular Numbers lookup 2 subtable" three.oldtab
EndChar

StartChar: four.oldstyle
Encoding: 65542 -1 232
GlifName: four.oldstyle
Width: 1310
VWidth: 2310
Flags: MW
Fore
SplineSet
1140 -296 m 2
 1140 -424 l 2
 1140 -457 1132 -460 1098 -460 c 2
 366 -460 l 2
 319 -460 310 -459 310 -412 c 2
 310 -295 l 2
 310 -259 317 -250 354 -250 c 2
 533 -250 l 2
 577 -250 579 -240 590 -198 c 2
 615 -104 l 2
 628 -53 600 -50 546 -50 c 2
 88 -50 l 2
 45 -50 45 -42 31 -16 c 2
 0 42 l 2
 -12 63 -5 72 6 94 c 0
 163 408 795 588 898 984 c 0
 909 1026 910 1040 966 1040 c 2
 1236 1040 l 2
 1289 1040 1298 1035 1290 988 c 0
 1226 602 577 451 381 232 c 0
 354 202 329 160 407 160 c 2
 632 160 l 2
 667 160 667 174 680 204 c 2
 695 250 l 2
 712 289 711 294 742 311 c 0
 808 346 947 394 988 480 c 0
 997 500 1003 510 1034 510 c 2
 1100 510 l 2
 1131 510 1147 508 1140 478 c 2
 1078 218 l 2
 1070 187 1087 160 1124 160 c 2
 1254 160 l 2
 1286 160 1290 152 1290 122 c 2
 1290 6 l 2
 1290 -40 1290 -50 1244 -50 c 2
 1059 -50 l 2
 1018 -50 1016 -57 1005 -98 c 2
 979 -198 l 2
 968 -240 984 -250 1031 -250 c 2
 1096 -250 l 2
 1135 -250 1140 -256 1140 -296 c 2
EndSplineSet
Substitution2: "'tnum' Tabular Numbers lookup 2 subtable" four.oldtab
EndChar

StartChar: five.oldstyle
Encoding: 65543 -1 233
GlifName: five.oldstyle
Width: 1300
VWidth: 2310
Flags: MW
Fore
SplineSet
-5 -142 m 0
 -5 4 95 90 223 90 c 0
 347 90 427 8 427 -76 c 0
 427 -168 353 -208 353 -254 c 0
 353 -298 409 -316 487 -316 c 0
 645 -316 833 -68 833 140 c 0
 833 308 755 352 637 352 c 0
 558 352 446 303 360 195 c 0
 344 174 333 164 294 164 c 2
 230 164 l 2
 176 164 181 182 186 226 c 2
 458 1000 l 2
 470 1035 472 1040 514 1040 c 2
 789 1040 l 2
 990 1040 1152 1008 1218 1083 c 0
 1231 1098 1241 1104 1272 1104 c 2
 1377 1104 l 2
 1403 1104 1414 1097 1409 1074 c 2
 1401 1040 l 2
 1365 876 1229 660 755 660 c 2
 530 660 l 2
 492 660 495 649 483 618 c 2
 428 470 l 2
 414 435 388 390 396 386 c 0
 411 377 432 412 464 436 c 0
 540 492 670 540 811 540 c 0
 1113 540 1245 370 1245 140 c 0
 1245 -200 909 -480 527 -480 c 0
 223 -480 -5 -346 -5 -142 c 0
EndSplineSet
Substitution2: "'tnum' Tabular Numbers lookup 2 subtable" five.oldtab
EndChar

StartChar: seven.oldstyle
Encoding: 65544 -1 234
GlifName: seven.oldstyle
Width: 1203
VWidth: 2310
Flags: MW
Fore
SplineSet
155 522 m 0
 215 857 434 1060 635 1060 c 0
 829 1060 889 940 1055 940 c 0
 1123 940 1156 967 1176 1011 c 0
 1184 1029 1187 1040 1215 1040 c 2
 1344 1040 l 2
 1379 1040 1385 1033 1380 1000 c 0
 1357 845 1056 473 841 266 c 0
 698 128 593 52 593 -16 c 0
 593 -102 749 -82 749 -244 c 0
 749 -358 659 -480 511 -480 c 0
 363 -480 259 -406 259 -238 c 0
 259 -60 425 119 613 292 c 0
 713 384 861 515 967 640 c 0
 1000 679 1021 716 1011 726 c 0
 996 741 972 699 943 676 c 0
 896 638 839 606 755 606 c 0
 635 606 585 674 483 674 c 0
 396 674 341 622 331 520 c 0
 329 497 336 486 308 486 c 2
 192 486 l 2
 162 486 150 494 155 522 c 0
EndSplineSet
Substitution2: "'tnum' Tabular Numbers lookup 2 subtable" seven.oldtab
EndChar

StartChar: nine.oldstyle
Encoding: 65545 -1 235
GlifName: nine.oldstyle
Width: 1330
VWidth: 2310
Flags: MW
Fore
SplineSet
411 -282 m 0
 411 -309 439 -326 487 -326 c 0
 605 -326 760 -157 857 176 c 0
 867 211 875 225 869 229 c 0
 861 234 854 218 829 198 c 0
 741 126 616 80 486 80 c 0
 264 80 83 230 155 540 c 0
 240 910 525 1060 827 1060 c 0
 1149 1060 1421 870 1289 300 c 0
 1178 -180 823 -480 451 -480 c 0
 167 -480 38 -346 38 -182 c 0
 38 -42 140 50 269 50 c 0
 403 50 490 -12 490 -106 c 0
 490 -210 411 -236 411 -282 c 0
561 570 m 0
 518 382 587 318 695 318 c 0
 801 318 917 420 954 580 c 0
 990 738 952 830 824 830 c 0
 706 830 602 748 561 570 c 0
EndSplineSet
Substitution2: "'tnum' Tabular Numbers lookup 2 subtable" nine.oldtab
EndChar

StartChar: zero.oldtab
Encoding: 65546 -1 236
GlifName: zero.oldtab
Width: 1400
Flags: MW
Fore
SplineSet
120 520 m 0
 204 886 499 1060 805 1060 c 0
 1121 1060 1324 886 1240 520 c 0
 1156 154 831 -20 555 -20 c 0
 249 -20 36 154 120 520 c 0
540 520 m 0
 484 276 504 180 602 180 c 0
 690 180 764 276 820 520 c 0
 876 764 847 860 759 860 c 0
 661 860 596 764 540 520 c 0
EndSplineSet
EndChar

StartChar: one.oldtab
Encoding: 65547 -1 237
GlifName: one.oldtab
Width: 1400
VWidth: 2310
Flags: MW
Fore
SplineSet
105 42 m 2
 135 174 l 2
 142 206 150 210 183 210 c 2
 401 210 l 2
 436 210 444 213 452 247 c 2
 554 687 l 2
 561 719 552 720 519 720 c 2
 325 720 l 2
 300 720 297 726 303 753 c 2
 336 895 l 2
 344 929 354 930 388 930 c 0
 578 931 706 946 845 1146 c 0
 860 1167 869 1180 903 1180 c 2
 1005 1180 l 2
 1051 1180 1056 1175 1045 1127 c 2
 840 238 l 2
 834 211 842 210 869 210 c 2
 1075 210 l 2
 1108 210 1112 204 1104 170 c 2
 1077 52 l 2
 1066 6 1060 0 1015 0 c 2
 133 0 l 2
 99 0 97 7 105 42 c 2
EndSplineSet
EndChar

StartChar: two.oldtab
Encoding: 65548 -1 238
GlifName: two.oldtab
Width: 1400
VWidth: 2310
Flags: MW
Fore
SplineSet
1235 380 m 0
 1162 104 966 -60 793 -60 c 0
 579 -60 508 60 342 60 c 0
 277 60 220 35 183 -5 c 0
 159 -30 154 -40 109 -40 c 2
 3 -40 l 2
 -30 -40 -30 -26 -21 3 c 0
 60 275 292 477 591 608 c 0
 726 667 792 742 815 840 c 0
 840 948 779 996 681 996 c 0
 603 996 561 968 555 944 c 0
 549 918 606 888 589 816 c 0
 558 682 430 600 326 600 c 0
 188 600 117 686 144 802 c 0
 191 1006 520 1140 794 1140 c 0
 1106 1140 1286 1050 1244 870 c 0
 1198 669 916 581 567 460 c 0
 390 399 288 309 218 207 c 0
 191 167 177 142 186 139 c 0
 192 137 207 165 241 197 c 0
 326 275 471 394 618 394 c 0
 768 394 802 326 924 326 c 0
 998 326 1043 350 1064 387 c 0
 1076 408 1082 414 1108 414 c 2
 1210 414 l 2
 1237 414 1242 408 1235 380 c 0
EndSplineSet
EndChar

StartChar: three.oldtab
Encoding: 65549 -1 239
GlifName: three.oldtab
Width: 1400
VWidth: 2310
Flags: MW
Fore
SplineSet
62 -112 m 0
 62 24 152 130 300 130 c 0
 434 130 504 58 504 -36 c 0
 504 -168 379 -168 379 -214 c 0
 379 -268 476 -296 554 -296 c 0
 702 -296 840 -198 840 10 c 0
 840 146 771 195 638 210 c 0
 600 214 586 203 586 247 c 2
 586 378 l 2
 586 417 595 409 629 412 c 0
 813 426 960 595 960 742 c 0
 960 850 862 886 734 886 c 0
 676 886 610 870 610 836 c 0
 610 790 744 800 744 658 c 0
 744 574 664 492 540 492 c 0
 422 492 302 568 302 714 c 0
 302 908 550 1060 864 1060 c 0
 1196 1060 1362 942 1362 752 c 0
 1362 528 1147 408 926 338 c 0
 882 324 852 329 852 315 c 0
 852 298 871 306 926 292 c 0
 1164 229 1232 161 1232 0 c 0
 1232 -300 866 -480 564 -480 c 0
 240 -480 62 -306 62 -112 c 0
EndSplineSet
EndChar

StartChar: four.oldtab
Encoding: 65550 -1 240
GlifName: four.oldtab
Width: 1400
VWidth: 2310
Flags: MW
Fore
SplineSet
1185 -296 m 2
 1185 -424 l 2
 1185 -457 1177 -460 1143 -460 c 2
 411 -460 l 2
 364 -460 355 -459 355 -412 c 2
 355 -295 l 2
 355 -259 362 -250 399 -250 c 2
 578 -250 l 2
 622 -250 624 -240 635 -198 c 2
 660 -104 l 2
 673 -53 645 -50 591 -50 c 2
 133 -50 l 2
 90 -50 90 -42 76 -16 c 2
 45 42 l 2
 33 63 40 72 51 94 c 0
 208 408 840 588 943 984 c 0
 954 1026 955 1040 1011 1040 c 2
 1281 1040 l 2
 1334 1040 1343 1035 1335 988 c 0
 1271 602 622 451 426 232 c 0
 399 202 374 160 452 160 c 2
 677 160 l 2
 712 160 712 174 725 204 c 2
 740 250 l 2
 757 289 756 294 787 311 c 0
 853 346 992 394 1033 480 c 0
 1042 500 1048 510 1079 510 c 2
 1145 510 l 2
 1176 510 1192 508 1185 478 c 2
 1123 218 l 2
 1115 187 1132 160 1169 160 c 2
 1299 160 l 2
 1331 160 1335 152 1335 122 c 2
 1335 6 l 2
 1335 -40 1335 -50 1289 -50 c 2
 1104 -50 l 2
 1063 -50 1061 -57 1050 -98 c 2
 1024 -198 l 2
 1013 -240 1029 -250 1076 -250 c 2
 1141 -250 l 2
 1180 -250 1185 -256 1185 -296 c 2
EndSplineSet
EndChar

StartChar: five.oldtab
Encoding: 65551 -1 241
GlifName: five.oldtab
Width: 1400
VWidth: 2310
Flags: MW
Fore
SplineSet
45 -142 m 0
 45 4 145 90 273 90 c 0
 397 90 477 8 477 -76 c 0
 477 -168 403 -208 403 -254 c 0
 403 -298 459 -316 537 -316 c 0
 695 -316 883 -68 883 140 c 0
 883 308 805 352 687 352 c 0
 608 352 496 303 410 195 c 0
 394 174 383 164 344 164 c 2
 280 164 l 2
 226 164 231 182 236 226 c 2
 508 1000 l 2
 520 1035 522 1040 564 1040 c 2
 839 1040 l 2
 1040 1040 1202 1008 1268 1083 c 0
 1281 1098 1291 1104 1322 1104 c 2
 1427 1104 l 2
 1453 1104 1464 1097 1459 1074 c 2
 1451 1040 l 2
 1415 876 1279 660 805 660 c 2
 580 660 l 2
 542 660 545 649 533 618 c 2
 478 470 l 2
 464 435 438 390 446 386 c 0
 461 377 482 412 514 436 c 0
 590 492 720 540 861 540 c 0
 1163 540 1295 370 1295 140 c 0
 1295 -200 959 -480 577 -480 c 0
 273 -480 45 -346 45 -142 c 0
EndSplineSet
EndChar

StartChar: seven.oldtab
Encoding: 65552 -1 242
GlifName: seven.oldtab
Width: 1400
VWidth: 2310
Flags: MW
Fore
SplineSet
253 522 m 0
 313 857 532 1060 733 1060 c 0
 927 1060 987 940 1153 940 c 0
 1221 940 1254 967 1274 1011 c 0
 1282 1029 1285 1040 1313 1040 c 2
 1442 1040 l 2
 1477 1040 1483 1033 1478 1000 c 0
 1455 845 1154 473 939 266 c 0
 796 128 691 52 691 -16 c 0
 691 -102 847 -82 847 -244 c 0
 847 -358 757 -480 609 -480 c 0
 461 -480 357 -406 357 -238 c 0
 357 -60 523 119 711 292 c 0
 811 384 959 515 1065 640 c 0
 1098 679 1119 716 1109 726 c 0
 1094 741 1070 699 1041 676 c 0
 994 638 937 606 853 606 c 0
 733 606 683 674 581 674 c 0
 494 674 439 622 429 520 c 0
 427 497 434 486 406 486 c 2
 290 486 l 2
 260 486 248 494 253 522 c 0
EndSplineSet
EndChar

StartChar: nine.oldtab
Encoding: 65553 -1 243
GlifName: nine.oldtab
Width: 1400
VWidth: 2310
Flags: MW
Fore
SplineSet
446 -282 m 0
 446 -309 474 -326 522 -326 c 0
 640 -326 795 -157 892 176 c 0
 902 211 910 225 904 229 c 0
 896 234 889 218 864 198 c 0
 776 126 651 80 521 80 c 0
 299 80 118 230 190 540 c 0
 275 910 560 1060 862 1060 c 0
 1184 1060 1456 870 1324 300 c 0
 1213 -180 858 -480 486 -480 c 0
 202 -480 73 -346 73 -182 c 0
 73 -42 175 50 304 50 c 0
 438 50 525 -12 525 -106 c 0
 525 -210 446 -236 446 -282 c 0
596 570 m 0
 553 382 622 318 730 318 c 0
 836 318 952 420 989 580 c 0
 1025 738 987 830 859 830 c 0
 741 830 637 748 596 570 c 0
EndSplineSet
EndChar

StartChar: Eth
Encoding: 208 208 266
GlifName: E_th
Width: 1916
Flags: MW
Fore
SplineSet
116 900 m 2
 1001 900 l 2
 1034 900 1038 896 1038 872 c 2
 1038 703 l 2
 1038 679 1035 670 998 670 c 2
 113 670 l 2
 78 670 76 674 76 700 c 2
 76 872 l 2
 76 895 86 900 116 900 c 2
EndSplineSet
Refer: 15 68 N 1 0 0 1 0 0 2
EndChar

StartChar: AE
Encoding: 198 198 267
GlifName: A_E_
Width: 2808
Flags: MW
Fore
SplineSet
1535 1230 m 1
 1435 1230 1418 1219 1367 1168 c 2
 923 718 l 2
 897 691 875 670 938 670 c 2
 1516 670 l 17
 1476 420 l 9
 682 420 l 2
 649 420 637 417 621 400 c 2
 528 304 l 2
 510 286 514 270 556 270 c 2
 696 270 l 2
 718 270 730 266 730 242 c 2
 730 38 l 2
 730 5 724 0 690 0 c 2
 -72 0 l 2
 -103 0 -100 4 -100 34 c 2
 -100 232 l 2
 -100 261 -99 270 -70 270 c 2
 108 270 l 2
 145 270 152 284 169 304 c 2
 1272 1472 l 2
 1288 1488 1319 1500 1353 1500 c 2
 1388 1500 l 1
 1535 1230 l 1
EndSplineSet
Refer: 16 69 N 1 0 0 1 1190 0 2
EndChar

StartChar: germandbls
Encoding: 223 223 268
GlifName: germandbls
Width: 1753
VWidth: 2309
Flags: MW
Fore
SplineSet
1642 320 m 0
 1642 93 1299 -20 1057 -20 c 0
 774 -20 651 102 651 271 c 0
 651 392 758 472 888 472 c 0
 1009 472 1093 412 1093 300 c 0
 1093 271 1069 241 1049 229 c 0
 1014 208 996 199 1045 187 c 0
 1063 183 1082 183 1099 183 c 0
 1157 183 1232 220 1232 290 c 0
 1232 508 945 581 945 797 c 0
 945 1020 1297 1039 1297 1233 c 0
 1297 1312 1279 1383 1111 1383 c 0
 863 1383 762 1246 691 962 c 2
 466 59 l 2
 451 -1 434 0 378 0 c 2
 -42 0 l 2
 -83 0 -84 8 -84 49 c 2
 -84 169 l 2
 -84 206 -70 213 -34 213 c 2
 74 213 l 2
 118 213 128 230 138 271 c 2
 315 982 l 2
 401 1328 731 1570 1157 1570 c 0
 1493 1570 1713 1424 1713 1242 c 0
 1713 1016 1318 960 1318 857 c 0
 1318 727 1642 602 1642 320 c 0
EndSplineSet
EndChar

StartChar: Thorn
Encoding: 222 222 269
GlifName: T_horn
Width: 1594
Flags: MW
Fore
SplineSet
703 812 m 2
 679 704 l 2
 672 671 660 645 708 645 c 2
 814 645 l 2
 966 645 1054 687 1054 775 c 0
 1054 833 1006 855 934 855 c 2
 752 855 l 2
 707 855 711 848 703 812 c 2
-100 33 m 2
 -100 239 l 2
 -100 269 -91 270 -60 270 c 2
 88 270 l 2
 126 270 123 277 130 307 c 2
 325 1189 l 2
 333 1224 330 1230 290 1230 c 2
 158 1230 l 2
 119 1230 116 1237 116 1277 c 2
 116 1464 l 2
 116 1494 122 1500 150 1500 c 2
 1054 1500 l 2
 1085 1500 1086 1491 1086 1459 c 2
 1086 1273 l 2
 1086 1235 1079 1230 1042 1230 c 2
 826 1230 l 2
 793 1230 794 1227 788 1201 c 2
 780 1164 l 2
 773 1133 773 1125 822 1125 c 2
 1024 1125 l 2
 1406 1125 1554 1025 1554 795 c 0
 1554 405 1186 375 824 375 c 2
 644 375 l 2
 617 375 606 374 601 352 c 2
 593 315 l 2
 584 275 587 270 638 270 c 2
 816 270 l 2
 853 270 860 267 860 231 c 2
 860 51 l 2
 860 5 854 0 810 0 c 2
 -60 0 l 2
 -91 0 -100 2 -100 33 c 2
EndSplineSet
EndChar

StartChar: Oslash
Encoding: 216 216 275
GlifName: O_slash
Width: 1900
Flags: MW
Fore
SplineSet
1365 1660 m 2
 1478 1660 l 2
 1536 1660 1520 1637 1504 1606 c 2
 580 -162 l 2
 564 -192 555 -200 507 -200 c 2
 417 -200 l 2
 347 -200 338 -189 359 -148 c 2
 1292 1618 l 2
 1308 1648 1316 1660 1365 1660 c 2
EndSplineSet
Refer: 26 79 N 1 0 0 1 0 0 2
EndChar

StartChar: ae
Encoding: 230 230 291
GlifName: ae
Width: 1921
VWidth: 2310
Flags: MW
Fore
SplineSet
1189 569 m 0
 1383 593 1503 664 1503 808 c 0
 1503 846 1487 884 1429 884 c 0
 1332 884 1200 744 1164 573 c 0
 1162 563 1175 567 1189 569 c 0
689 408 m 2
 692 422 694 437 676 437 c 2
 668 437 l 2
 576 437 468 360 450 286 c 0
 437 232 455 199 515 199 c 0
 601 199 649 250 682 382 c 2
 689 408 l 2
-34 246 m 0
 23 474 296 588 640 588 c 2
 708 588 l 2
 731 588 734 590 740 614 c 2
 770 734 l 2
 796 838 742 888 652 888 c 0
 622 888 565 881 565 858 c 0
 565 834 601 847 601 756 c 0
 601 644 491 600 383 600 c 0
 261 600 173 645 173 756 c 0
 173 992 543 1060 825 1060 c 0
 927 1060 1012 1045 1073 1013 c 0
 1100 999 1103 1002 1135 1016 c 0
 1230 1057 1339 1080 1459 1080 c 0
 1743 1080 1905 970 1905 806 c 0
 1905 516 1468 423 1150 395 c 0
 1135 394 1126 391 1125 383 c 1
 1111 260 1131 166 1261 166 c 0
 1360 166 1430 218 1504 322 c 0
 1515 337 1522 346 1546 346 c 2
 1758 346 l 2
 1786 346 1790 342 1780 320 c 0
 1656 65 1420 -40 1166 -40 c 0
 982 -40 894 31 831 127 c 0
 807 163 794 163 767 141 c 0
 685 76 591 -20 290 -20 c 0
 62 -20 -78 68 -34 246 c 0
EndSplineSet
EndChar

StartChar: eth
Encoding: 240 240 292
GlifName: eth
Width: 1340
VWidth: 2310
Flags: MW
Fore
SplineSet
437 510 m 0
 383 292 386 170 544 170 c 0
 682 170 840 361 912 650 c 0
 952 810 888 882 762 882 c 0
 604 882 494 738 437 510 c 0
37 510 m 0
 119 840 410 1060 762 1060 c 0
 874 1060 927 1039 956 1011 c 0
 972 995 981 976 990 980 c 0
 998 984 998 997 1004 1030 c 0
 1047 1265 787 1438 758 1454 c 0
 744 1462 735 1462 747 1480 c 2
 852 1601 l 2
 863 1617 869 1619 883 1612 c 0
 1120 1489 1436 1145 1325 700 c 0
 1198 190 839 -20 517 -20 c 0
 115 -20 -43 190 37 510 c 0
EndSplineSet
Refer: 85 45 N 0.749531 0.661969 -0.661969 0.749531 1228 515 2
EndChar

StartChar: oslash
Encoding: 248 248 299
GlifName: oslash
Width: 1298
VWidth: 0
Flags: MW
Fore
SplineSet
997 1215 m 2
 1110 1215 l 2
 1168 1215 1152 1197 1136 1174 c 2
 212 -161 l 2
 196 -184 187 -189 139 -189 c 2
 49 -189 l 2
 -21 -189 -30 -181 -9 -150 c 2
 924 1183 l 2
 940 1206 948 1215 997 1215 c 2
EndSplineSet
Refer: 52 111 N 1 0 0 1 0 0 2
EndChar

StartChar: thorn
Encoding: 254 254 305
GlifName: thorn
Width: 1422
VWidth: 2310
Flags: MW
Fore
SplineSet
194 1560 m 2
 710 1560 l 2
 744 1560 757 1558 748 1528 c 2
 608 940 l 2
 595 898 597 887 639 931 c 0
 724 1020 832 1078 978 1078 c 0
 1176 1078 1342 958 1342 658 c 0
 1342 218 996 -40 758 -40 c 0
 652 -40 565 -8 506 57 c 0
 469 97 458 79 449 40 c 2
 339 -448 l 2
 329 -492 321 -500 268 -500 c 2
 -18 -500 l 2
 -91 -500 -89 -480 -77 -426 c 2
 320 1306 l 2
 328 1341 329 1350 282 1350 c 2
 194 1350 l 2
 150 1350 148 1358 148 1402 c 2
 148 1518 l 2
 148 1557 158 1560 194 1560 c 2
536 398 m 0
 536 288 558 198 614 198 c 0
 740 198 872 430 872 678 c 0
 872 806 844 850 784 850 c 0
 702 850 536 666 536 398 c 0
EndSplineSet
EndChar

StartChar: Dcroat
Encoding: 272 272 323
GlifName: D_croat
Width: 1916
Flags: MW
Fore
SplineSet
116 900 m 2
 1001 900 l 2
 1034 900 1038 896 1038 872 c 2
 1038 703 l 2
 1038 679 1035 670 998 670 c 2
 113 670 l 2
 78 670 76 674 76 700 c 2
 76 872 l 2
 76 895 86 900 116 900 c 2
EndSplineSet
Refer: 15 68 N 1 0 0 1 0 0 2
EndChar

StartChar: dcroat
Encoding: 273 273 324
GlifName: dcroat
Width: 1486
VWidth: 2309
Flags: MW
Fore
SplineSet
771 1290 m 2
 1439 1290 l 2
 1464 1290 1467 1286 1467 1262 c 2
 1467 1093 l 2
 1467 1069 1465 1060 1437 1060 c 2
 769 1060 l 2
 742 1060 741 1064 741 1090 c 2
 741 1262 l 2
 741 1285 749 1290 771 1290 c 2
EndSplineSet
Refer: 41 100 N 1 0 0 1 0 0 2
EndChar

StartChar: gcircumflex
Encoding: 285 285 336
GlifName: gcircumflex
Width: 1318
VWidth: 2310
Flags: MW
Fore
SplineSet
-150 -310 m 0
 -150 -188 -41 -106 97 -56 c 0
 157 -34 138 -40 104 -2 c 0
 73 32 54 74 54 122 c 0
 54 247 146 331 254 383 c 0
 316 413 312 402 266 444 c 0
 213 492 182 555 182 634 c 0
 182 932 492 1080 764 1080 c 0
 766 1080 768 1080 770 1080 c 0
 791 1079 803 1094 824 1108 c 0
 932 1180 1006 1224 1190 1224 c 0
 1272 1224 1398 1178 1398 1084 c 0
 1398 1016 1360 952 1242 952 c 0
 1146 952 1110 1015 1110 1053 c 0
 1110 1079 1138 1107 1104 1107 c 0
 1057 1107 1019 1096 998 1081 c 0
 978 1066 975 1046 996 1039 c 0
 1118 996 1176 919 1176 792 c 0
 1176 492 876 340 602 340 c 0
 572 340 542 342 513 345 c 0
 471 350 451 354 428 326 c 0
 418 313 412 298 412 280 c 0
 412 258 428 238 486 238 c 0
 536 238 772 240 828 240 c 0
 1020 240 1130 148 1130 -18 c 0
 1130 -389 770 -530 384 -530 c 0
 48 -530 -150 -454 -150 -310 c 0
285 -130 m 0
 255 -159 236 -192 236 -230 c 0
 236 -304 326 -326 464 -326 c 0
 637 -326 756 -286 756 -176 c 0
 756 -130 712 -118 600 -118 c 0
 558 -118 456 -118 412 -118 c 0
 391 -118 370 -117 348 -114 c 0
 313 -110 305 -110 285 -130 c 0
586 604 m 0
 586 554 602 520 644 520 c 0
 730 520 792 690 792 816 c 0
 792 866 774 900 732 900 c 0
 646 900 586 730 586 604 c 0
EndSplineSet
Refer: 112 770 N 1 0 0 1 40 -370 2
Substitution2: "'smcp' Lowercase to Small Capitals in Latin lookup 0 subtable" gcircumflex.sc
EndChar

StartChar: gbreve
Encoding: 287 287 338
GlifName: gbreve
Width: 1135
VWidth: 0
Flags: MW
Fore
SplineSet
482 1238 m 0
 293 1238 252 1363 295 1577 c 0
 299 1594 304 1596 320 1596 c 2
 426 1596 l 2
 439 1596 441 1593 440 1580 c 0
 438 1540 442 1498 533 1498 c 0
 619 1498 641 1536 659 1567 c 0
 669 1585 671 1596 693 1596 c 2
 802 1596 l 2
 822 1596 822 1592 816 1572 c 0
 766 1362 668 1238 482 1238 c 0
EndSplineSet
Refer: 44 103 N 1 0 0 1 0 0 3
Substitution2: "'smcp' Lowercase to Small Capitals in Latin lookup 0 subtable" gbreve.sc
EndChar

StartChar: Hbar
Encoding: 294 294 343
GlifName: H_bar
Width: 1966
Flags: MW
Fore
SplineSet
194 1180 m 2
 1951 1180 l 2
 2016 1180 2024 1176 2024 1152 c 2
 2024 983 l 2
 2024 959 2018 950 1945 950 c 2
 189 950 l 2
 119 950 116 954 116 980 c 2
 116 1152 l 2
 116 1175 135 1180 194 1180 c 2
EndSplineSet
Refer: 19 72 N 1 0 0 1 0 0 2
EndChar

StartChar: hbar
Encoding: 295 295 344
GlifName: hbar
Width: 1432
VWidth: 2309
Flags: MW
Fore
SplineSet
2 1302 m 2
 763 1302 l 2
 791 1302 795 1298 795 1274 c 2
 795 1105 l 2
 795 1081 793 1072 761 1072 c 2
 -1 1072 l 2
 -31 1072 -32 1076 -32 1102 c 2
 -32 1274 l 2
 -32 1297 -24 1302 2 1302 c 2
EndSplineSet
Refer: 45 104 N 1 0 0 1 0 0 2
EndChar

StartChar: hcircumflex
Encoding: 293 293 346
GlifName: hcircumflex
Width: 1432
VWidth: 2310
Flags: MW
Fore
SplineSet
875 1175 m 2
 809 1245 l 2
 796 1259 798 1262 813 1279 c 2
 1037 1537 l 2
 1051 1553 1063 1554 1089 1554 c 2
 1256 1554 l 2
 1280 1554 1289 1551 1295 1537 c 2
 1410 1280 l 2
 1415 1269 1412 1258 1401 1245 c 2
 1336 1171 l 2
 1321 1154 1319 1158 1306 1170 c 2
 1160 1315 l 2
 1146 1328 1134 1329 1115 1316 c 2
 906 1169 l 2
 890 1158 885 1164 875 1175 c 2
EndSplineSet
Refer: 45 104 N 1 0 0 1 0 0 3
Substitution2: "'smcp' Lowercase to Small Capitals in Latin lookup 0 subtable" hcircumflex.sc
EndChar

StartChar: uni0237
Encoding: 567 567 358
GlifName: uni0237
Width: 858
VWidth: 2310
Flags: MW
AnchorPoint: "Anchor-0" 513 1040 basechar 0
Fore
SplineSet
760 970 m 2
 536 0 l 2
 458 -322 322 -520 -78 -520 c 0
 -360 -520 -514 -382 -514 -248 c 0
 -514 -92 -376 -14 -248 -14 c 0
 -112 -14 -18 -76 -18 -190 c 0
 -18 -282 -76 -290 -76 -318 c 0
 -76 -330 -56 -340 -22 -340 c 0
 118 -340 92 -128 170 206 c 2
 294 764 l 2
 305 815 303 830 235 830 c 2
 155 830 l 2
 110 830 106 846 106 888 c 2
 106 982 l 2
 106 1033 112 1040 161 1040 c 2
 703 1040 l 2
 779 1040 773 1027 760 970 c 2
EndSplineSet
EndChar

StartChar: kgreenlandic
Encoding: 312 312 363
GlifName: kgreenlandic
Width: 1524
VWidth: 2310
Flags: MW
Fore
SplineSet
1440 296 m 0
 1328 63 1133 -50 940 -50 c 0
 749 -50 649 21 670 192 c 2
 684 320 l 2
 688 351 690 383 693 414 c 0
 695 436 687 438 662 431 c 0
 644 426 625 424 604 424 c 0
 577 424 553 432 533 446 c 0
 508 463 505 455 500 434 c 2
 412 52 l 2
 402 9 407 0 352 0 c 2
 38 0 l 2
 -29 0 -18 8 -6 60 c 2
 159 774 l 2
 170 821 172 830 110 830 c 2
 38 830 l 2
 -5 830 -10 836 -10 878 c 2
 -10 978 l 2
 -10 1037 -1 1040 56 1040 c 2
 558 1040 l 2
 622 1040 638 1031 622 962 c 2
 580 780 l 2
 575 760 561 731 604 745 c 0
 630 754 659 758 692 758 c 0
 701 758 710 758 719 757 c 0
 739 755 738 760 745 775 c 0
 748 781 751 787 754 794 c 0
 838 966 956 1080 1136 1080 c 0
 1358 1080 1464 972 1464 828 c 0
 1464 700 1358 598 1238 598 c 0
 1122 598 1022 666 1022 756 c 0
 1022 820 1048 850 1048 872 c 0
 1048 888 1036 890 1026 890 c 0
 994 890 965 855 914 750 c 0
 912 745 908 740 906 734 c 0
 899 718 899 702 928 682 c 0
 1041 605 1117 477 1098 336 c 2
 1090 278 l 2
 1086 250 1091 234 1120 234 c 0
 1148 234 1198 264 1261 392 c 0
 1273 417 1279 420 1312 405 c 2
 1426 351 l 2
 1453 338 1457 331 1440 296 c 0
EndSplineSet
EndChar

StartChar: Lslash
Encoding: 321 321 372
GlifName: L_slash
Width: 1455
Flags: MW
Fore
SplineSet
34 736 m 2
 1068 1139 l 2
 1089 1148 1101 1152 1101 1122 c 2
 1101 913 l 2
 1101 888 1099 884 1078 871 c 2
 40 465 l 2
 20 453 10 454 10 484 c 2
 10 695 l 2
 10 725 17 725 34 736 c 2
EndSplineSet
Refer: 23 76 N 1 0 0 1 0 0 2
EndChar

StartChar: lslash
Encoding: 322 322 373
GlifName: lslash
Width: 815
VWidth: 2310
Flags: MW
Fore
SplineSet
-45 906 m 2
 749 1179 l 2
 770 1188 782 1192 782 1162 c 2
 782 953 l 2
 782 928 780 924 759 911 c 2
 -39 635 l 2
 -59 623 -69 624 -69 654 c 2
 -69 865 l 2
 -69 895 -62 895 -45 906 c 2
EndSplineSet
Refer: 49 108 N 1 0 0 1 0 0 2
EndChar

StartChar: Eng
Encoding: 330 330 381
GlifName: E_ng
Width: 1966
Flags: MW
Fore
SplineSet
196 1500 m 2
 862 1500 l 2
 898 1500 908 1492 901 1462 c 2
 826 1220 l 2
 814 1170 823 1161 862 1212 c 0
 976 1364 1148 1538 1412 1538 c 0
 1670 1538 1890 1482 1816 1142 c 2
 1568 0 l 2
 1498 -324 1282 -520 882 -520 c 0
 600 -520 446 -382 446 -248 c 0
 446 -92 584 -14 712 -14 c 0
 848 -14 942 -76 942 -190 c 0
 942 -282 884 -290 884 -318 c 0
 884 -330 904 -340 938 -340 c 0
 1078 -340 1055 -125 1130 206 c 2
 1324 1080 l 2
 1354 1210 1336 1286 1214 1286 c 0
 1047 1286 783 958 729 701 c 2
 592 48 l 2
 583 7 573 0 524 0 c 2
 -86 0 l 2
 -113 0 -119 5 -119 34 c 2
 -119 240 l 2
 -119 262 -116 270 -95 270 c 2
 124 270 l 2
 155 270 152 276 157 300 c 2
 352 1174 l 2
 363 1222 364 1230 301 1230 c 2
 203 1230 l 2
 161 1230 156 1238 156 1278 c 2
 156 1456 l 2
 156 1493 160 1500 196 1500 c 2
EndSplineSet
EndChar

StartChar: eng
Encoding: 331 331 382
GlifName: eng
Width: 1598
VWidth: 2310
Flags: MW
Fore
SplineSet
80 1040 m 2
 612 1040 l 2
 648 1040 658 1032 651 1002 c 2
 616 860 l 2
 604 810 613 801 652 852 c 0
 766 1004 898 1078 1052 1078 c 0
 1210 1078 1393 1021 1314 682 c 2
 1156 0 l 2
 1081 -323 942 -520 542 -520 c 0
 260 -520 106 -382 106 -248 c 0
 106 -92 244 -14 372 -14 c 0
 508 -14 602 -76 602 -190 c 0
 602 -282 544 -290 544 -318 c 0
 544 -330 564 -340 598 -340 c 0
 738 -340 715 -125 790 206 c 2
 884 620 l 2
 914 750 926 826 854 826 c 0
 737 826 588 597 529 341 c 2
 462 48 l 2
 453 7 443 0 394 0 c 2
 96 0 l 2
 28 0 32 11 44 62 c 2
 209 774 l 2
 220 822 221 830 158 830 c 2
 87 830 l 2
 45 830 40 838 40 878 c 2
 40 996 l 2
 40 1033 44 1040 80 1040 c 2
EndSplineSet
EndChar

StartChar: OE
Encoding: 338 338 389
GlifName: O_E_
Width: 2549
Flags: MW
Fore
SplineSet
1191 1500 m 1
 1167 1230 l 1
 977 1230 l 2
 829 1230 678 1114 601 750 c 0
 524 386 597 270 735 270 c 2
 895 270 l 1
 872 0 l 1
 652 0 l 2
 206 0 0 324 91 750 c 0
 182 1176 545 1500 971 1500 c 2
 1191 1500 l 1
EndSplineSet
Refer: 16 69 N 1 0 0 1 932 0 2
EndChar

StartChar: Tbar
Encoding: 358 358 409
GlifName: T_bar
Width: 1628
Flags: MW
Fore
SplineSet
377 828 m 2
 1262 828 l 2
 1295 828 1299 824 1299 800 c 2
 1299 631 l 2
 1299 607 1296 598 1259 598 c 2
 374 598 l 2
 339 598 338 602 338 628 c 2
 338 800 l 2
 338 823 347 828 377 828 c 2
EndSplineSet
Refer: 31 84 N 1 0 0 1 -0 0 2
EndChar

StartChar: tbar
Encoding: 359 359 410
GlifName: tbar
Width: 906
VWidth: 2309
Flags: MW
Fore
SplineSet
-62 730 m 2
 742 730 l 2
 772 730 775 726 775 702 c 2
 775 533 l 2
 775 509 772 500 739 500 c 2
 -65 500 l 2
 -97 500 -98 504 -98 530 c 2
 -98 702 l 2
 -98 725 -89 730 -62 730 c 2
EndSplineSet
Refer: 57 116 N 1 0 0 1 0 0 2
EndChar

StartChar: longs
Encoding: 383 383 434
GlifName: longs
Width: 980
VWidth: 2310
Flags: MW
Fore
SplineSet
13 -233 m 2
 290 1144 l 2
 364 1508 664 1600 964 1600 c 0
 1226 1600 1430 1482 1430 1308 c 0
 1430 1162 1302 1074 1174 1074 c 0
 1058 1074 944 1136 944 1260 c 0
 944 1352 1000 1376 1000 1400 c 0
 1000 1412 982 1420 958 1420 c 0
 878 1420 751 1356 700 1100 c 2
 432 -242 l 2
 422 -294 414 -300 350 -300 c 2
 74 -300 l 2
 6 -300 2 -285 13 -233 c 2
EndSplineSet
EndChar

StartChar: circumflex
Encoding: 710 710 453
Width: 1000
Flags: MW
Fore
SplineSet
621 1640 m 2
 548 1710 l 2
 534 1724 537 1727 553 1744 c 2
 800 2002 l 2
 815 2018 828 2019 857 2019 c 2
 1042 2019 l 2
 1068 2019 1077 2016 1084 2002 c 2
 1211 1745 l 2
 1217 1734 1213 1723 1201 1710 c 2
 1130 1636 l 2
 1113 1619 1111 1623 1097 1635 c 2
 936 1780 l 2
 921 1793 907 1794 886 1781 c 2
 655 1634 l 2
 637 1623 632 1629 621 1640 c 2
EndSplineSet
EndChar

StartChar: quotesinglbase
Encoding: 8218 8218 454
Width: 590
Flags: MW
Fore
SplineSet
-32 172 m 0
 -32 316 86 406 222 406 c 0
 360 406 500 324 500 98 c 0
 500 -163 190 -299 -47 -311 c 0
 -82 -313 -86 -311 -86 -276 c 2
 -86 -170 l 2
 -86 -146 -77 -153 -56 -151 c 0
 60 -142 235 -101 302 -24 c 0
 335 13 308 19 278 1 c 0
 247 -17 208 -30 156 -30 c 0
 40 -30 -32 46 -32 172 c 0
EndSplineSet
EndChar

StartChar: quotedblbase
Encoding: 8222 8222 456
Width: 1324
Flags: MW
Fore
SplineSet
-32 172 m 0
 -32 316 86 406 222 406 c 0
 360 406 500 324 500 98 c 0
 500 -163 190 -299 -47 -311 c 0
 -82 -313 -86 -311 -86 -276 c 2
 -86 -170 l 2
 -86 -146 -77 -153 -56 -151 c 0
 60 -142 235 -101 302 -24 c 0
 335 13 308 19 278 1 c 0
 247 -17 208 -30 156 -30 c 0
 40 -30 -32 46 -32 172 c 0
588 172 m 0
 588 316 706 406 842 406 c 0
 980 406 1120 324 1120 98 c 0
 1120 -163 810 -299 573 -311 c 0
 538 -313 534 -311 534 -276 c 2
 534 -170 l 2
 534 -146 543 -153 564 -151 c 0
 680 -142 855 -101 922 -24 c 0
 955 13 928 19 898 1 c 0
 867 -17 828 -30 776 -30 c 0
 660 -30 588 46 588 172 c 0
EndSplineSet
EndChar

StartChar: a.sc
Encoding: 65555 -1 457
Width: 1400
VWidth: 0
Flags: MW
Fore
SplineSet
681 730 m 258
 559 548 l 258
 537 516 544 505 591 505 c 258
 735 505 l 258
 776 505 787 499 780 538 c 258
 746 725 l 258
 738 767 736 791 728 791 c 256
 721 791 702 763 681 730 c 258
-83 36 m 258
 -83 215 l 258
 -83 242 -76 246 -55 246 c 258
 42 246 l 258
 70 246 76 244 82 253 c 258
 602 1020 l 258
 618 1044 618 1053 659 1053 c 258
 945 1053 l 258
 1007 1053 1004 1046 1014 995 c 258
 1179 254 l 258
 1181 246 1184 246 1212 246 c 258
 1303 246 l 258
 1324 246 1330 241 1330 211 c 258
 1330 42 l 258
 1330 7 1328 0 1302 0 c 258
 722 0 l 258
 699 0 692 3 692 35 c 258
 692 188 l 258
 692 229 695 246 729 246 c 258
 789 246 l 258
 802 246 811 247 808 254 c 258
 805 267 l 258
 802 275 790 278 758 278 c 258
 442 278 l 258
 402 278 388 277 382 270 c 258
 369 255 l 258
 364 250 365 246 391 246 c 258
 427 246 l 258
 451 246 456 233 456 200 c 258
 456 51 l 258
 456 7 454 0 421 0 c 258
 -50 0 l 258
 -77 0 -83 0 -83 36 c 258
EndSplineSet
EndChar

StartChar: b.sc
Encoding: 65565 -1 467
Width: 1334
VWidth: 0
Flags: MW
Fore
SplineSet
641 -21 m 258
 -22 -21 l 258
 -63 -21 -69 -20 -69 35 c 258
 -69 185 l 258
 -69 218 -67 230 -41 230 c 258
 64 230 l 258
 106 230 106 232 114 262 c 258
 238 753 l 258
 249 787 261 789 189 789 c 258
 161 789 l 258
 114 789 108 796 108 857 c 258
 108 974 l 258
 108 1032 121 1040 162 1040 c 258
 865 1040 l 258
 1165 1040 1321 954 1321 785 c 256
 1321 652 1215 586 1037 550 c 256
 986 540 955 546 955 531 c 256
 955 518 977 523 1026 515 c 256
 1172 488 1248 435 1248 312 c 256
 1248 86 1047 -21 641 -21 c 258
585 230 m 258
 732 230 793 269 793 333 c 256
 793 397 732 408 668 408 c 258
 557 408 l 258
 519 408 513 403 506 382 c 258
 466 255 l 258
 456 232 450 230 506 230 c 258
 585 230 l 258
608 640 m 258
 721 640 l 258
 819 640 914 673 914 735 c 256
 914 779 863 789 810 789 c 258
 666 789 l 258
 629 789 632 786 626 768 c 258
 588 660 l 258
 583 647 571 640 608 640 c 258
EndSplineSet
EndChar

StartChar: c.sc
Encoding: 65566 -1 468
Width: 1373
VWidth: 0
Flags: MW
Fore
SplineSet
1290 383 m 256
 1212 180 970 -28 603 -28 c 256
 281 -28 49 112 49 433 c 256
 49 784 352 1076 808 1076 c 256
 932 1076 1021 1036 1083 977 c 256
 1111 950 1113 927 1142 959 c 258
 1181 1003 l 258
 1200 1024 1205 1040 1244 1040 c 258
 1393 1040 l 258
 1433 1040 1427 1035 1421 1001 c 258
 1352 631 l 258
 1346 610 1342 602 1301 602 c 258
 1141 602 l 258
 1103 602 1100 603 1102 624 c 256
 1120 771 999 847 863 847 c 256
 654 847 513 667 513 461 c 256
 513 294 608 241 732 241 c 256
 858 241 982 297 1057 390 c 256
 1073 410 1077 425 1120 425 c 258
 1239 425 l 258
 1314 425 1311 419 1290 383 c 256
EndSplineSet
EndChar

StartChar: d.sc
Encoding: 65572 -1 474
Width: 1439
VWidth: 0
Flags: MW
Fore
SplineSet
-69 48 m 258
 -69 198 l 258
 -69 244 -54 246 -22 246 c 258
 86 246 l 258
 82 246 81 248 80 272 c 256
 205 757 l 258
 217 793 284 794 216 794 c 258
 153 794 l 258
 114 794 107 795 107 847 c 258
 107 980 l 258
 107 1033 120 1040 158 1040 c 258
 779 1040 l 258
 1251 1040 1391 843 1391 645 c 256
 1391 197 983 0 550 0 c 258
 -26 0 l 258
 -57 0 -69 4 -69 48 c 258
558 246 m 258
 590 246 l 258
 778 246 927 393 927 646 c 256
 927 762 856 794 758 794 c 258
 686 794 l 258
 656 794 654 794 649 769 c 258
 522 277 l 258
 513 251 504 246 558 246 c 258
EndSplineSet
EndChar

StartChar: e.sc
Encoding: 65574 -1 476
Width: 1244
VWidth: 0
Flags: MW
Fore
SplineSet
562 432 m 258
 519 275 l 258
 510 253 495 246 551 246 c 258
 621 246 l 258
 801 246 926 275 987 404 c 256
 999 424 1002 430 1056 430 c 258
 1145 430 l 258
 1204 430 1199 423 1189 399 c 258
 1098 58 l 258
 1088 8 1084 0 1028 0 c 258
 -37 0 l 258
 -63 0 -69 3 -69 40 c 258
 -69 190 l 258
 -69 242 -63 246 -25 246 c 258
 73 246 l 258
 75 246 76 247 76 271 c 256
 213 768 l 258
 221 787 287 794 238 794 c 258
 155 794 l 258
 127 794 116 794 116 834 c 258
 116 1009 l 258
 116 1036 121 1040 143 1040 c 258
 1280 1040 l 258
 1337 1040 1323 1018 1314 976 c 258
 1248 667 l 256
 1238 642 1237 632 1176 632 c 258
 1080 632 l 258
 1030 632 1039 642 1044 661 c 256
 1071 763 1001 794 840 794 c 258
 700 794 l 258
 675 794 663 792 658 778 c 258
 618 635 l 258
 615 627 620 626 625 626 c 258
 626 626 l 258
 678 626 712 644 733 682 c 256
 753 702 751 716 816 716 c 258
 876 716 l 258
 929 716 930 713 921 691 c 258
 824 373 l 258
 815 351 811 346 758 346 c 258
 684 346 l 258
 640 346 645 351 647 369 c 256
 653 418 618 443 575 443 c 258
 574 443 l 258
 566 443 563 439 562 432 c 258
EndSplineSet
EndChar

StartChar: f.sc
Encoding: 65584 -1 486
Width: 1274
VWidth: 0
Flags: MW
Fore
SplineSet
-69 34 m 258
 -69 200 l 258
 -69 238 -68 246 -39 246 c 258
 25 246 l 258
 51 246 62 248 67 267 c 258
 207 771 l 258
 212 789 207 794 169 794 c 258
 142 794 l 258
 106 794 105 802 105 849 c 258
 105 1002 l 258
 105 1032 106 1040 129 1040 c 258
 1306 1040 l 258
 1361 1040 1356 1034 1347 991 c 258
 1267 636 l 258
 1260 618 1257 609 1214 609 c 258
 1084 609 l 258
 1034 609 1041 616 1047 636 c 256
 1079 749 1001 794 828 794 c 258
 700 794 l 258
 667 794 655 793 649 774 c 258
 605 615 l 258
 603 610 595 598 611 598 c 258
 612 598 l 258
 683 598 730 629 754 683 c 256
 761 693 759 695 786 695 c 258
 901 695 l 258
 941 695 942 692 935 676 c 258
 805 312 l 258
 798 298 790 296 756 296 c 258
 655 296 l 258
 616 296 618 300 621 316 c 256
 636 390 607 413 558 414 c 258
 556 414 l 258
 552 414 548 412 547 408 c 258
 506 261 l 258
 500 248 514 246 558 246 c 258
 618 246 l 258
 649 246 650 238 650 206 c 258
 650 35 l 258
 650 2 643 0 612 0 c 258
 -37 0 l 258
 -60 0 -69 2 -69 34 c 258
EndSplineSet
EndChar

StartChar: g.sc
Encoding: 65585 -1 487
Width: 1497
VWidth: 0
Flags: MW
Fore
SplineSet
822 588 m 258
 1452 588 l 258
 1481 588 1484 582 1484 543 c 258
 1484 427 l 258
 1484 385 1480 379 1447 379 c 258
 1370 379 l 258
 1337 379 1329 377 1324 353 c 258
 1285 195 l 258
 1276 156 1259 160 1215 141 c 256
 1104 86 905 -28 600 -28 c 256
 271 -28 49 149 49 433 c 256
 49 784 352 1076 808 1076 c 256
 930 1076 1019 1038 1081 980 c 256
 1117 947 1114 928 1150 968 c 258
 1196 1019 l 258
 1210 1034 1221 1040 1250 1040 c 258
 1388 1040 l 258
 1429 1040 1429 1036 1422 999 c 258
 1353 662 l 258
 1345 637 1336 634 1284 634 c 258
 1153 634 l 258
 1104 634 1101 635 1103 659 c 256
 1115 783 997 847 863 847 c 256
 654 847 513 665 513 458 c 256
 513 302 563 230 700 230 c 256
 791 230 849 243 910 281 c 256
 926 291 934 295 938 315 c 258
 947 360 l 258
 951 375 955 379 923 379 c 258
 831 379 l 258
 805 379 800 380 800 414 c 258
 800 551 l 258
 800 588 807 588 822 588 c 258
EndSplineSet
EndChar

StartChar: h.sc
Encoding: 65589 -1 491
Width: 1423
VWidth: 0
Flags: MW
Fore
SplineSet
-69 41 m 258
 -69 189 l 258
 -69 242 -65 246 -26 246 c 258
 51 246 l 258
 95 246 92 251 100 280 c 258
 227 772 l 258
 233 791 240 794 201 794 c 258
 144 794 l 258
 114 794 108 798 108 839 c 258
 108 983 l 258
 108 1038 115 1040 156 1040 c 258
 736 1040 l 258
 759 1040 762 1035 762 1003 c 258
 762 835 l 258
 762 795 756 794 725 794 c 258
 646 794 l 258
 618 794 614 790 609 775 c 258
 574 670 l 258
 567 654 568 648 599 648 c 258
 895 648 l 258
 919 648 921 648 925 661 c 258
 963 777 l 258
 969 790 968 794 944 794 c 258
 884 794 l 258
 853 794 852 803 852 844 c 258
 852 1004 l 258
 852 1034 856 1040 880 1040 c 258
 1457 1040 l 258
 1486 1040 1493 1040 1493 1001 c 258
 1493 831 l 258
 1493 799 1489 794 1466 794 c 258
 1364 794 l 258
 1337 794 1331 791 1326 772 c 258
 1198 276 l 258
 1189 251 1179 246 1231 246 c 258
 1292 246 l 258
 1322 246 1329 243 1329 201 c 258
 1329 46 l 258
 1329 4 1324 0 1293 0 c 258
 688 0 l 258
 663 0 662 8 662 41 c 258
 662 209 l 258
 662 242 667 246 691 246 c 258
 774 246 l 258
 801 246 810 252 815 269 c 258
 857 401 l 258
 862 416 856 421 824 421 c 258
 534 421 l 258
 510 421 510 421 506 408 c 258
 461 269 l 258
 456 253 461 246 486 246 c 258
 545 246 l 258
 572 246 579 243 579 205 c 258
 579 45 l 258
 579 1 569 0 537 0 c 258
 -32 0 l 258
 -63 0 -69 0 -69 41 c 258
EndSplineSet
EndChar

StartChar: hyphen.sc
Encoding: 65591 -1 493
Width: 920
Flags: MW
Fore
SplineSet
148 660 m 2
 774 660 l 2
 785 660 793 658 796 655 c 128
 799 652 800 644 800 632 c 2
 800 463 l 2
 800 451 799 443 796 438 c 128
 793 433 785 430 772 430 c 2
 146 430 l 2
 133 430 126 432 124 436 c 128
 122 440 120 447 120 460 c 2
 120 632 l 2
 120 643 122 650 126 654 c 128
 130 658 137 660 148 660 c 2
EndSplineSet
EndChar

StartChar: i.sc
Encoding: 65592 -1 494
Width: 814
VWidth: 0
Flags: MW
Fore
SplineSet
-28 30 m 258
 -28 218 l 258
 -28 246 0 246 0 246 c 256
 104 246 l 258
 125 246 136 248 141 267 c 258
 277 771 l 258
 284 791 271 794 234 794 c 258
 172 794 l 258
 145 794 143 801 143 837 c 258
 143 1007 l 258
 143 1034 147 1040 166 1040 c 258
 840 1040 l 258
 862 1040 862 1032 862 1003 c 258
 862 833 l 258
 862 798 858 794 832 794 c 258
 736 794 l 258
 713 794 707 790 703 777 c 258
 567 272 l 258
 559 249 576 246 586 246 c 258
 675 246 l 258
 700 246 706 243 706 210 c 258
 706 46 l 258
 706 4 702 0 671 0 c 258
 0 0 l 258
 -22 0 -28 1 -28 30 c 258
EndSplineSet
EndChar

StartChar: j.sc
Encoding: 65602 -1 504
Width: 1226
VWidth: 0
Flags: MW
Fore
SplineSet
-55 292 m 256
 -55 444 74 544 232 544 c 256
 363 544 458 484 458 405 c 256
 458 290 320 291 320 254 c 256
 320 246 331 206 419 206 c 256
 492 206 545 246 576 357 c 258
 701 762 l 258
 711 790 706 794 654 794 c 258
 554 794 l 258
 525 794 519 797 519 830 c 258
 519 1003 l 258
 519 1039 525 1040 557 1040 c 258
 1268 1040 l 258
 1312 1040 1324 1037 1324 983 c 258
 1324 848 l 258
 1324 800 1320 794 1279 794 c 258
 1179 794 l 258
 1149 794 1140 791 1134 761 c 258
 1020 392 l 256
 943 119 764 -21 419 -21 c 256
 149 -21 -55 115 -55 292 c 256
EndSplineSet
EndChar

StartChar: k.sc
Encoding: 65604 -1 506
Width: 1289
VWidth: 0
Flags: MW
Fore
SplineSet
-69 44 m 258
 -69 196 l 258
 -69 242 -63 246 -29 246 c 258
 53 246 l 258
 86 246 85 248 91 270 c 258
 222 762 l 258
 232 792 239 794 184 794 c 258
 126 794 l 258
 100 794 90 796 90 833 c 258
 90 1005 l 258
 90 1033 93 1040 114 1040 c 258
 679 1040 l 258
 710 1040 723 1037 723 992 c 258
 723 831 l 258
 723 791 715 789 687 789 c 258
 643 789 l 258
 606 789 611 778 605 755 c 258
 554 568 l 258
 547 538 546 533 580 562 c 256
 863 760 l 258
 891 775 937 789 860 789 c 258
 829 789 l 258
 806 789 802 796 802 824 c 258
 802 995 l 258
 802 1040 820 1040 851 1040 c 258
 1326 1040 l 258
 1359 1040 1360 1040 1360 996 c 258
 1360 833 l 258
 1360 795 1357 789 1329 789 c 258
 1228 789 l 258
 1192 789 1184 785 1166 773 c 258
 866 573 l 256
 814 547 839 547 894 534 c 256
 1155 451 1002 246 1184 246 c 258
 1246 246 l 258
 1275 246 1279 241 1279 202 c 258
 1279 47 l 258
 1279 2 1272 0 1239 0 c 258
 953 0 l 258
 600 0 748 240 688 419 c 256
 674 469 669 453 643 425 c 256
 517 341 l 258
 504 332 489 327 485 311 c 258
 475 273 l 258
 467 249 458 246 507 246 c 258
 579 246 l 258
 599 246 605 243 605 215 c 258
 605 42 l 258
 605 0 595 0 565 0 c 258
 -43 0 l 258
 -69 0 -69 9 -69 44 c 258
EndSplineSet
EndChar

StartChar: l.sc
Encoding: 65605 -1 507
Width: 1162
VWidth: 0
Flags: MW
Fore
SplineSet
-69 50 m 258
 -69 205 l 258
 -69 237 -69 246 -44 246 c 258
 73 246 l 258
 67 246 68 248 67 275 c 256
 193 764 l 258
 203 794 264 794 206 794 c 258
 140 794 l 258
 109 794 103 794 103 835 c 258
 103 1008 l 258
 103 1039 109 1040 133 1040 c 258
 730 1040 l 258
 758 1040 762 1035 762 997 c 258
 762 838 l 258
 762 802 760 794 733 794 c 258
 631 794 l 258
 634 794 633 793 634 764 c 256
 509 279 l 258
 499 251 483 246 540 246 c 258
 603 246 l 258
 761 246 821 297 868 460 c 256
 877 481 881 486 924 486 c 258
 1044 486 l 258
 1086 486 1094 481 1086 459 c 258
 983 28 l 258
 978 1 970 0 942 0 c 258
 -28 0 l 258
 -63 0 -69 2 -69 50 c 258
EndSplineSet
EndChar

StartChar: m.sc
Encoding: 65608 -1 510
Width: 1802
VWidth: 0
Flags: MW
Fore
SplineSet
1102 462 m 258
 824 23 l 258
 807 -4 811 -14 767 -14 c 258
 643 -14 l 258
 593 -14 593 -13 586 34 c 258
 493 561 l 258
 481 634 485 686 470 686 c 256
 455 686 448 621 431 565 c 258
 341 273 l 258
 331 247 345 246 361 246 c 258
 443 246 l 258
 474 246 475 238 475 201 c 258
 475 45 l 258
 475 5 471 0 435 0 c 258
 -32 0 l 258
 -75 0 -83 1 -83 52 c 258
 -83 211 l 258
 -83 239 -78 246 -55 246 c 258
 52 246 l 258
 76 246 83 251 90 281 c 258
 236 758 l 258
 249 789 245 794 232 794 c 258
 176 794 l 258
 134 794 129 799 129 846 c 258
 129 999 l 258
 129 1040 141 1040 174 1040 c 258
 715 1040 l 258
 771 1040 777 1036 785 994 c 258
 865 591 l 258
 878 524 879 485 890 485 c 256
 904 485 931 537 966 588 c 258
 1253 1002 l 258
 1273 1032 1282 1040 1341 1040 c 258
 1794 1040 l 258
 1824 1040 1830 1038 1830 1003 c 258
 1830 857 l 258
 1830 801 1827 794 1780 794 c 258
 1681 794 l 258
 1675 794 1655 794 1654 772 c 258
 1545 281 l 258
 1537 250 1549 246 1557 246 c 258
 1648 246 l 258
 1681 246 1687 243 1687 205 c 258
 1687 52 l 258
 1687 3 1679 0 1639 0 c 258
 1057 0 l 258
 1013 0 1004 2 1004 56 c 258
 1004 190 l 258
 1004 241 1009 246 1051 246 c 258
 1094 246 l 258
 1124 246 1121 252 1128 288 c 258
 1159 438 l 258
 1164 460 1222 679 1210 679 c 256
 1201 679 1142 525 1102 462 c 258
EndSplineSet
EndChar

StartChar: n.sc
Encoding: 65609 -1 511
Width: 1546
VWidth: 0
Flags: MW
Fore
SplineSet
143 794 m 258
 126 794 l 258
 95 794 91 798 91 834 c 258
 91 1004 l 258
 91 1039 97 1040 126 1040 c 258
 600 1040 l 258
 647 1040 659 1038 677 1013 c 258
 979 609 l 258
 1002 578 1021 545 1029 545 c 256
 1036 545 1038 562 1048 594 c 258
 1100 771 l 258
 1106 792 1104 794 1063 794 c 258
 995 794 l 258
 961 794 956 799 956 832 c 258
 956 1004 l 258
 956 1035 960 1040 993 1040 c 258
 1544 1040 l 258
 1569 1040 1575 1035 1575 1010 c 258
 1575 831 l 258
 1575 799 1571 794 1543 794 c 258
 1404 794 l 258
 1370 794 1369 794 1363 776 c 258
 1161 18 l 258
 1156 -7 1152 -14 1122 -14 c 258
 985 -14 l 258
 948 -14 939 -7 925 14 c 258
 473 598 l 258
 448 632 428 665 419 665 c 256
 411 665 409 641 398 599 c 258
 318 267 l 258
 313 251 316 246 346 246 c 258
 404 246 l 258
 423 246 430 246 430 223 c 258
 430 32 l 258
 430 5 425 0 404 0 c 258
 -48 0 l 258
 -66 0 -69 6 -69 29 c 258
 -69 205 l 258
 -69 238 -69 246 -42 246 c 258
 49 246 l 258
 61 246 81 246 83 265 c 258
 205 764 l 258
 214 791 194 794 143 794 c 258
EndSplineSet
EndChar

StartChar: o.sc
Encoding: 65613 -1 515
Width: 1538
VWidth: 0
Flags: MW
Fore
SplineSet
866 1061 m 257
 1225 1061 1490 927 1490 618 c 256
 1490 240 1142 -34 672 -34 c 257
 686 192 l 257
 900 192 1026 425 1026 622 c 256
 1026 758 982 835 852 835 c 257
 866 1061 l 257
672 -34 m 257
 313 -34 49 101 49 410 c 256
 49 788 396 1061 866 1061 c 257
 852 835 l 257
 652 835 513 602 513 405 c 256
 513 269 556 192 686 192 c 257
 672 -34 l 257
EndSplineSet
EndChar

StartChar: p.sc
Encoding: 65622 -1 524
Width: 1213
VWidth: 0
Flags: MW
Fore
SplineSet
580 606 m 258
 618 606 l 258
 751 606 826 671 826 734 c 256
 826 770 786 794 722 794 c 258
 645 794 l 258
 610 794 612 792 606 773 c 258
 557 623 l 258
 551 610 545 606 580 606 c 258
455 338 m 258
 428 261 l 258
 422 248 416 246 454 246 c 258
 548 246 l 258
 595 246 597 239 597 177 c 258
 597 55 l 258
 597 2 590 0 549 0 c 258
 -22 0 l 258
 -52 0 -69 2 -69 45 c 258
 -69 210 l 258
 -69 240 -66 246 -44 246 c 258
 50 246 l 258
 77 246 75 249 80 267 c 258
 239 762 l 258
 249 793 237 794 195 794 c 258
 112 794 l 258
 86 794 83 800 83 836 c 258
 83 1005 l 258
 83 1033 87 1040 110 1040 c 258
 777 1040 l 258
 1074 1040 1228 939 1228 753 c 256
 1228 452 893 359 603 359 c 258
 498 359 l 258
 457 359 462 354 455 338 c 258
EndSplineSet
EndChar

StartChar: q.sc
Encoding: 65623 -1 525
Width: 1624
VWidth: 0
Flags: MW
Fore
SplineSet
534 405 m 256
 534 269 582 192 729 192 c 256
 970 192 1112 425 1112 622 c 256
 1112 758 1063 835 916 835 c 256
 691 835 534 602 534 405 c 256
49 -185 m 256
 49 -16 325 1 453 1 c 256
 826 1 815 -186 876 -186 c 256
 896 -186 901 -183 901 -177 c 256
 901 -162 870 -173 870 -126 c 256
 870 -68 982 -43 1084 -43 c 256
 1186 -43 1283 -91 1283 -159 c 256
 1283 -319 1012 -327 883 -327 c 256
 491 -327 548 -140 454 -140 c 256
 436 -140 430 -141 430 -149 c 256
 430 -165 472 -157 472 -218 c 256
 472 -293 373 -327 253 -327 c 256
 133 -327 49 -271 49 -185 c 256
70 410 m 256
 70 788 441 1061 942 1061 c 256
 1307 1061 1576 927 1576 618 c 256
 1576 240 1204 -34 703 -34 c 256
 338 -34 70 101 70 410 c 256
EndSplineSet
EndChar

StartChar: r.sc
Encoding: 65624 -1 526
Width: 1426
VWidth: 0
Flags: MW
Fore
SplineSet
1384 142 m 256
 1281 15 1113 -27 990 -27 c 256
 823 -27 705 22 705 120 c 256
 705 185 729 233 729 285 c 256
 729 318 700 392 583 392 c 258
 533 392 l 258
 502 392 497 389 491 373 c 258
 454 269 l 258
 447 252 456 246 482 246 c 258
 547 246 l 258
 575 246 582 245 582 209 c 258
 582 50 l 258
 582 4 578 0 545 0 c 258
 -10 0 l 258
 -37 0 -42 6 -42 41 c 258
 -42 205 l 258
 -42 241 -38 246 -10 246 c 258
 83 246 l 258
 118 246 113 253 119 275 c 258
 246 764 l 258
 255 791 263 794 213 794 c 258
 147 794 l 258
 116 794 111 797 111 837 c 258
 111 1004 l 258
 111 1039 117 1040 144 1040 c 258
 860 1040 l 258
 1151 1040 1342 989 1342 822 c 256
 1342 701 1212 629 1029 587 c 256
 973 575 965 573 965 563 c 256
 965 553 972 551 1029 537 c 256
 1117 515 1161 488 1161 403 c 256
 1161 344 1131 311 1131 283 c 256
 1131 269 1147 259 1166 259 c 256
 1189 259 1214 262 1255 282 c 256
 1277 307 1277 309 1301 282 c 256
 1390 211 l 256
 1418 181 1410 174 1384 142 c 256
627 647 m 258
 742 647 l 258
 863 647 939 691 939 743 c 256
 939 773 895 794 822 794 c 258
 684 794 l 258
 643 794 636 792 629 773 c 258
 588 670 l 258
 579 650 574 647 627 647 c 258
EndSplineSet
EndChar

StartChar: s.sc
Encoding: 65627 -1 529
Width: 1291
VWidth: 0
Flags: MW
Fore
SplineSet
601 735 m 256
 601 582 1212 678 1212 325 c 256
 1212 136 992 -16 648 -16 c 256
 478 -16 368 28 299 92 c 256
 271 118 274 125 243 98 c 258
 173 39 l 258
 156 25 143 18 110 18 c 258
 5 18 l 258
 -34 18 -54 32 -50 46 c 258
 57 439 l 258
 65 462 69 468 115 468 c 258
 219 468 l 258
 283 468 273 455 273 421 c 256
 273 294 450 180 564 180 c 256
 718 180 755 233 755 308 c 256
 755 487 150 369 150 710 c 256
 150 900 376 1048 672 1048 c 256
 820 1048 935 999 1011 926 c 256
 1029 909 1030 899 1050 916 c 258
 1135 990 l 258
 1150 1003 1169 1005 1199 1005 c 258
 1296 1005 l 258
 1347 1005 1347 1000 1338 958 c 258
 1267 638 l 258
 1256 589 1244 609 1183 609 c 258
 1088 609 l 258
 1046 609 1042 610 1042 634 c 256
 1042 740 884 847 751 847 c 256
 640 847 601 788 601 735 c 256
EndSplineSet
EndChar

StartChar: t.sc
Encoding: 65632 -1 534
Width: 1361
VWidth: 0
Flags: MW
Fore
SplineSet
174 53 m 258
 174 202 l 258
 174 245 183 246 226 246 c 258
 361 246 l 258
 388 246 386 251 391 280 c 258
 544 797 l 258
 546 802 537 803 528 803 c 258
 526 803 l 258
 392 803 341 759 290 634 c 256
 275 604 271 596 214 596 c 258
 125 596 l 258
 56 596 54 600 67 634 c 258
 164 991 l 258
 173 1034 180 1040 230 1040 c 258
 1372 1040 l 258
 1442 1040 1445 1035 1429 966 c 258
 1348 625 l 258
 1340 604 1337 596 1293 596 c 258
 1174 596 l 258
 1104 596 1114 607 1124 639 c 256
 1161 763 1119 803 995 803 c 258
 972 803 l 258
 952 803 951 794 948 781 c 258
 803 291 l 258
 792 259 750 246 818 246 c 258
 922 246 l 258
 963 246 967 240 967 193 c 258
 967 67 l 258
 967 5 961 0 907 0 c 258
 228 0 l 258
 181 0 174 4 174 53 c 258
EndSplineSet
EndChar

StartChar: u.sc
Encoding: 65634 -1 536
Width: 1451
VWidth: 0
Flags: MW
Fore
SplineSet
708 762 m 258
 598 445 l 256
 575 396 569 355 569 325 c 256
 569 273 604 225 711 225 c 256
 831 225 965 258 1019 433 c 258
 1125 763 l 258
 1135 788 1168 794 1118 794 c 258
 1037 794 l 258
 999 794 999 803 999 849 c 258
 999 993 l 258
 999 1030 1000 1040 1031 1040 c 258
 1505 1040 l 258
 1535 1040 1535 1030 1535 994 c 258
 1535 830 l 258
 1535 800 1524 794 1500 794 c 258
 1408 794 l 258
 1393 794 1391 791 1388 772 c 258
 1279 433 l 256
 1189 113 1011 -35 634 -35 c 256
 276 -35 129 97 129 263 c 256
 129 316 137 373 150 433 c 256
 266 768 l 258
 275 790 294 794 247 794 c 258
 147 794 l 258
 116 794 111 801 111 838 c 258
 111 1001 l 258
 111 1035 120 1040 147 1040 c 258
 841 1040 l 258
 882 1040 893 1036 893 983 c 258
 893 840 l 258
 893 800 888 794 856 794 c 258
 755 794 l 258
 716 794 716 792 708 762 c 258
EndSplineSet
EndChar

